<svg width="362" height="268" viewBox="0 0 362 268" fill="none" xmlns="http://www.w3.org/2000/svg">
<path d="M307.479 177.534H53.9658V214.592H307.479V177.534Z" fill="#110239"/>
<path d="M315.832 202.966H45.2485C36.5317 202.966 29.6309 196.063 29.6309 187.344V16.226C29.6309 7.50661 36.5317 0.60376 45.2485 0.60376H315.832C324.549 0.60376 331.45 7.50661 331.45 16.226V187.344C331.45 196.063 324.549 202.966 315.832 202.966Z" fill="#110239"/>
<path d="M317.65 14.046H43.7969V187.343H317.65V14.046Z" fill="#FEFEFE"/>
<path d="M0.575195 257.099V262.549C0.575195 265.455 3.844 267.998 7.8392 267.998H353.242C357.238 267.998 360.506 265.455 360.506 262.549V257.099H0.575195Z" fill="#110239"/>
<path d="M180.721 214.229H32.8991C32.5359 214.592 9.29106 235.664 2.02706 250.923C-0.878541 257.462 0.937456 261.095 6.74866 261.095H181.085H355.421C361.232 261.095 363.048 257.462 360.142 250.923C352.878 235.3 329.633 214.592 329.27 214.229H180.721Z" fill="#110239"/>
<path d="M341.982 253.465H27.0879L48.8799 221.131H320.19L341.982 253.465Z" fill="#9C9EB9"/>
<path d="M338.352 247.653L337.626 246.563H316.56L312.565 238.57H332.178L331.451 237.48H312.202L308.206 229.487H326.366L325.64 228.397H307.843L303.848 220.405H302.032L306.027 228.397H283.509L280.24 220.405H278.424L281.693 228.397H259.174L256.995 220.405H255.179L257.358 228.397H234.84L233.387 220.405H231.571L233.024 228.397H210.506L209.779 220.405H207.963L208.69 228.397H187.261V220.405H185.082V228.397H162.926L163.653 220.405H161.837L161.11 228.397H138.592L140.045 220.405H137.866L136.413 228.397H113.894L116.074 220.405H114.258L112.078 228.397H89.56L92.8288 220.405H91.0128L87.744 228.397H65.2256L69.2208 220.405H67.4048L63.4096 228.397H43.4336L42.7072 229.487H62.6832L58.688 237.48H37.2592L36.5328 238.57H57.9616L53.9664 246.563H31.0848L30.3584 247.653H53.6032L50.6976 253.466H52.8768L55.7824 247.653H80.1168L77.9376 253.466H80.1168L82.296 247.653H106.63L104.814 253.466H106.994L108.81 247.653H133.144L132.054 253.466H134.234L135.323 247.653H159.658L159.294 253.466H161.474L161.837 247.653H185.445V253.466H187.624V247.653H210.506L210.869 253.466H213.048L212.685 247.653H237.019L238.109 253.466H240.288L239.198 247.653H263.533L265.349 253.466H267.528L265.712 247.653H290.046L292.226 253.466H294.405L292.226 247.653H316.56L319.466 253.466H321.645L318.739 247.653H338.352ZM89.1968 229.851H111.715L109.536 237.843H86.2912L89.1968 229.851ZM64.4992 229.851H87.0176L83.7488 237.843H60.504L64.4992 229.851ZM80.48 246.563H56.1456L60.1408 238.57H83.7488L80.48 246.563ZM106.994 246.563H82.6592L85.5648 238.57H109.173L106.994 246.563ZM133.144 246.563H108.81L110.989 238.57H134.597L133.144 246.563ZM134.597 237.843H111.352L113.531 229.851H136.05L134.597 237.843ZM159.294 246.563H134.96L136.413 238.57H160.021L159.294 246.563ZM160.021 237.843H136.776L138.229 229.851H160.747L160.021 237.843ZM184.718 246.563H161.11L161.837 238.57H184.718V246.563ZM184.718 237.843H161.837L162.563 229.851H184.718V237.843ZM186.898 229.851H208.326L209.053 237.843H186.898V229.851ZM186.898 246.563V238.57H209.053L209.779 246.563H186.898ZM306.39 229.851L310.386 237.843H286.778L283.509 229.851H306.39ZM281.693 229.851L284.598 237.843H261.354L259.174 229.851H281.693ZM210.142 229.851H232.661L234.114 237.843H210.869L210.142 229.851ZM211.958 246.563L211.232 238.57H234.84L236.293 246.563H211.958ZM234.84 229.851H257.358L259.538 237.843H236.293L234.84 229.851ZM238.109 246.563L236.656 238.57H260.264L262.443 246.563H238.109ZM264.259 246.563L262.08 238.57H285.688L288.594 246.563H264.259ZM290.41 246.563L287.141 238.57H310.749L314.744 246.563H290.41Z" fill="#D0D1DE"/>
<path d="M180.723 261.458H165.469C165.469 261.458 165.469 262.912 166.195 263.638C166.558 264.002 166.922 264.002 167.285 264.002H180.723H194.162C194.525 264.002 194.888 264.002 195.251 263.638C195.978 262.912 195.978 261.458 195.978 261.458H180.723Z" fill="#110239"/>
<path d="M288.592 171.722H72.4883V39.8411H288.592V171.722ZM76.8467 167.725H284.597V43.8374H76.8467V167.725Z" fill="#D0D1DE"/>
<path d="M256.994 73.2651H237.018V159.369H256.994V73.2651Z" fill="#5BC6F9"/>
<path d="M219.947 119.405H199.971V159.005H219.947V119.405Z" fill="#D0D1DE"/>
<path d="M182.538 109.959H162.562V159.006H182.538V109.959Z" fill="#01C7E2"/>
<path d="M145.491 82.3479H125.515V159.369H145.491V82.3479Z" fill="#D0D1DE"/>
<path d="M108.081 99.0603H88.1055V159.006H108.081V99.0603Z" fill="#D0D1DE"/>
<path d="M210.505 104.147L172.369 96.5171L135.323 61.6396L99.0026 93.6106L97.5498 92.1574L135.686 58.7332L173.095 94.7006L209.415 101.967L246.462 50.0138L247.915 51.1037L210.505 104.147Z" fill="#110239"/>
<path d="M102.997 92.8836C102.997 95.4268 100.818 97.2433 98.6387 97.2433C96.4595 97.2433 94.2803 95.0635 94.2803 92.8836C94.2803 90.3405 96.4595 88.5239 98.6387 88.5239C100.818 88.5239 102.997 90.3405 102.997 92.8836Z" fill="#5BC6F9"/>
<path d="M135.321 64.5457C137.728 64.5457 139.68 62.5938 139.68 60.186C139.68 57.7782 137.728 55.8263 135.321 55.8263C132.914 55.8263 130.963 57.7782 130.963 60.186C130.963 62.5938 132.914 64.5457 135.321 64.5457Z" fill="#5BC6F9"/>
<path d="M177.453 95.7901C177.453 98.3332 175.274 100.15 173.095 100.15C170.552 100.15 168.736 97.9699 168.736 95.7901C168.736 93.2469 170.916 91.4304 173.095 91.4304C175.274 91.0671 177.453 93.2469 177.453 95.7901Z" fill="#5BC6F9"/>
<path d="M214.5 101.966C214.5 104.51 212.321 106.326 210.142 106.326C207.599 106.326 205.783 104.146 205.783 101.966C205.783 99.7865 207.962 97.6067 210.142 97.6067C212.321 97.6067 214.5 99.4232 214.5 101.966Z" fill="#5BC6F9"/>
<path d="M251.547 51.4668C251.547 54.01 249.368 55.8265 247.188 55.8265C244.646 55.8265 242.83 53.6467 242.83 51.4668C242.83 48.9237 245.009 47.1072 247.188 47.1072C249.731 47.1072 251.547 48.9237 251.547 51.4668Z" fill="#5BC6F9"/>
<path d="M134.597 85.254C136.049 84.8907 137.502 84.1641 138.592 83.0741C138.955 82.7108 139.681 81.9842 140.045 81.6209C140.771 81.2576 141.497 80.8943 141.861 80.1677C142.587 79.8044 142.95 79.0778 144.04 79.0778C145.129 79.0778 144.403 80.1677 144.04 80.8943C143.677 81.6209 140.771 82.7108 141.134 83.8008C141.134 84.8907 144.403 83.4374 145.129 83.0741C146.582 82.3475 146.582 81.2576 147.672 79.8044C148.035 79.0778 148.761 79.0778 148.761 79.8044C149.125 80.531 148.398 81.2576 148.035 81.9842C147.309 83.0741 146.219 84.5274 145.129 84.8907C146.219 84.5274 147.672 83.0741 148.398 82.3475C148.761 81.6209 150.577 78.7144 151.667 79.4411C153.846 80.8943 148.035 85.9806 146.945 86.3439C148.398 85.9806 149.125 84.8907 150.214 83.8008C150.941 83.4374 152.03 81.9842 152.393 83.4375C152.757 85.6173 148.761 87.0705 146.945 88.1604C148.398 87.7971 149.125 87.0705 150.577 86.7072C152.03 85.9806 152.03 87.4338 150.577 88.5238C149.851 88.8871 148.761 89.6137 148.398 89.977C145.129 91.4302 143.313 91.4302 140.045 91.0669C138.955 91.0669 136.413 91.7935 135.686 91.0669C133.87 89.6137 134.597 87.0705 134.597 85.254Z" fill="#FFCEA9"/>
<path d="M135.686 84.891L137.865 92.8837C137.865 92.8837 109.535 100.15 102.271 101.24C95.3706 102.33 80.1162 84.891 80.1162 84.891C80.1162 84.891 75.0314 72.1752 78.6634 72.5385C81.569 72.5385 103.361 89.2506 104.814 89.9773C106.267 90.7039 135.686 84.891 135.686 84.891Z" fill="#5FCF90"/>
<path d="M60.8653 228.761C60.8653 228.761 60.5021 234.21 61.5917 236.754C62.6813 239.297 69.2189 243.293 69.2189 243.293C69.2189 243.293 63.4077 244.383 60.8653 242.567C58.6861 240.75 53.2381 231.667 53.6013 230.214C53.9645 229.124 55.4173 225.128 55.4173 225.128L60.8653 228.761Z" fill="#FFCEA9"/>
<path d="M96.4591 225.491C96.4591 225.491 96.0959 230.94 97.1855 233.483C98.2751 236.027 104.813 240.023 104.813 240.023C104.813 240.023 99.0015 241.113 96.4591 239.296C94.2799 237.48 88.8318 228.397 89.195 226.944C89.5582 225.854 91.011 221.858 91.011 221.858L96.4591 225.491Z" fill="#FFCEA9"/>
<path d="M54.6929 228.761C54.6929 228.761 49.6081 230.577 51.0609 234.937C52.1505 239.297 52.1505 244.746 52.1505 244.746H53.6033C53.6033 244.746 53.9665 238.57 54.6929 238.57C55.7825 238.933 57.5985 244.746 59.7777 244.746C61.9569 244.746 71.4001 244.746 71.4001 244.746C71.4001 244.746 72.4897 243.656 71.4001 242.93C70.3105 242.203 62.3201 242.567 61.2305 240.75C60.5041 238.933 54.6929 228.761 54.6929 228.761Z" fill="#110239"/>
<path d="M90.6479 225.128C90.6479 225.128 85.5631 226.944 87.0159 231.304C88.1055 235.664 88.1055 241.477 88.1055 241.477H89.5583C89.5583 241.477 89.9215 235.3 90.6479 235.3C91.7375 235.664 93.5535 241.477 95.7327 241.477C97.9119 241.477 107.355 241.477 107.355 241.477C107.355 241.477 108.445 240.387 107.355 239.66C106.266 238.933 98.2751 239.297 97.1855 237.48C96.4591 235.3 90.6479 225.128 90.6479 225.128Z" fill="#110239"/>
<path d="M87.3808 116.499C87.3808 116.499 73.216 121.585 63.4096 116.499C63.4096 116.499 57.2352 121.585 56.1456 132.121C55.7824 135.391 56.1456 139.387 56.5088 144.11C57.2352 149.923 59.0512 165.182 57.9616 174.628C56.5088 188.433 52.1504 228.76 52.1504 228.76L61.9568 230.214C61.9568 230.214 70.6736 181.531 71.7632 175.718C72.8528 169.905 76.1216 145.2 76.1216 145.2C76.1216 145.2 82.296 164.092 83.7488 173.174C84.112 174.628 88.1072 226.217 88.1072 226.217H97.5504C97.5504 226.217 97.1872 168.815 97.1872 172.085C96.824 173.174 94.2816 133.574 87.3808 116.499Z" fill="#D0D1DE"/>
<path d="M82.2942 153.193C80.115 146.653 79.0254 143.747 74.667 137.934C75.0302 140.477 75.3934 143.02 75.7566 145.927C75.7566 145.927 80.8414 161.912 83.0206 171.722C82.6574 160.822 84.1102 157.553 82.2942 153.193Z" fill="#C3C4CE"/>
<path d="M77.21 59.4593C76.1204 59.096 71.762 49.6501 69.5828 47.4702C68.4932 54.0097 64.498 69.9953 64.498 69.9953C69.2196 75.0815 79.026 72.1751 79.026 72.1751C77.9364 68.542 77.21 61.6392 77.21 59.4593Z" fill="#FFCEA9"/>
<path d="M75.3945 36.2077C75.3945 36.2077 84.8378 38.3875 86.6538 41.294C88.4698 44.2005 88.4697 51.4666 89.5594 53.2831C90.2858 54.3731 90.6489 55.463 91.0121 56.1896C91.3753 56.9162 90.6489 57.2795 89.9225 57.2795C89.5593 57.2795 89.1961 57.6428 89.1961 58.3694C88.4697 60.186 87.0169 64.5457 85.5641 65.2723C83.7481 65.9989 73.9417 65.6356 71.0361 57.2795C67.7673 48.1968 69.2201 34.3912 75.3945 36.2077Z" fill="#FFCEA9"/>
<path d="M66.3138 66.7256C66.3138 66.7256 73.2146 69.632 79.389 71.8119C79.389 71.8119 87.0162 87.0708 87.7426 91.0672C88.1058 95.4269 92.101 124.128 92.101 124.128C92.101 124.128 76.8466 133.937 54.6914 126.308C54.6914 126.308 60.1394 103.42 58.6866 94.7003C57.597 85.6176 58.6866 73.2651 66.3138 66.7256Z" fill="#5FCF90"/>
<path d="M63.7725 128.488C63.4093 118.679 65.5885 109.959 65.9517 100.513C65.9517 92.884 63.0461 88.161 59.0509 83.438C58.6877 87.4344 58.6877 91.0674 59.0509 94.7005C60.1405 103.783 55.0557 126.308 55.0557 126.308C57.9613 127.398 60.8669 128.125 63.7725 128.488Z" fill="#5ABC85"/>
<path d="M54.6926 93.6103C60.1406 89.2507 57.9614 84.5277 63.4094 80.5313C63.7726 80.168 64.1358 79.8047 64.499 79.8047C64.8622 77.6248 59.051 78.7148 60.867 76.1716C63.0462 72.9018 72.1262 67.8155 71.763 64.5458C71.763 62.3659 71.3998 63.8192 72.1262 61.6393C72.4894 59.0962 73.579 58.7328 71.763 56.9163C70.3102 55.8264 69.2206 54.3732 70.3102 52.1933C71.0366 50.7401 72.4894 50.0135 73.9422 51.4667C74.3054 51.83 75.7582 55.0998 76.1214 53.2832C76.1214 52.9199 75.395 51.83 75.395 51.1034C75.395 50.3768 75.395 49.6502 76.1214 48.9236C77.211 47.8336 78.6638 47.4703 79.3902 46.3804C80.4798 44.9272 80.843 43.474 82.659 42.7473C83.3854 42.384 84.475 42.384 85.5646 42.7473C85.9278 42.7473 87.7438 44.2006 88.107 43.8373C91.0126 42.7473 89.923 38.0243 87.7438 36.5711C84.1118 34.028 79.3902 32.2114 74.6686 32.2114C69.2206 32.2114 64.1358 36.5711 60.867 40.9308C58.6878 43.8373 58.6878 47.107 56.8718 50.3768C55.419 53.2832 52.1502 54.7365 49.971 57.6429C48.155 60.1861 48.155 63.4558 48.8814 66.3623C49.6078 68.5421 49.971 70.722 49.6078 73.2651C49.2446 76.1716 46.7022 78.3514 45.9758 81.2579C45.2494 83.801 44.8862 85.6176 45.9758 89.2507C47.0654 94.337 50.3342 95.7902 54.6926 93.6103Z" fill="#3A2C6D"/>
<path d="M46.3383 141.567C46.3383 143.02 46.7015 144.474 47.4279 145.564C47.7911 146.29 48.1543 146.653 48.1543 147.38C48.1543 148.107 48.5175 148.833 48.8807 149.56C49.2439 150.287 49.6071 151.013 49.6071 151.74C49.6071 152.83 48.5175 152.103 48.1543 151.376C47.4279 150.65 47.0647 148.107 46.3383 148.107C45.2487 148.107 45.9751 151.376 46.3383 151.74C46.7015 153.193 47.7911 153.556 48.8807 154.646C49.2439 155.373 49.6071 155.736 48.5175 155.736C47.7911 155.736 47.0647 155.01 46.7015 154.646C45.6119 153.556 44.8855 152.466 44.5223 151.013C44.5223 152.103 45.6119 153.556 46.3383 154.283C46.7015 155.01 49.2439 157.189 48.1543 157.916C46.3383 159.369 42.7063 153.193 42.7063 152.103C43.0695 153.556 43.4327 154.646 44.1591 155.736C44.5223 156.463 45.6119 157.916 44.1591 157.916C41.9799 157.916 41.6167 153.556 40.8903 151.74C40.8903 153.193 41.2535 153.92 41.6167 155.373C41.9799 156.826 40.5271 156.826 40.1639 155.01C39.8007 154.283 39.4375 152.83 39.4375 152.466C38.7111 149.197 39.0743 147.38 40.1639 144.474C40.5271 143.384 40.1639 140.841 40.8903 140.477C42.3431 139.751 44.8855 141.204 46.3383 141.567Z" fill="#FFCEA9"/>
<path d="M47.791 141.567L39.0742 141.93C39.0742 141.93 39.0742 116.135 41.2534 107.053C43.4326 97.9699 60.1398 74.3549 64.135 72.9016C68.8566 70.7218 82.295 76.5347 72.1254 84.1642C62.319 91.7936 52.8758 110.322 52.5126 111.049C51.7862 111.776 47.791 141.567 47.791 141.567Z" fill="#5FCF90"/>
</svg>
