<?xml version="1.0" encoding="UTF-8" standalone="no"?>
<svg
   xmlns:dc="http://purl.org/dc/elements/1.1/"
   xmlns:cc="http://creativecommons.org/ns#"
   xmlns:rdf="http://www.w3.org/1999/02/22-rdf-syntax-ns#"
   xmlns:svg="http://www.w3.org/2000/svg"
   xmlns="http://www.w3.org/2000/svg"
   width="322.45889"
   height="358.25729"
   viewBox="0 0 322.45889 358.25729"
   fill="none"
   version="1.1"
   id="svg208">
  <metadata
     id="metadata214">
    <rdf:RDF>
      <cc:Work
         rdf:about="">
        <dc:format>image/svg+xml</dc:format>
        <dc:type
           rdf:resource="http://purl.org/dc/dcmitype/StillImage" />
        <dc:title></dc:title>
      </cc:Work>
    </rdf:RDF>
  </metadata>
  <defs
     id="defs212" />
  <path
     d="M 226.4479,195.0463 H 81.2689 v 21.386 h 145.179 z"
     fill="#dddddd"
     id="path2" />
  <path
     d="M 231.1059,209.8523 H 76.3389 c -4.931,0 -8.766,-4.113 -8.766,-8.774 v -98.156 c 0,-4.935 4.109,-8.774 8.766,-8.774 h 154.767 c 4.93,0 8.765,4.113 8.765,8.774 v 97.882 c 0.274,4.935 -3.835,9.048 -8.765,9.048 z"
     fill="#dddddd"
     id="path4" />
  <path
     d="M 231.9269,101.5513 H 75.2419 v 99.253 h 156.685 z"
     fill="#fefefe"
     id="path6" />
  <path
     d="m 50.5889,240.5603 v 3.29 c 0,1.645 1.917,3.29 4.383,3.29 h 197.773 c 2.465,0 4.383,-1.371 4.383,-3.29 v -3.29 z"
     fill="#dddddd"
     id="path8" />
  <path
     d="m 153.5839,216.1583 h -84.642 c -0.274,0.274 -13.697,12.338 -17.531,21.112 -1.644,3.838 -0.548,5.758 2.739,5.758 h 99.708 99.708 c 3.287,0 4.383,-1.92 2.739,-5.758 -4.108,-8.774 -17.257,-20.838 -17.531,-21.112 z"
     fill="#dddddd"
     id="path10" />
  <path
     d="M 246.1709,238.6413 H 65.6549 l 12.601,-18.645 h 155.315 z"
     fill="#9c9eb9"
     id="path12" />
  <path
     d="m 243.9799,235.3503 -0.548,-0.548 h -12.052 l -2.192,-4.661 h 11.231 l -0.274,-0.548 h -11.231 l -2.191,-4.387 h 10.409 l -0.548,-0.549 h -10.135 l -2.191,-4.661 h -1.096 l 2.191,4.661 h -12.874 l -1.917,-4.661 h -1.096 l 1.643,4.661 h -12.874 l -1.37,-4.661 h -1.095 l 1.369,4.661 h -12.874 l -0.822,-4.661 h -1.096 l 0.822,4.661 h -12.874 l -0.548,-4.661 h -1.096 l 0.822,4.661 h -12.327 v -4.661 h -1.095 v 4.661 h -12.601 l 0.274,-4.661 h -1.096 l -0.273,4.661 h -12.875 l 0.822,-4.661 h -1.096 l -0.822,4.661 h -12.874 l 1.37,-4.661 h -1.096 l -1.37,4.661 h -12.874 l 1.643,-4.661 h -1.095 l -1.644,4.661 h -12.874 l 2.191,-4.661 h -1.095 l -2.192,4.661 h -11.231 l -0.274,0.549 h 11.505 l -2.191,4.387 h -12.327 l -0.548,0.548 h 12.327 l -2.192,4.387 h -13.148 l -0.274,0.548 h 13.149 l -1.644,3.29 h 1.096 l 1.643,-3.29 h 13.97 l -1.369,3.29 h 1.095 l 1.37,-3.29 h 13.97 l -1.096,3.29 h 1.096 l 0.822,-3.29 h 13.97 l -0.548,3.565 h 1.096 l 0.548,-3.291 h 13.97 l -0.274,3.291 h 1.096 l 0.274,-3.291 h 13.696 v 3.291 h 1.095 v -3.291 h 13.149 l 0.274,3.291 h 1.095 l -0.274,-3.291 h 13.971 l 0.547,3.291 h 1.096 l -0.548,-3.291 h 13.97 l 0.822,3.291 h 1.096 l -1.096,-3.291 h 13.97 l 1.37,3.291 h 1.096 l -1.37,-3.291 h 13.97 l 1.644,3.291 h 1.095 l -1.643,-3.291 z m -142.714,-10.144 h 12.874 l -1.369,4.387 h -13.422 z m -13.97,0 h 12.874 l -1.917,4.387 h -13.422 z m 9.313,9.596 h -13.97 l 2.192,-4.387 h 13.422 z m 14.792,0 h -13.97 l 1.644,-4.387 h 13.422 z m 15.066,0 h -13.97 l 1.369,-4.387 h 13.423 z m 1.096,-5.209 h -13.423 l 1.37,-4.387 h 12.874 z m 13.97,5.209 h -13.97 l 0.821,-4.661 h 13.423 z m 0.274,-5.209 h -13.423 l 0.822,-4.387 h 12.875 z m 14.244,5.209 h -13.423 l 0.274,-4.387 h 13.149 z m 0,-5.209 h -13.149 l 0.274,-4.387 h 12.601 v 4.387 z m 1.369,-4.387 h 12.053 l 0.274,4.387 h -12.601 v -4.387 z m 0,9.596 v -4.661 h 12.601 l 0.274,4.387 h -12.875 z m 68.207,-9.596 2.192,4.387 h -13.422 l -1.918,-4.387 z m -13.97,0 1.644,4.387 h -13.422 l -1.37,-4.387 z m -41.088,0 h 12.874 l 0.822,4.387 h -13.422 z m 1.095,9.596 -0.547,-4.661 h 13.422 l 0.822,4.387 h -13.697 z m 13.149,-9.596 h 12.874 l 1.37,4.387 h -13.422 z m 1.643,9.596 -0.821,-4.661 h 13.422 l 1.369,4.387 h -13.97 z m 15.066,0 -1.37,-4.661 h 13.423 l 1.643,4.387 h -13.696 z m 15.066,0 -1.918,-4.661 h 13.423 l 2.191,4.387 h -13.696 z"
     fill="#777777"
     id="path14" />
  <path
     d="m 153.5849,243.0283 h -8.766 c 0,0 0,0.822 0.548,1.097 0.274,0.274 0.548,0.274 0.548,0.274 h 7.67 7.67 c 0.274,0 0.548,0 0.548,-0.274 0.548,-0.549 0.548,-1.097 0.548,-1.097 z"
     fill="#dddddd"
     id="path16" />
  <path
     d="M 231.9269,101.5513 H 75.2419 v 99.253 h 156.685 z"
     fill="#fefefe"
     id="path18" />
  <path
     d="m 158.2399,159.9513 -0.548,-0.548 -0.548,0.274 -0.274,-1.097 1.096,-0.548 1.096,1.097 z"
     fill="#ffffff"
     id="path20" />
  <path
     d="m 147.0089,164.0643 -0.274,-1.097 1.644,-0.823 0.274,1.097 z m 3.287,-1.645 -0.273,-0.823 1.643,-0.822 0.274,1.096 z m 3.562,-1.371 -0.274,-1.097 1.643,-0.823 0.274,1.097 z"
     fill="#ffffff"
     id="path22" />
  <path
     d="m 143.9959,165.1613 -1.095,-0.823 0.547,-0.822 0.822,0.548 0.548,-0.274 0.274,0.822 z"
     fill="#ffffff"
     id="path24" />
  <path
     d="m 141.5299,162.9673 -1.644,-1.371 0.548,-0.822 1.644,1.371 z m -3.287,-2.742 -1.37,-1.371 0.548,-0.822 1.643,1.371 z m -3.013,-2.467 -1.37,-1.371 0.548,-0.823 1.643,1.371 z m -3.014,-2.742 -1.643,-1.371 0.548,-0.823 1.643,1.371 z m -3.013,-2.742 -1.643,-1.371 0.548,-0.822 1.643,1.371 z"
     fill="#ffffff"
     id="path26" />
  <path
     d="m 126.1919,149.8073 -0.548,-0.549 -0.548,0.275 -0.548,-0.823 1.37,-0.822 1.095,1.096 z"
     fill="#ffffff"
     id="path28" />
  <path
     d="m 78.8019,182.1603 -0.548,-0.823 1.918,-1.371 0.547,0.823 z m 3.835,-2.468 -0.822,-0.822 1.918,-1.371 0.547,0.822 z m 3.561,-2.468 -0.548,-0.822 1.917,-1.371 0.548,0.823 z m 3.561,-2.741 -0.548,-0.823 1.917,-1.371 0.548,0.823 z m 3.561,-2.468 -0.548,-0.823 1.917,-1.37 0.548,0.822 z m 3.561,-2.468 -0.548,-0.822 1.917,-1.371 0.548,0.822 z m 3.561,-2.467 -0.548,-0.823 1.917,-1.371 0.548,0.823 z m 3.561,-2.468 -0.548,-0.822 1.644,-1.371 0.547,0.822 z m 3.561,-2.742 -0.548,-0.822 1.644,-1.371 0.547,0.822 z m 3.561,-2.467 -0.548,-0.823 1.644,-1.371 0.547,0.823 z m 3.561,-2.468 -0.548,-0.822 1.644,-1.371 0.547,0.822 z m 3.561,-2.468 -0.548,-0.822 1.644,-1.097 0.547,0.823 z m 3.561,-2.467 -0.548,-0.823 1.644,-1.096 0.547,0.822 z"
     fill="#ffffff"
     id="path30" />
  <path
     d="m 168.1019,169.5473 -1.096,-1.096 0.548,-0.823 0.548,0.274 0.274,-0.274 0.821,0.823 z"
     fill="#ffffff"
     id="path32" />
  <path
     d="m 165.3629,166.8063 -1.644,-1.645 0.822,-0.823 1.644,1.645 z m -3.561,-3.565 -1.644,-1.645 0.822,-0.822 1.644,1.645 z"
     fill="#ffffff"
     id="path34" />
  <path
     d="M 232.4749,101.2773 H 74.4209 v 100.076 h 158.054 z"
     fill="#777777"
     id="path36" />
  <path
     d="M 224.8059,107.8573 H 81.8179 v 86.641 h 142.988 z"
     fill="#ffffff"
     id="path38" />
  <path
     d="m 181.5249,186.5473 h -90.121 c 0,0 0.548,-35.095 11.505,-40.03 10.957,-4.935 18.353,20.289 23.558,20.563 5.204,0.274 4.656,-20.837 12.326,-23.853 19.449,-7.952 17.531,23.579 21.092,23.305 3.561,-0.274 6.848,-29.337 11.779,-29.337 12.053,0.274 9.861,49.352 9.861,49.352 z"
     fill="#e4e5ec"
     id="path40" />
  <path
     d="m 181.5249,186.5473 h -90.121 c 0,0 2.192,-29.886 13.423,-34.821 10.957,-4.935 15.887,19.193 21.092,19.467 5.204,0.274 10.135,-16.725 18.353,-17.548 8.217,-0.548 13.696,19.741 17.257,19.467 3.561,-0.274 5.478,-32.627 10.409,-32.627 9.587,0 9.587,46.062 9.587,46.062 z"
     fill="#01c7e2"
     id="path42" />
  <path
     d="m 181.5249,186.5473 h -90.121 c 0,0 3.014,-14.806 13.971,-19.741 10.956,-4.935 16.983,8.774 22.187,9.322 5.205,0.275 7.396,-20.015 15.34,-20.563 8.218,-0.548 3.561,24.402 16.436,24.402 9.313,0 7.943,-20.564 12.874,-20.564 9.861,-0.274 9.313,27.144 9.313,27.144 z"
     fill="#5fcf90"
     id="path44" />
  <path
     d="m 218.7799,135.8243 h -26.844 v 4.935 h 26.844 z"
     fill="#e4e5ec"
     id="path46" />
  <path
     d="m 218.7799,146.5173 h -26.844 v 4.935 h 26.844 z"
     fill="#e4e5ec"
     id="path48" />
  <path
     d="m 218.7799,157.2093 h -26.844 v 4.935 h 26.844 z"
     fill="#01c7e2"
     id="path50" />
  <path
     d="m 218.7799,167.9033 h -26.844 v 4.935 h 26.844 z"
     fill="#e4e5ec"
     id="path52" />
  <path
     d="m 218.7799,178.8703 h -26.844 v 4.935 h 26.844 z"
     fill="#5fcf90"
     id="path54" />
  <path
     d="m 93.8689,113.0673 h -4.93 v 4.935 h 4.93 z"
     fill="#01c7e2"
     id="path56" />
  <path
     d="m 120.7129,113.0673 h -22.187 v 4.935 h 22.187 z"
     fill="#e4e5ec"
     id="path58" />
  <path
     d="m 93.8689,121.5663 h -4.93 v 4.935 h 4.93 z"
     fill="#01c7e2"
     id="path60" />
  <path
     d="m 120.7129,121.5663 h -22.187 v 4.935 h 22.187 z"
     fill="#e4e5ec"
     id="path62" />
  <path
     d="m 93.8689,130.0663 h -4.93 v 4.935 h 4.93 z"
     fill="#01c7e2"
     id="path64" />
  <path
     d="m 120.7129,130.0663 h -22.187 v 4.935 h 22.187 z"
     fill="#e4e5ec"
     id="path66" />
  <path
     d="m 218.7789,113.0673 h -69.577 v 7.128 h 69.577 z"
     fill="#e4e5ec"
     id="path68" />
  <path
     d="m 165.0899,128.1473 h -34.788 v 6.032 h 34.788 z"
     fill="#e4e5ec"
     id="path70" />
  <path
     d="m 135.5059,114.4383 c 1.644,0 3.287,0.822 3.287,2.741 h -3.013 c 0,-0.548 -0.822,-0.822 -1.096,-0.822 -0.274,0 -1.096,0 -1.096,0.548 0,1.097 5.479,0 5.479,3.29 0,2.194 -1.644,2.742 -3.561,3.016 l 0.274,2.194 h -1.644 v -2.194 c -1.917,-0.274 -3.561,-1.096 -3.561,-3.016 h 3.013 c 0,0.823 0.822,1.097 1.37,1.097 0.548,0 1.37,0 1.37,-0.548 0,-1.371 -5.479,0 -5.479,-3.565 0,-1.919 1.37,-2.741 3.287,-2.741 v -2.194 h 1.644 z"
     fill="#01c7e2"
     id="path72" />
  <path
     d="m 146.7369,117.4533 -2.739,-5.483 -2.739,5.483 h 1.917 v 8.226 h 1.644 v -8.226 z"
     fill="#5fcf90"
     id="path74" />
  <path
     d="m 47.5269,148.9383 c -0.731,-0.366 -1.462,-0.366 -1.828,0 -0.365,0.732 -0.365,1.464 0,1.83 3.291,2.927 6.581,5.855 10.237,8.782 0.366,0.366 0.731,0.366 0.731,0.366 0.366,0 0.731,0 1.097,-0.366 0.366,-0.732 0.366,-1.463 0,-1.829 -3.656,-2.928 -6.946,-5.855 -10.237,-8.783 z"
     fill="#5bc6f9"
     id="path76" />
  <path
     d="m 75.6789,87.8263 c 0.731,0 1.097,-0.366 1.097,-0.732 0.366,-0.732 0,-1.464 -0.731,-1.83 -4.387,-1.464 -8.774,-2.927 -12.796,-4.391 -0.731,-0.366 -1.462,0 -1.828,0.732 -0.366,0.732 0,1.464 0.731,1.829 4.022,1.098 8.409,2.562 12.796,4.392 0.731,0 0.731,0 0.731,0 z"
     fill="#5bc6f9"
     id="path78" />
  <path
     d="m 28.1529,130.2753 c -0.366,-0.366 -1.463,-0.732 -1.828,0 -0.366,0.366 -0.732,1.463 0,1.829 2.924,3.294 6.215,6.221 9.505,9.515 0.366,0.366 0.731,0.366 1.097,0.366 0.366,0 0.731,0 1.097,-0.366 0.365,-0.366 0.365,-1.464 0,-1.83 -4.022,-3.293 -6.947,-6.221 -9.871,-9.514 z"
     fill="#5bc6f9"
     id="path80" />
  <path
     d="m 89.5729,182.2383 c -0.731,-0.366 -1.462,-0.366 -1.828,0.366 -0.365,0.732 -0.365,1.464 0.366,1.83 3.656,2.561 7.312,5.123 10.968,7.685 0.365,0 0.365,0.366 0.731,0.366 0.366,0 0.731,-0.366 1.097,-0.732 0.365,-0.732 0.365,-1.464 -0.366,-1.83 -3.656,-2.562 -7.312,-5.123 -10.968,-7.685 z"
     fill="#5bc6f9"
     id="path82" />
  <path
     d="m 68.0009,166.1373 c -0.731,-0.366 -1.463,-0.366 -1.828,0.366 -0.366,0.732 -0.366,1.464 0.365,1.83 3.656,2.561 6.947,5.489 10.603,8.051 0.365,0 0.365,0.366 0.731,0.366 0.366,0 0.731,-0.366 1.097,-0.366 0.365,-0.732 0.365,-1.464 -0.366,-1.83 -3.656,-2.928 -6.946,-5.855 -10.602,-8.417 z"
     fill="#5bc6f9"
     id="path84" />
  <path
     d="m 36.5599,76.8473 c 4.022,0.732 8.409,1.464 13.162,2.927 h 0.365 c 0.732,0 1.097,-0.366 1.463,-1.097 0.365,-0.732 -0.366,-1.464 -1.097,-1.464 -4.753,-1.098 -9.14,-2.196 -13.161,-2.928 -0.732,0 -1.463,0.366 -1.463,1.098 -0.365,0.732 0,1.464 0.731,1.464 z"
     fill="#5bc6f9"
     id="path86" />
  <path
     d="m 292.1149,240.0583 c 0.366,0.366 0.732,0.732 1.097,0.732 0.366,0 0.366,0 0.731,0 0.732,-0.366 1.097,-1.098 0.732,-1.83 -1.828,-3.66 -4.388,-7.685 -7.312,-11.71 -0.366,-0.732 -1.463,-0.732 -1.828,-0.366 -0.732,0.366 -0.732,1.464 -0.366,1.829 2.925,4.026 5.118,7.685 6.946,11.345 z"
     fill="#5bc6f9"
     id="path88" />
  <path
     d="m 2.5592,88.5573 c 0,-1.098 0,-1.83 0.3656,-2.561 0,-0.732 -0.3656,-1.464 -1.0968,-1.464 -0.7312,0 -1.4624,0.366 -1.4624,1.098 C 0,86.7273 0,87.8253 0,88.9233 c 0,3.294 0.7312,6.587 2.5592,10.612 0.3656,0.366 0.7312,0.732 1.0968,0.732 h 0.3656 c 0.7312,-0.366 1.0968,-1.098 0.7312,-1.829 -1.4624,-4.026 -2.1936,-7.319 -2.1936,-9.881 z"
     fill="#5bc6f9"
     id="path90" />
  <path
     d="m 23.3989,72.8223 h -0.7312 c -5.1184,0 -9.5056,0.732 -12.796,1.83 -0.7312,0.365 -1.0968,1.097 -0.7312,1.829 0.3656,0.366 0.7312,0.732 1.0968,0.732 h 0.3656 c 3.2904,-1.098 7.312,-1.83 12.0648,-1.83 h 0.7312 c 0.731,0 1.462,-0.731 1.462,-1.463 0,-0.366 -0.731,-1.098 -1.462,-1.098 z"
     fill="#5bc6f9"
     id="path92" />
  <path
     d="m 10.967,109.7823 c -0.3656,-0.732 -1.0968,-0.732 -1.828,-0.366 -0.7312,0.366 -0.7312,1.098 -0.3656,1.83 2.1936,3.293 5.1184,6.953 8.0432,10.978 0.3656,0.366 0.7312,0.366 1.0968,0.366 0.3656,0 0.7312,0 0.7312,-0.366 0.7312,-0.366 0.7312,-1.464 0,-1.83 -2.5592,-3.659 -5.484,-7.319 -7.6776,-10.612 z"
     fill="#5bc6f9"
     id="path94" />
  <path
     d="m 244.9519,260.9163 c -4.021,-1.098 -8.409,-2.562 -12.796,-4.025 -0.731,-0.366 -1.462,0 -1.828,0.732 -0.365,0.731 0,1.463 0.731,1.829 4.388,1.464 8.775,2.928 12.796,4.026 h 0.366 c 0.731,0 1.097,-0.366 1.462,-1.098 0.366,-0.366 0,-1.098 -0.731,-1.464 z"
     fill="#5bc6f9"
     id="path96" />
  <path
     d="m 123.2069,204.1953 c -4.022,-2.562 -7.678,-4.757 -11.334,-7.319 -0.731,-0.366 -1.462,-0.366 -1.828,0.366 -0.366,0.732 -0.366,1.464 0.366,1.83 3.656,2.561 7.677,4.757 11.333,7.318 0.366,0 0.366,0.366 0.731,0.366 0.366,0 0.732,-0.366 1.097,-0.732 0.731,-0.365 0.366,-1.463 -0.365,-1.829 z"
     fill="#5bc6f9"
     id="path98" />
  <path
     d="m 270.9079,266.0393 c -4.021,-0.366 -8.408,-0.732 -13.161,-1.829 -0.731,0 -1.463,0.365 -1.463,1.097 0,0.732 0.366,1.464 1.097,1.464 4.753,1.098 9.506,1.464 13.527,1.83 0.732,0 1.463,-0.366 1.463,-1.098 0,-1.098 -0.731,-1.464 -1.463,-1.464 z"
     fill="#5bc6f9"
     id="path100" />
  <path
     d="m 298.6949,252.1333 c 0,-0.732 -0.731,-1.098 -1.462,-1.098 -0.731,0 -1.463,0.732 -1.097,1.464 0,0.366 0,0.732 0,1.098 0,2.196 -0.366,4.391 -1.462,6.221 -1.828,2.928 -5.484,5.123 -10.237,6.221 -0.731,0 -1.097,0.732 -1.097,1.464 0,0.732 0.731,1.098 1.462,1.098 0,0 0,0 0.366,0 5.85,-1.098 9.871,-3.66 12.065,-7.319 1.462,-2.196 1.828,-4.757 1.828,-7.319 -0.366,-1.098 -0.366,-1.464 -0.366,-1.83 z"
     fill="#5bc6f9"
     id="path102" />
  <path
     d="m 269.4469,206.7563 c -0.366,-0.366 -1.462,-0.366 -1.828,0 -0.366,0.366 -0.366,1.464 0,1.83 3.29,3.294 6.215,6.587 9.14,9.881 0.366,0.366 0.731,0.366 1.097,0.366 0.365,0 0.731,0 0.731,-0.366 0.731,-0.366 0.731,-1.464 0,-1.83 -2.559,-3.294 -5.85,-6.587 -9.14,-9.881 z"
     fill="#5bc6f9"
     id="path104" />
  <path
     d="m 258.8439,199.4383 c 0.366,0 0.731,0 1.097,-0.366 0.365,-0.366 0.365,-1.464 0,-1.83 -3.291,-2.927 -6.581,-5.855 -10.237,-9.148 -0.731,-0.366 -1.463,-0.366 -1.828,0 -0.366,0.731 -0.366,1.463 0,1.829 3.656,2.928 6.946,5.855 9.871,9.149 0.366,0.366 0.731,0.366 1.097,0.366 z"
     fill="#5bc6f9"
     id="path106" />
  <path
     d="m 146.6059,218.1013 c -4.022,-2.196 -7.678,-4.391 -11.7,-6.587 -0.731,-0.366 -1.462,0 -1.828,0.366 -0.365,0.732 0,1.464 0.366,1.83 4.022,2.195 7.678,4.391 11.699,6.587 0.366,0 0.366,0 0.731,0 0.366,0 1.097,-0.366 1.097,-0.732 0.366,-0.366 0.366,-1.098 -0.365,-1.464 z"
     fill="#5bc6f9"
     id="path108" />
  <path
     d="m 219.3599,252.4993 c -4.022,-1.464 -8.409,-3.293 -12.43,-4.757 -0.732,-0.366 -1.463,0 -1.828,0.732 -0.366,0.732 0,1.464 0.731,1.83 4.387,1.829 8.409,3.293 12.43,5.123 h 0.366 c 0.365,0 1.097,-0.366 1.097,-0.732 0.731,-1.098 0.365,-1.83 -0.366,-2.196 z"
     fill="#5bc6f9"
     id="path110" />
  <path
     d="m 170.3689,230.9093 c -4.021,-1.83 -8.043,-4.026 -12.064,-6.221 -0.732,-0.366 -1.463,0 -1.828,0.731 -0.366,0.732 0,1.464 0.731,1.83 4.021,2.196 8.043,4.391 12.065,6.221 0.365,0 0.365,0 0.731,0 0.365,0 1.097,-0.366 1.097,-0.732 0,-0.732 -0.366,-1.464 -0.732,-1.829 z"
     fill="#5bc6f9"
     id="path112" />
  <path
     d="m 194.4979,242.2533 c -4.021,-1.83 -8.043,-3.66 -12.065,-5.489 -0.731,-0.366 -1.462,0 -1.828,0.732 -0.365,0.731 0,1.463 0.732,1.829 4.021,1.83 8.408,4.026 12.43,5.855 0,0 0.366,0 0.731,0 0.366,0 1.097,-0.366 1.097,-0.731 0,-1.098 -0.366,-1.83 -1.097,-2.196 z"
     fill="#5bc6f9"
     id="path114" />
  <path
     d="m 195.5959,75.0183 c 0,-0.732 0.365,-1.464 1.097,-1.83 0.731,0 1.462,0.366 1.462,1.098 0.731,4.391 1.462,9.148 2.194,13.906 0,0.366 0,0.732 0,1.097 -0.366,0.366 -0.732,0.732 -1.097,0.732 -0.731,0 -1.463,-0.366 -1.463,-1.097 -0.731,-4.758 -1.462,-9.515 -2.193,-13.906 z"
     fill="#5bc6f9"
     id="path116" />
  <path
     d="m 189.7459,48.3043 c -0.366,-0.732 0.365,-1.463 1.097,-1.829 0.731,-0.366 1.462,0 1.828,0.732 1.096,4.391 2.193,8.782 3.29,13.539 0,0.366 0,0.732 0,1.098 -0.366,0.366 -0.366,0.732 -0.731,0.732 -0.731,0.366 -1.463,-0.366 -1.463,-1.098 -1.828,-4.391 -2.924,-9.148 -4.021,-13.174 z"
     fill="#5bc6f9"
     id="path118" />
  <path
     d="m 202.1769,130.2753 c 0,-0.732 0.366,-1.464 1.097,-1.464 0.731,0 1.462,0.366 1.462,1.098 0.366,4.757 0.731,9.148 0.731,13.906 0,0.366 0,0.732 -0.365,0.732 -0.366,0.366 -0.732,0.731 -1.097,0.731 -0.731,0 -1.462,-0.365 -1.462,-1.097 0.365,-4.758 -0.001,-9.515 -0.366,-13.906 z"
     fill="#5bc6f9"
     id="path120" />
  <path
     d="m 199.6159,102.4643 c 0,-0.732 0.366,-1.464 1.097,-1.464 0.731,0 1.463,0.366 1.463,1.098 0.365,4.391 1.096,9.148 1.462,13.906 0,0.366 0,0.732 -0.366,0.732 -0.365,0.365 -0.731,0.731 -1.096,0.731 -0.732,0 -1.463,-0.365 -1.463,-1.097 0,-4.758 -0.365,-9.149 -1.097,-13.906 z"
     fill="#5bc6f9"
     id="path122" />
  <path
     d="m 138.9279,29.6413 c -1.462,4.025 -2.924,8.417 -4.387,13.174 v 0.366 c -0.365,0.366 -1.097,0.732 -1.462,0.732 -1.097,-0.366 -1.463,-1.098 -1.097,-1.83 1.462,-4.757 2.925,-9.514 4.387,-13.54 0.366,-0.732 1.097,-1.098 1.828,-0.732 0.731,0.366 1.097,1.098 0.731,1.83 z"
     fill="#5bc6f9"
     id="path124" />
  <path
     d="m 146.6059,343.6203 c 0.366,0.365 0.366,1.097 0,1.463 0,0.366 -0.366,0.366 -0.366,0.366 -0.731,0.366 -1.462,0.366 -1.828,-0.366 -2.193,-3.293 -4.387,-7.684 -6.215,-12.442 -0.365,-0.732 0,-1.463 0.731,-1.829 0.732,-0.366 1.463,0 1.828,0.731 1.828,4.758 3.656,8.783 5.85,12.077 z"
     fill="#5bc6f9"
     id="path126" />
  <path
     d="m 166.7119,4.0253 c -0.731,-0.3659 -1.828,-0.7318 -2.559,-1.0978 -0.731,-0.3659 -1.097,-1.0978 -0.731,-1.8297 0.365,-0.7319 1.097,-1.0978 1.828,-1.0978 1.097,0.3659 2.193,0.7319 2.925,1.4638 2.559,1.4637 5.484,4.0253 8.043,7.3185 0.365,0.366 0.365,1.098 0,1.464 l -0.366,0.366 c -0.731,0.366 -1.462,0.366 -1.828,-0.366 -2.559,-2.5615 -4.753,-4.7572 -7.312,-6.221 z"
     fill="#5bc6f9"
     id="path128" />
  <path
     d="m 142.2179,15.7353 0.366,-0.732 c 2.559,-4.757 5.484,-8.4167 8.408,-10.9782 0.732,-0.366 1.463,-0.366 1.828,0 0.366,0.3659 0.366,1.0978 0,1.4637 l -0.365,0.366 c -2.559,2.1956 -5.119,5.8555 -7.678,10.2465 l -0.365,0.732 c -0.366,0.732 -1.097,1.098 -1.828,0.732 -0.366,-0.366 -0.732,-1.464 -0.366,-1.83 z"
     fill="#5bc6f9"
     id="path130" />
  <path
     d="m 180.6049,22.3223 c -0.365,-0.732 0,-1.464 0.732,-1.83 0.731,-0.365 1.462,0 1.828,0.732 1.828,3.66 3.656,8.051 5.118,12.808 0,0.366 0,0.732 0,1.098 0,0.366 -0.366,0.366 -0.731,0.732 -0.731,0.366 -1.463,0 -1.828,-0.732 -1.463,-4.757 -3.291,-8.782 -5.119,-12.808 z"
     fill="#5bc6f9"
     id="path132" />
  <path
     d="m 189.3799,311.0503 c 1.097,-4.391 2.194,-8.782 3.29,-13.54 0,-0.731 0.732,-1.097 1.463,-1.097 0.731,0 1.097,0.732 1.097,1.463 -1.097,4.758 -2.194,9.515 -3.291,13.906 v 0.366 c -0.365,0.366 -1.097,0.732 -1.462,0.732 -0.731,-0.366 -1.097,-1.098 -1.097,-1.83 z"
     fill="#5bc6f9"
     id="path134" />
  <path
     d="m 204.0019,171.9933 c 0,-4.758 0,-9.515 -0.365,-13.906 0,-0.732 0.731,-1.464 1.462,-1.464 0.731,0 1.463,0.366 1.463,1.464 0,4.757 0.365,9.148 0.365,13.906 0,0.366 0,0.366 -0.365,0.732 -0.366,0.365 -0.732,0.731 -1.097,0.731 -0.731,0 -1.463,-0.731 -1.463,-1.463 z"
     fill="#5bc6f9"
     id="path136" />
  <path
     d="m 179.8739,337.3983 c 1.828,-3.659 3.656,-8.051 5.484,-12.808 0.366,-0.732 1.097,-1.098 1.828,-0.732 0.731,0.366 1.097,1.098 0.731,1.83 -1.828,4.757 -3.656,9.514 -5.484,13.174 -0.365,0.732 -1.097,0.732 -1.828,0.732 -0.731,-0.732 -1.097,-1.83 -0.731,-2.196 z"
     fill="#5bc6f9"
     id="path138" />
  <path
     d="m 153.5509,355.6953 c -0.731,-0.366 -0.731,-1.098 -0.365,-1.83 0.365,-0.732 1.096,-0.732 1.828,-0.366 0.365,0 0.365,0.366 0.731,0.366 1.828,1.098 4.021,1.83 6.215,1.464 3.656,0 7.312,-2.196 10.602,-6.587 0.366,-0.732 1.463,-0.732 1.828,0 0.366,0.366 0.732,1.098 0.366,1.83 0,0 0,0 0,0.366 -4.022,4.757 -8.409,7.319 -12.796,7.319 -2.559,0 -5.118,-0.366 -7.312,-1.83 -0.366,-0.366 -0.731,-0.732 -1.097,-0.732 z"
     fill="#5bc6f9"
     id="path140" />
  <path
     d="m 129.4219,306.2933 c -0.366,-0.732 0.365,-1.464 1.096,-1.83 0.732,-0.366 1.463,0.366 1.828,1.098 1.097,4.757 2.56,9.149 3.656,13.174 0,0.366 0,0.732 0,1.098 0,0.366 -0.365,0.366 -0.731,0.732 -0.731,0.366 -1.462,0 -1.828,-0.732 -1.462,-4.391 -2.925,-8.783 -4.021,-13.54 z"
     fill="#5bc6f9"
     id="path142" />
  <path
     d="m 203.6369,199.8043 c 0,-4.758 0.365,-9.149 0.365,-13.906 0,-0.732 0.732,-1.464 1.463,-1.464 0.731,0 1.462,0.732 1.462,1.464 0,4.757 0,9.514 -0.365,13.906 0,0.366 0,0.366 -0.366,0.732 -0.366,0.366 -0.731,0.731 -1.097,0.731 -0.731,0 -1.462,-0.365 -1.462,-1.463 z"
     fill="#5bc6f9"
     id="path144" />
  <path
     d="m 195.5959,283.6043 c 0.731,-4.391 1.462,-9.148 2.193,-13.905 0,-0.732 0.732,-1.464 1.463,-1.098 0.731,0 1.097,0.732 1.097,1.464 -0.732,4.757 -1.463,9.514 -2.194,13.905 v 0.366 c -0.366,0.366 -0.731,0.732 -1.462,0.732 -0.732,0 -1.097,-0.732 -1.097,-1.464 z"
     fill="#5bc6f9"
     id="path146" />
  <path
     d="m 202.1769,227.9823 c 0.365,-4.757 0.731,-9.149 0.731,-13.906 0,-0.732 0.731,-1.464 1.463,-1.464 0.731,0 1.462,0.732 1.462,1.464 -0.366,4.757 -0.366,9.515 -0.731,13.906 0,0.366 0,0.366 -0.366,0.732 -0.365,0.366 -0.731,0.732 -1.097,0.732 -0.731,0 -1.462,-0.732 -1.462,-1.464 z"
     fill="#5bc6f9"
     id="path148" />
  <path
     d="m 199.6159,255.7933 c 0.366,-4.391 1.097,-9.149 1.463,-13.906 0,-0.732 0.731,-1.464 1.462,-1.464 0.731,0 1.463,0.732 1.097,1.464 -0.366,4.757 -1.097,9.515 -1.462,13.906 0,0.366 0,0.366 -0.366,0.732 -0.366,0.366 -0.731,0.732 -1.462,0.732 -0.366,0 -0.732,-0.732 -0.732,-1.464 z"
     fill="#5bc6f9"
     id="path150" />
  <path
     d="m 84.8189,260.9163 c -4.387,1.464 -9.14,2.561 -13.162,3.659 -0.731,0.366 -1.096,1.098 -1.096,1.83 0,0.732 0.731,1.098 1.096,1.098 h 0.366 c 4.387,-1.098 8.774,-2.562 13.527,-4.026 0.731,-0.366 1.097,-1.097 0.731,-1.829 0,-0.366 -0.731,-0.732 -1.462,-0.732 z"
     fill="#5bc6f9"
     id="path152" />
  <path
     d="m 58.1299,267.8693 c -4.753,1.098 -9.506,1.464 -13.528,1.83 -0.731,0 -1.462,0.732 -1.096,1.463 0,0.732 0.731,1.098 1.462,1.098 0,0 0,0 0.366,0 4.387,-0.366 8.774,-1.098 13.892,-1.829 0.732,0 1.097,-0.732 1.097,-1.464 -0.731,-0.732 -1.462,-1.098 -2.193,-1.098 z"
     fill="#5bc6f9"
     id="path154" />
  <path
     d="m 136.3699,241.1553 c -4.388,1.83 -8.409,3.659 -12.431,5.489 -0.731,0.366 -1.097,1.098 -0.731,1.83 0.366,0.366 0.731,0.732 1.097,0.732 0.365,0 0.365,0 0.731,0 4.022,-1.83 8.409,-3.66 12.796,-5.49 0.731,-0.366 1.097,-1.097 0.731,-1.829 -0.731,-0.732 -1.462,-1.098 -2.193,-0.732 z"
     fill="#5bc6f9"
     id="path156" />
  <path
     d="m 110.7759,251.7683 c -4.387,1.829 -8.774,3.293 -12.796,4.757 -0.731,0.366 -1.097,1.098 -0.731,1.83 0.366,0.366 0.731,0.731 1.097,0.731 h 0.365 c 4.388,-1.463 8.409,-3.293 13.162,-4.757 0.731,-0.366 1.097,-1.098 0.731,-1.829 -0.365,-0.732 -1.097,-1.098 -1.828,-0.732 z"
     fill="#5bc6f9"
     id="path158" />
  <path
     d="m 258.4789,88.9233 h 0.366 c 4.753,-1.463 9.14,-2.561 13.527,-3.293 0.731,0 1.097,-0.732 1.097,-1.464 0,-0.732 -0.731,-1.098 -1.828,-1.098 -4.387,0.732 -8.775,2.196 -13.527,3.294 -0.732,0.366 -1.097,1.098 -1.097,1.83 0.365,0.366 0.731,0.731 1.462,0.731 z"
     fill="#5bc6f9"
     id="path160" />
  <path
     d="m 238.7359,94.4123 c 2.925,-0.732 5.484,-1.463 8.044,-1.829 0.731,0 1.096,-0.732 1.096,-1.464 0,-0.732 -0.731,-1.098 -1.828,-1.098 -2.559,0.366 -5.118,1.098 -7.677,1.83 -1.828,0.366 -1.463,3.293 0.365,2.561 z"
     fill="#5bc6f9"
     id="path162" />
  <path
     d="m 160.8629,229.0793 c -4.022,2.195 -8.409,4.025 -12.431,6.221 -0.731,0.366 -1.096,1.098 -0.731,1.829 0.366,0.366 0.731,0.732 1.097,0.732 0.366,0 0.366,0 0.731,0 4.022,-1.829 8.043,-4.025 12.431,-6.221 0.731,-0.366 1.096,-1.098 0.731,-1.829 0,-0.732 -1.097,-1.098 -1.828,-0.732 z"
     fill="#5bc6f9"
     id="path164" />
  <path
     d="m 55.9369,199.8043 c -0.365,-0.732 -1.462,-0.732 -1.828,0 -3.656,3.293 -6.946,6.221 -10.237,9.514 -0.365,0.366 -0.731,1.464 0,1.83 0.366,0.366 0.732,0.366 1.097,0.366 0.366,0 0.731,0 1.097,-0.366 3.29,-2.927 6.581,-6.221 10.237,-9.148 0,-1.098 0,-1.83 -0.366,-2.196 z"
     fill="#5bc6f9"
     id="path166" />
  <path
     d="m 76.7769,181.1413 c -0.365,-0.732 -1.462,-0.732 -1.828,0 -3.656,3.293 -6.946,6.221 -10.237,9.514 -0.365,0.366 -0.731,1.464 0,1.83 0.366,0.366 0.732,0.366 1.097,0.366 0.366,0 0.731,0 1.097,-0.366 3.29,-2.928 6.581,-6.221 10.237,-9.149 0,-0.732 0,-1.83 -0.366,-2.195 z"
     fill="#5bc6f9"
     id="path168" />
  <path
     d="m 19.3767,240.0583 c -0.7312,-0.366 -1.4624,0 -1.828,0.366 -2.5592,4.757 -4.3872,9.148 -4.7528,13.173 0,0.732 0.3656,1.464 1.0968,1.464 0.7312,0 1.4624,-0.366 1.4624,-1.098 0.3656,-3.659 1.828,-7.684 4.3872,-12.076 0.3656,-0.366 0.3656,-1.463 -0.3656,-1.829 z"
     fill="#5bc6f9"
     id="path170" />
  <path
     d="m 31.0759,269.6983 c -5.484,-0.732 -9.5053,-2.195 -12.0645,-4.391 -0.7312,-0.366 -1.4624,-0.366 -1.828,0 -0.3656,0.732 -0.3656,1.464 0,1.83 2.9248,2.561 7.6775,4.391 13.5275,5.123 0.731,0 1.462,-0.366 1.462,-1.098 0.366,-0.732 -0.365,-1.464 -1.097,-1.464 z"
     fill="#5bc6f9"
     id="path172" />
  <path
     d="m 33.9999,218.8323 c -3.29,3.66 -6.215,7.319 -8.774,10.613 -0.366,0.732 -0.366,1.463 0.365,1.829 0.366,0 0.366,0.366 0.731,0.366 0.366,0 0.732,0 1.097,-0.366 2.559,-3.293 5.484,-6.952 8.775,-10.246 0.365,-0.732 0.365,-1.464 0,-1.83 -0.732,-1.097 -1.463,-1.097 -2.194,-0.366 z"
     fill="#5bc6f9"
     id="path174" />
  <path
     d="m 232.1559,186.9963 c -3.656,2.561 -7.677,5.123 -11.333,7.684 -0.732,0.366 -0.732,1.098 -0.366,1.83 0.366,0.366 0.731,0.732 1.097,0.732 0.365,0 0.731,0 0.731,-0.366 4.022,-2.562 7.678,-5.123 11.334,-7.685 0.731,-0.366 0.731,-1.098 0.365,-1.829 -0.365,-0.732 -1.462,-0.732 -1.828,-0.366 z"
     fill="#5bc6f9"
     id="path176" />
  <path
     d="m 299.4269,80.1413 c -4.022,0 -8.775,0 -13.893,0.732 -0.731,0 -1.462,0.731 -1.097,1.463 0,0.732 0.731,1.098 1.463,1.098 0,0 0,0 0.365,0 5.119,-0.732 9.506,-0.732 13.527,-0.732 0.732,0 1.463,-0.732 1.463,-1.463 -0.366,-0.732 -1.097,-1.098 -1.828,-1.098 z"
     fill="#5bc6f9"
     id="path178" />
  <path
     d="m 295.7699,135.0323 c -2.924,3.294 -6.215,6.221 -9.871,9.515 -0.731,0.366 -0.731,1.463 0,1.829 0.366,0.366 0.731,0.366 1.097,0.366 0.366,0 0.731,0 1.097,-0.366 3.656,-3.293 6.946,-6.587 9.871,-9.514 0.366,-0.366 0.366,-1.464 0,-1.83 -1.097,-0.366 -1.828,-0.366 -2.194,0 z"
     fill="#5bc6f9"
     id="path180" />
  <path
     d="m 314.4159,113.8073 c -0.731,-0.366 -1.462,-0.366 -1.828,0.366 -2.193,3.294 -4.753,6.953 -8.043,10.979 -0.366,0.731 -0.366,1.463 0.366,1.829 0.365,0.366 0.365,0.366 0.731,0.366 0.365,0 0.731,0 1.097,-0.366 3.29,-4.025 5.849,-7.685 8.043,-11.344 0.731,-0.732 0.365,-1.464 -0.366,-1.83 z"
     fill="#5bc6f9"
     id="path182" />
  <path
     d="m 320.2649,88.5583 c -1.462,-2.562 -3.656,-4.392 -6.581,-5.855 -0.731,-0.366 -1.462,0 -1.828,0.732 -0.365,0.731 0,1.463 0.732,1.829 2.559,1.098 4.387,2.928 5.484,4.758 1.096,1.829 1.828,4.025 1.462,6.952 0,1.464 -0.366,3.294 -1.097,5.124 -0.365,0.732 0.366,1.463 1.097,1.829 h 0.366 c 0.731,0 1.096,-0.366 1.462,-1.097 0.731,-2.196 1.097,-4.026 1.097,-5.856 -0.366,-2.927 -0.731,-5.855 -2.194,-8.416 z"
     fill="#5bc6f9"
     id="path184" />
  <path
     d="m 209.1219,202.0003 c -4.021,2.561 -7.677,4.757 -11.699,6.953 -0.731,0.365 -0.731,1.097 -0.365,1.829 0.365,0.366 0.731,0.732 1.096,0.732 0.366,0 0.366,0 0.732,-0.366 4.021,-2.195 8.043,-4.757 11.699,-7.319 0.731,-0.366 0.731,-1.098 0.365,-1.829 -0.365,-0.366 -1.462,-0.366 -1.828,0 z"
     fill="#5bc6f9"
     id="path186" />
  <path
     d="m 275.6609,153.6953 c -3.29,2.927 -6.946,5.855 -10.602,8.782 -0.731,0.366 -0.731,1.464 -0.366,1.83 0.366,0.366 0.732,0.366 1.097,0.366 0.366,0 0.731,0 1.097,-0.366 3.656,-2.928 7.312,-5.855 10.602,-8.783 0.732,-0.366 0.732,-1.463 0,-1.829 -0.365,-0.366 -1.096,-0.366 -1.828,0 z"
     fill="#5bc6f9"
     id="path188" />
  <path
     d="m 185.3599,215.9053 c -4.021,2.196 -8.043,4.392 -12.064,6.587 -0.732,0.366 -1.097,1.098 -0.366,1.83 0.366,0.366 0.731,0.732 1.097,0.732 0.365,0 0.365,0 0.731,0 4.022,-2.196 8.043,-4.391 12.065,-6.587 0.731,-0.366 0.731,-1.098 0.365,-1.83 -0.365,-0.732 -1.096,-1.098 -1.828,-0.732 z"
     fill="#5bc6f9"
     id="path190" />
  <path
     d="m 254.4589,170.8943 c -3.656,2.562 -7.312,5.49 -10.968,8.051 -0.732,0.366 -0.732,1.464 -0.366,1.83 0.366,0.366 0.731,0.366 1.097,0.732 0.365,0 0.731,0 0.731,-0.366 3.656,-2.562 7.678,-5.489 10.968,-8.051 0.731,-0.366 0.731,-1.464 0.366,-1.83 -0.366,-0.731 -1.463,-0.731 -1.828,-0.366 z"
     fill="#5bc6f9"
     id="path192" />
  <path
     d="m 35.8299,270.0653 c 0,6.587 -5.484,12.076 -12.065,12.076 -6.5807,0 -12.0647,-5.489 -12.0647,-12.076 0,-6.587 5.484,-12.076 12.0647,-12.076 6.581,0 12.065,5.489 12.065,12.076 z"
     fill="#01c7e2"
     id="path194" />
  <path
     d="m 285.5339,213.3443 c 0,6.587 -5.484,12.076 -12.065,12.076 -6.581,0 -12.065,-5.489 -12.065,-12.076 0,-6.587 5.484,-12.076 12.065,-12.076 6.581,-0.366 12.065,5.123 12.065,12.076 z"
     fill="#01c7e2"
     id="path196" />
  <path
     d="m 213.5099,108.6843 c 0,6.587 -5.484,12.076 -12.065,12.076 -6.581,0 -12.065,-5.489 -12.065,-12.076 0,-6.587 5.484,-12.076 12.065,-12.076 6.581,0 12.065,5.123 12.065,12.076 z"
     fill="#01c7e2"
     id="path198" />
  <path
     d="m 129.0549,53.4273 c -0.731,-0.366 -1.462,0 -1.828,0.732 -1.462,4.026 -3.29,8.783 -4.387,13.54 -0.366,0.732 0.366,1.464 0.731,1.83 0.731,0 1.097,0 1.463,-0.732 v -0.366 c 1.462,-4.757 2.924,-9.149 4.387,-13.174 0.731,-0.732 0.365,-1.464 -0.366,-1.83 z"
     fill="#5bc6f9"
     id="path200" />
  <path
     d="m 121.9039,74.2923 c -0.731,-0.366 -1.463,0 -1.828,0.731 -1.463,4.026 -3.291,8.783 -4.387,13.54 -0.366,0.732 0.365,1.464 0.731,1.83 0.731,0 1.097,0 1.462,-0.732 v -0.366 c 1.463,-4.757 2.925,-9.148 4.387,-13.174 0.732,-0.732 0.366,-1.463 -0.365,-1.829 z"
     fill="#5bc6f9"
     id="path202" />
  <path
     d="m 126.1319,285.4343 c -0.732,0.366 -1.828,0.366 -2.56,0.366 1.097,4.026 2.194,8.051 3.291,11.71 0.365,0.732 1.097,1.098 1.828,0.732 0.365,0 0.731,-0.366 0.731,-0.732 0.366,-0.365 0.366,-0.731 0,-1.097 -1.097,-2.928 -2.194,-6.953 -3.29,-10.979 z"
     fill="#5bc6f9"
     id="path204" />
  <path
     d="m 120.1479,263.1483 c -0.731,0.366 -1.828,0.366 -2.559,0.366 1.097,4.025 2.194,8.051 3.29,11.71 0.366,0.732 1.097,1.098 1.828,0.732 0.366,0 0.732,-0.366 0.732,-0.732 0.365,-0.366 0.365,-0.732 0,-1.098 -1.097,-2.927 -2.194,-6.953 -3.291,-10.978 z"
     fill="#5bc6f9"
     id="path206" />
</svg>
