<?xml version="1.0" encoding="UTF-8" standalone="no"?>
<svg
   xmlns:dc="http://purl.org/dc/elements/1.1/"
   xmlns:cc="http://creativecommons.org/ns#"
   xmlns:rdf="http://www.w3.org/1999/02/22-rdf-syntax-ns#"
   xmlns:svg="http://www.w3.org/2000/svg"
   xmlns="http://www.w3.org/2000/svg"
   width="313.19101"
   height="336.71259"
   viewBox="0 0 313.19101 336.71259"
   fill="none"
   version="1.1"
   id="svg48">
  <metadata
     id="metadata54">
    <rdf:RDF>
      <cc:Work
         rdf:about="">
        <dc:format>image/svg+xml</dc:format>
        <dc:type
           rdf:resource="http://purl.org/dc/dcmitype/StillImage" />
        <dc:title></dc:title>
      </cc:Work>
    </rdf:RDF>
  </metadata>
  <defs
     id="defs52" />
  <path
     d="m 165.372,289.5386 c 0,0 1.52,4.565 1.52,7.989 0,3.424 -0.38,7.229 -1.14,7.99 -2.28,1.902 -29.26,1.902 -31.54,-0.381 -2.28,-2.663 -0.76,-6.467 4.94,-7.989 6.08,-1.522 6.84,-0.761 11.02,-2.283 3.8,-1.521 3.04,-5.706 3.04,-5.706 z"
     fill="#000000"
     id="path2" />
  <path
     d="m 205.652,284.2126 c 0,0 3.04,3.804 4.18,6.848 1.14,3.424 2.28,6.848 1.52,7.989 -1.52,2.283 -26.6,12.174 -29.64,10.652 -3.04,-1.522 -3.04,-5.706 1.9,-9.13 5.32,-3.424 6.08,-3.424 9.5,-6.087 3.04,-2.663 0.76,-6.468 0.76,-6.468 z"
     fill="#000000"
     id="path4" />
  <path
     d="m 146.37,174.2676 36.48,4.184 c 0,0 -32.68,52.12 -34.96,60.49 -2.66,8.369 20.9,52.119 20.9,52.119 h -19 c 0,0 -20.9,-52.119 -20.14,-55.924 0.76,-4.184 16.72,-60.869 16.72,-60.869 z"
     fill="#d0d1de"
     id="path6" />
  <path
     d="m 147.892,176.9306 h 41.42 c 0,0 4.94,12.934 2.66,22.445 -2.28,9.892 -3.8,30.435 -3.42,34.239 0.38,3.805 20.52,52.12 20.52,52.12 l -15.2,5.706 c 0,0 -20.9,-46.413 -22.8,-51.739 -1.9,-4.945 -23.18,-62.771 -23.18,-62.771 z"
     fill="#d0d1de"
     id="path8" />
  <path
     d="m 149.792,90.951598 c 3.42,0.381 6.84,0 9.88,-0.761 1.14,-0.38 2.28,-0.761 3.42,-1.141 0.38,4.185 1.52,14.076002 4.94,17.500002 0,0 -0.38,4.946 -9.12,6.087 -8.74,1.141 -10.26,-5.326 -10.26,-5.326 0,0 1.52,-10.272002 1.14,-16.359002 z"
     fill="#ffcea9"
     id="path10" />
  <path
     d="m 125.09,168.1806 c -3.04,0.38 -6.08,1.141 -9.12,1.521 -1.52,0 -2.66,0 -4.18,0 -0.76,0 -2.66,0 -3.04,0.761 -0.38,1.141 1.14,1.141 1.9,1.522 1.14,0 3.04,-0.381 3.42,1.141 0.38,1.902 -3.04,2.663 -4.18,3.424 -1.14,0.761 -4.56,2.283 -1.9,3.044 1.52,0.76 4.56,-1.522 5.7,-2.283 -1.52,0.761 -3.04,1.522 -4.18,2.283 -0.76,0.76 -2.28,1.521 -2.28,2.282 0,1.522 3.04,0.381 3.8,-0.38 1.9,-1.142 1.9,-1.142 3.42,-2.283 -1.14,0.761 -5.7,3.424 -4.18,4.946 1.14,0.761 4.56,-2.283 6.08,-3.044 -0.76,0.761 -3.04,1.522 -2.66,3.044 0,0.761 1.52,0 2.28,-0.381 0.76,-0.761 1.52,-1.521 2.66,-1.902 0.76,-0.38 1.14,-0.761 1.9,-1.522 1.52,-1.521 3.04,-1.902 4.18,-3.423 1.14,-1.522 2.28,-3.424 3.8,-4.566 -3.8,-0.38 -1.52,-2.663 -3.42,-4.184 z"
     fill="#ffcea9"
     id="path12" />
  <path
     d="m 168.032,106.5496 c 0,0.381 0,0.381 0,0 0,0.381 0,0.381 0,0.381 0,0 0,0.38 -0.38,0.38 0,0.381 -0.38,0.381 -0.38,0.761 -0.38,0.38 -0.76,1.141 -1.52,1.522 -0.38,0.38 -0.76,0.38 -1.14,0.761 -0.38,0.38 -0.76,0.38 -1.52,0.76 -0.38,-2.282 -1.52,-4.184 -3.42,-5.706 -3.04,-3.044 -6.46,-4.185 -10.26,-4.565 0.38,-3.424002 0.76,-7.229002 0.38,-10.272002 3.42,0.38 6.84,0 9.88,-0.761 1.14,-0.38 2.28,-0.761 3.42,-1.141 0.38,4.565 1.52,14.076002 4.94,17.880002 z"
     fill="#ffcea9"
     id="path14" />
  <path
     d="m 122.812,168.5606 2.66,9.891 c 0,0 43.32,-6.847 43.32,-17.88 0,-9.891 -19,-45.652 -23.94,-47.554 -6.84,-2.663 -12.16,13.695 -8.74,18.261 7.22,9.891 17.48,23.967 15.96,25.869 -1.9,1.902 -29.26,11.413 -29.26,11.413 z"
     fill="#5abc85"
     id="path16" />
  <path
     d="m 156.632,65.082598 c 0,0 -14.82,0 -15.96,4.185 -1.14,3.804 0.76,9.13 0.76,11.793 0,2.663 -2.66,6.087 -3.04,7.229 0,1.141 3.04,1.902 3.8,2.663 0.76,0.761 4.18,7.989 7.22,8.75 3.04,1.141002 14.06,-7.609 15.58,-14.457 1.14,-6.848 -4.18,-19.402 -8.36,-20.163 z"
     fill="#ffcea9"
     id="path18" />
  <path
     d="m 148.652,106.1696 c 0,0 10.26,4.946 18.24,-1.141 0,0 15.58,2.663 17.48,3.424 1.52,0.76 -2.659,23.206 -0.759,34.239 1.9,11.413 9.12,38.424 9.12,38.424 0,0 -19.381,14.837 -52.061,5.326 0,0 -1.14,-38.044 -0.76,-48.696 0.38,-15.598 0.76,-24.728 0.76,-24.728 0,0 3.8,-3.805 7.98,-6.848 z"
     fill="#5fcf90"
     id="path20" />
  <path
     d="m 172.591,167.7996 c 1.52,-6.087 2.28,-11.794 1.52,-17.881 -1.14,-6.467 3.8,-15.217 4.56,-22.065 0.76,-7.228 1.52,-12.174 6.46,-15.978 -0.38,6.848 -2.66,22.065 -1.14,30.815 1.9,11.413 9.12,38.424 9.12,38.424 0,0 -12.16,9.511 -33.82,8.37 8.36,-4.946 11.02,-11.794 13.3,-21.685 z"
     fill="#5abc85"
     id="path22" />
  <path
     d="m 151.31,68.505598 c 0,0 0.76,3.424 3.42,6.468 1.14,1.521 -1.52,6.847 0.38,8.75 1.14,1.141 2.28,0.38 2.28,-2.663 0,-1.142 0.76,-1.903 1.52,-2.663 3.04,-2.283 5.32,2.282 2.66,4.945 -1.9,1.522 1.14,6.468 1.14,6.468 2.66,1.141 9.5,-3.424 7.22,-8.37 -1.52,-3.424 -2.28,-4.565 -1.14,-5.706 1.9,-2.283 3.42,-7.229 -1.52,-9.892 -6.46,-3.424 -2.28,-6.467 -8.74,-6.087 -6.08,0.381 -9.88,5.326 -7.22,8.75 z"
     fill="#3a2c6d"
     id="path24" />
  <path
     d="m 160.431,62.419598 c -0.76,-1.142 -3.42,-1.903 -4.94,-2.663 -1.9,-0.761 -4.18,-0.761 -6.46,-0.761 -2.28,0 -4.56,0.761 -6.46,1.902 -1.9,0.761 -3.04,2.283 -4.94,3.043 -1.52,0.761 -3.42,1.142 -4.94,0.381 0,1.141 0.76,3.804 1.14,4.565 0.76,1.522 2.28,2.663 3.8,4.185 4.18,3.424 12.16,3.424 17.1,-0.381 2.28,-1.902 4.18,-3.424 4.94,-6.087 -0.38,-1.902 0,-2.663 0.76,-4.184 z"
     fill="#3a2c6d"
     id="path26" />
  <path
     d="m 201.091,161.7126 c -2.28,1.522 -4.94,3.805 -7.6,5.326 -1.14,0.761 -2.28,1.142 -3.42,1.903 -0.76,0.38 -2.28,1.141 -2.28,2.282 0,1.141 1.9,0.381 2.28,0.381 0.76,-0.381 2.66,-1.522 3.42,-0.761 1.14,1.521 -1.52,3.804 -2.28,4.945 -0.76,1.142 -3.04,3.805 -0.38,3.805 1.52,0 3.42,-3.424 4.18,-4.566 -1.14,1.142 -1.9,2.664 -2.66,4.185 -0.38,0.761 -1.52,2.283 -1.14,3.044 0.76,1.141 3.04,-1.142 3.42,-1.902 1.14,-1.522 1.14,-1.903 1.9,-3.424 -0.76,1.141 -3.8,5.706 -1.52,6.087 1.52,0.38 3.04,-4.185 3.8,-5.326 -0.38,1.141 -2.28,2.663 -1.14,4.184 0.38,0.761 1.52,-0.761 1.9,-1.521 0.38,-0.761 0.76,-1.903 1.52,-3.044 0.38,-0.761 0.76,-1.522 1.14,-2.283 0.76,-1.902 1.9,-3.043 2.28,-5.326 0.38,-1.902 0.76,-3.804 1.14,-5.706 -3.42,1.141 -2.28,-1.902 -4.56,-2.283 z"
     fill="#ffcea9"
     id="path28" />
  <path
     d="m 196.912,163.6146 8.36,5.707 c 0,0 27.74,-34.239 20.14,-42.228 -6.84,-7.229 -44.84,-20.924 -49.78,-19.022 -6.84,2.663 0,18.261 5.7,19.782 11.78,2.663 28.88,6.087 29.26,8.37 0.38,1.522 -13.68,27.391 -13.68,27.391 z"
     fill="#5fcf90"
     id="path30" />
  <path
     d="m 161.191,32.364998 c -83.98,0 -151.9999996,68.097602 -151.9999996,152.173602 0,84.076 68.0199996,152.174 151.9999996,152.174 83.98,0 152,-68.098 152,-152.174 0,-84.076 -68.02,-152.173602 -152,-152.173602 z m 0,282.282602 c -71.82,0 -129.96,-58.207 -129.96,-130.109 0,-71.902 58.14,-130.108002 129.96,-130.108002 71.82,0 129.96,58.206002 129.96,130.108002 0,71.902 -58.14,130.109 -129.96,130.109 z"
     fill="#777777"
     id="path32" />
  <rect
     width="29.725498"
     height="262.22714"
     transform="matrix(0.71934106,0.69465706,-0.69425863,0.71972561,0,0)"
     fill="#777777"
     id="rect34"
     x="220.33408"
     y="-110.3532" />
  <rect
     x="0"
     y="0"
     width="118.198"
     height="65.210503"
     rx="11"
     fill="#5bc6f9"
     id="rect36" />
  <path
     d="m 117.1,80.429598 c -0.741,-6.749 -11.403,-19.099 -16.642,-24.43 l 17.406,-3.069 c 0.054,11.979 -0.024,34.249 -0.764,27.499 z"
     fill="#5bc6f9"
     id="path38" />
  <path
     d="m 146.292,239.9736 c -2.257,-3.54 7.999,-22 10.828,-26.206 l 3.478,-2.481 c 3.211,1.107 -2.068,6.048 -5.121,13.006 -4.547,10.223 -7.441,14.641 -9.185,15.681 z"
     fill="#abadc4"
     id="path40" />
  <path
     d="m 30.128,13.573698 h 9.462 c 3.23,0 5.586,0.76 7.068,2.28 1.482,1.482 2.223,3.781 2.223,6.897 v 1.596 c 0,2.052 -0.342,3.724 -1.026,5.016 -0.646,1.292 -1.653,2.223 -3.021,2.793 v 0.114 c 3.116,1.064 4.674,3.838 4.674,8.322 v 3.42 c 0,3.078 -0.817,5.434 -2.451,7.068 -1.596,1.5959 -3.952,2.3939 -7.068,2.3939 h -9.861 z m 8.721,16.245 c 1.254,0 2.185,-0.323 2.793,-0.969 0.646,-0.646 0.969,-1.729 0.969,-3.249 v -2.223 c 0,-1.444 -0.266,-2.489 -0.798,-3.135 -0.494,-0.646 -1.292,-0.969 -2.394,-0.969 h -3.021 v 10.545 z m 1.14,17.955 c 1.102,0 1.919,-0.285 2.451,-0.855 0.532,-0.608 0.798,-1.634 0.798,-3.078 v -3.477 c 0,-1.824 -0.323,-3.078 -0.969,-3.762 -0.608,-0.722 -1.634,-1.083 -3.078,-1.083 h -2.793 v 12.255 z"
     fill="#ffffff"
     id="path42" />
  <path
     d="m 58.039,36.487698 -7.581,-22.914 h 6.669 l 4.275,14.649 h 0.114 l 4.275,-14.649 h 6.099 l -7.581,22.914 v 16.9859 h -6.27 z"
     fill="#ffffff"
     id="path44" />
  <path
     d="m 74.715,13.573698 h 17.1 v 5.7 h -10.83 v 10.545 h 8.607 v 5.7 h -8.607 v 12.255 h 10.83 v 5.6999 h -17.1 z"
     fill="#ffffff"
     id="path46" />
</svg>
