<svg width="62" height="27" viewBox="0 0 62 27" fill="none" xmlns="http://www.w3.org/2000/svg">
<path d="M25.8701 0.285389L25.8959 7.02863L32.6231 7.00252L32.5973 0.259277L25.8701 0.285389ZM31.9394 6.3171L26.5861 6.33668L26.5667 0.996921L31.9201 0.977337L31.9394 6.3171Z" fill="white"/>
<path d="M30.9994 1.81494H27.4131V5.44457H30.9994V1.81494Z" fill="white"/>
<path d="M24.6563 22.9173H20.9154C23.218 20.6652 24.6563 17.5057 24.6563 14.0068C24.6563 7.16566 19.1804 1.62354 12.4209 1.62354C5.66147 1.62354 0.185547 7.16566 0.185547 14.0068C0.185547 20.7631 5.52603 26.253 12.1694 26.3836H12.4209H24.6498V22.9173H24.6563ZM4.08771 14.0068C4.08771 9.08484 7.82218 5.09634 12.4209 5.09634C17.0261 5.09634 20.7541 9.08484 20.7541 14.0068C20.7541 18.8962 17.0713 22.8651 12.5112 22.9173H12.3306C7.77058 22.8651 4.08771 18.8962 4.08771 14.0068Z" fill="white"/>
<path d="M31.0221 26.3901H27.5908V9.44385H31.0221V26.3901Z" fill="white"/>
<path d="M49.0366 13.0733C48.6625 12.1986 48.1465 11.4348 47.4951 10.7755C46.8437 10.1162 46.089 9.594 45.2248 9.21538C44.3605 8.83677 43.4382 8.64746 42.4384 8.64746C41.4 8.64746 40.4583 8.88899 39.6069 9.36552C38.7685 9.84205 38.0138 10.4622 37.3366 11.226V9.43733H33.9053V26.3836H37.3366V16.5853C37.3688 16.2002 37.4462 15.8281 37.601 15.4821C37.601 15.4756 37.6075 15.469 37.6139 15.4625C38.2267 13.6347 39.8133 12.3226 41.6967 12.3226C44.0057 12.3226 45.8762 14.294 46.0245 16.7746C46.031 16.8007 46.0503 16.8268 46.0503 16.8529L46.2245 26.377H49.5978V15.8933C49.5978 14.8881 49.4107 13.9481 49.0366 13.0733Z" fill="white"/>
<path d="M60.9882 25.293C60.7947 24.4117 60.6077 23.5305 60.4142 22.6492C60.3432 22.3228 60.0852 22.2053 59.8401 22.238C59.7499 22.2445 59.6596 22.2641 59.5693 22.3032C59.1371 22.4926 58.6921 22.6557 58.2277 22.7471C58.0471 22.7798 57.9632 22.7928 57.7697 22.7994C57.6924 22.7994 57.615 22.7994 57.5311 22.7928C57.5053 22.7928 57.4795 22.7863 57.4537 22.7863C57.4473 22.7863 57.4344 22.7798 57.415 22.7798C57.3505 22.7667 57.286 22.7537 57.2215 22.7341C57.2022 22.7276 57.1119 22.6884 57.099 22.6819C57.0603 22.6623 57.028 22.6427 56.9893 22.6231C56.97 22.6166 56.9635 22.6101 56.9506 22.6035C56.9506 22.6035 56.9442 22.597 56.9377 22.5905C56.899 22.5513 56.8603 22.5187 56.8216 22.4795C56.8087 22.4664 56.7765 22.4273 56.7636 22.4077C56.712 22.3359 56.6733 22.2576 56.6281 22.1792C56.6217 22.1727 56.6217 22.1596 56.6152 22.1531C56.6152 22.1466 56.6152 22.1466 56.6088 22.14C56.5894 22.0944 56.5765 22.0421 56.5572 21.9964C56.5249 21.8985 56.5056 21.8006 56.4862 21.7027C56.4798 21.6766 56.4798 21.6505 56.4733 21.6244C56.4669 21.5982 56.4669 21.5591 56.4604 21.5395C56.4604 21.5264 56.4604 21.5134 56.4604 21.4938V20.8606C56.4669 20.7627 56.4927 20.6125 56.4604 20.828V20.8214C56.4669 20.7496 56.4669 20.6843 56.4604 20.6191V12.0089L58.2793 11.9958L59.2532 8.56871H56.4604V5.68994H53.0291V8.56871H50.2363V12.0415L53.0291 12.0219V21.5852H53.0485C53.0807 23.0735 53.4226 24.7642 54.5964 25.7304C54.6803 25.8022 54.7706 25.8544 54.8544 25.9197C54.8673 25.9327 55.0608 26.0959 55.0608 26.0959C55.1382 26.1547 55.2156 26.2069 55.2995 26.2591C55.5188 26.3897 55.7638 26.4876 56.0089 26.5594C56.9377 26.827 57.9503 26.7161 58.8791 26.5267C59.4596 26.4027 60.0465 26.2395 60.5948 26.0176C60.885 25.887 61.0592 25.6324 60.9882 25.293Z" fill="white"/>
</svg>
