<svg width="78" height="34" viewBox="0 0 78 34" fill="none" xmlns="http://www.w3.org/2000/svg">
<path d="M33.1299 0.193472L33.1626 8.7028L41.69 8.66985L41.6573 0.160522L33.1299 0.193472ZM40.8234 7.80491L34.0374 7.82962L34.0129 1.09136L40.7988 1.06665L40.8234 7.80491Z" fill="url(#paint0_linear)"/>
<path d="M39.6319 2.12347H35.0859V6.70372H39.6319V2.12347Z" fill="url(#paint1_linear)"/>
<path d="M31.5925 28.7525H26.8505C29.7693 25.9105 31.5925 21.9236 31.5925 17.5083C31.5925 8.8754 24.6512 1.88177 16.0829 1.88177C7.51456 1.88177 0.573242 8.8754 0.573242 17.5083C0.573242 26.0341 7.34287 32.9618 15.764 33.1266H16.0829H31.5843V28.7525H31.5925ZM5.51965 17.5083C5.51965 11.2972 10.2535 6.26412 16.0829 6.26412C21.9204 6.26412 26.6461 11.2972 26.6461 17.5083C26.6461 23.6782 21.9777 28.6866 16.1973 28.7525H15.9684C10.1881 28.6866 5.51965 23.6782 5.51965 17.5083Z" fill="url(#paint2_linear)"/>
<path d="M39.6621 33.1348H35.3125V11.7502H39.6621V33.1348Z" fill="url(#paint3_linear)"/>
<path d="M62.497 16.3303C62.0228 15.2265 61.3687 14.2627 60.543 13.4307C59.7172 12.5987 58.7606 11.9397 57.6651 11.462C56.5695 10.9842 55.4003 10.7453 54.1331 10.7453C52.8168 10.7453 51.6231 11.0501 50.5439 11.6514C49.481 12.2528 48.5244 13.0353 47.666 13.9991V11.742H43.3164V33.1266H47.666V20.7621C47.7068 20.2761 47.805 19.8065 48.0012 19.37C48.0012 19.3617 48.0094 19.3535 48.0175 19.3452C48.7942 17.0387 50.8055 15.383 53.1929 15.383C56.1198 15.383 58.4908 17.8707 58.6789 21.001C58.687 21.0339 58.7116 21.0669 58.7116 21.0998L58.9323 33.1183H63.2083V19.8889C63.2083 18.6203 62.9712 17.4341 62.497 16.3303Z" fill="url(#paint4_linear)"/>
<path d="M77.6467 31.7509C77.4015 30.6388 77.1644 29.5267 76.9191 28.4147C76.8292 28.0028 76.5021 27.8545 76.1914 27.8957C76.077 27.9039 75.9625 27.9287 75.8481 27.9781C75.3003 28.217 74.7361 28.4229 74.1475 28.5382C73.9185 28.5794 73.8123 28.5959 73.567 28.6041C73.4689 28.6041 73.3708 28.6041 73.2645 28.5959C73.2318 28.5959 73.1991 28.5877 73.1664 28.5877C73.1582 28.5877 73.1418 28.5794 73.1173 28.5794C73.0356 28.5629 72.9538 28.5465 72.872 28.5218C72.8475 28.5135 72.733 28.4641 72.7167 28.4559C72.6676 28.4311 72.6268 28.4064 72.5777 28.3817C72.5532 28.3735 72.545 28.3652 72.5287 28.357C72.5287 28.357 72.5205 28.3488 72.5123 28.3405C72.4632 28.2911 72.4142 28.2499 72.3651 28.2005C72.3488 28.184 72.3079 28.1346 72.2916 28.1099C72.2261 28.0193 72.1771 27.9204 72.1199 27.8216C72.1117 27.8133 72.1117 27.7969 72.1035 27.7886C72.1035 27.7804 72.1035 27.7804 72.0953 27.7721C72.0708 27.7145 72.0545 27.6486 72.0299 27.5909C71.989 27.4674 71.9645 27.3438 71.94 27.2202C71.9318 27.1873 71.9318 27.1543 71.9236 27.1214C71.9155 27.0884 71.9155 27.039 71.9073 27.0143C71.9073 26.9978 71.9073 26.9813 71.9073 26.9566V26.1576C71.9155 26.034 71.9482 25.8446 71.9073 26.1164V26.1082C71.9155 26.0176 71.9155 25.9352 71.9073 25.8528V14.9876L74.2129 14.9711L75.4474 10.6464H71.9073V7.01367H67.5577V10.6464H64.0176V15.0287L67.5577 15.004V27.072H67.5823C67.6231 28.9501 68.0565 31.0836 69.5445 32.3028C69.6508 32.3934 69.7652 32.4593 69.8715 32.5416C69.8879 32.5581 70.1331 32.7641 70.1331 32.7641C70.2312 32.8382 70.3293 32.9041 70.4356 32.97C70.7136 33.1347 71.0243 33.2583 71.335 33.3489C72.5123 33.6867 73.7959 33.5466 74.9732 33.3077C75.7091 33.1512 76.4531 32.9453 77.148 32.6652C77.5159 32.5005 77.7367 32.1792 77.6467 31.7509Z" fill="url(#paint5_linear)"/>
<defs>
<linearGradient id="paint0_linear" x1="8.01281" y1="-8.86702" x2="107.059" y2="35.2701" gradientUnits="userSpaceOnUse">
<stop stop-color="#5BC6F9"/>
<stop offset="1" stop-color="#5FCF90"/>
</linearGradient>
<linearGradient id="paint1_linear" x1="10.9323" y1="-7.54003" x2="99.9019" y2="32.1067" gradientUnits="userSpaceOnUse">
<stop stop-color="#5BC6F9"/>
<stop offset="1" stop-color="#5FCF90"/>
</linearGradient>
<linearGradient id="paint2_linear" x1="-0.287186" y1="10.1039" x2="98.7591" y2="54.2409" gradientUnits="userSpaceOnUse">
<stop stop-color="#5BC6F9"/>
<stop offset="1" stop-color="#5FCF90"/>
</linearGradient>
<linearGradient id="paint3_linear" x1="1.47301" y1="6.15394" x2="100.519" y2="50.291" gradientUnits="userSpaceOnUse">
<stop stop-color="#5BC6F9"/>
<stop offset="1" stop-color="#5FCF99"/>
</linearGradient>
<linearGradient id="paint4_linear" x1="3.70783" y1="1.13808" x2="102.754" y2="45.2752" gradientUnits="userSpaceOnUse">
<stop stop-color="#5BC6F9"/>
<stop offset="1" stop-color="#5FCF90"/>
</linearGradient>
<linearGradient id="paint5_linear" x1="8.03377" y1="-8.56976" x2="107.08" y2="35.5673" gradientUnits="userSpaceOnUse">
<stop stop-color="#5BC6F9"/>
<stop offset="1" stop-color="#5FCF90"/>
</linearGradient>
</defs>
</svg>
