<svg width="90" height="53" viewBox="0 0 90 53" fill="none" xmlns="http://www.w3.org/2000/svg">
<path d="M39.1299 9.19347L39.1626 17.7028L47.69 17.6698L47.6573 9.16052L39.1299 9.19347ZM46.8234 16.8049L40.0374 16.8296L40.0129 10.0914L46.7988 10.0666L46.8234 16.8049Z" fill="url(#paint0_linear)"/>
<path d="M45.6319 11.1235H41.0859V15.7037H45.6319V11.1235Z" fill="url(#paint1_linear)"/>
<path d="M37.5925 37.7525H32.8505C35.7693 34.9105 37.5925 30.9236 37.5925 26.5083C37.5925 17.8754 30.6512 10.8818 22.0829 10.8818C13.5146 10.8818 6.57324 17.8754 6.57324 26.5083C6.57324 35.0341 13.3429 41.9618 21.764 42.1266H22.0829H37.5843V37.7525H37.5925ZM11.5196 26.5083C11.5196 20.2972 16.2535 15.2641 22.0829 15.2641C27.9204 15.2641 32.6461 20.2972 32.6461 26.5083C32.6461 32.6782 27.9777 37.6866 22.1973 37.7525H21.9684C16.1881 37.6866 11.5196 32.6782 11.5196 26.5083Z" fill="url(#paint2_linear)"/>
<path d="M45.6621 42.1348H41.3125V20.7502H45.6621V42.1348Z" fill="url(#paint3_linear)"/>
<path d="M68.497 25.3303C68.0228 24.2265 67.3687 23.2627 66.543 22.4307C65.7172 21.5987 64.7606 20.9397 63.6651 20.462C62.5695 19.9842 61.4003 19.7453 60.1331 19.7453C58.8168 19.7453 57.6231 20.0501 56.5439 20.6514C55.481 21.2528 54.5244 22.0353 53.666 22.9991V20.742H49.3164V42.1266H53.666V29.7621C53.7068 29.2761 53.805 28.8065 54.0012 28.37C54.0012 28.3617 54.0094 28.3535 54.0175 28.3452C54.7942 26.0387 56.8055 24.383 59.1929 24.383C62.1198 24.383 64.4908 26.8707 64.6789 30.001C64.687 30.0339 64.7116 30.0669 64.7116 30.0998L64.9323 42.1183H69.2083V28.8889C69.2083 27.6203 68.9712 26.4341 68.497 25.3303Z" fill="url(#paint4_linear)"/>
<path d="M83.6467 40.7509C83.4015 39.6388 83.1644 38.5267 82.9191 37.4147C82.8292 37.0028 82.5021 36.8545 82.1914 36.8957C82.077 36.9039 81.9625 36.9287 81.8481 36.9781C81.3003 37.217 80.7361 37.4229 80.1475 37.5382C79.9185 37.5794 79.8123 37.5959 79.567 37.6041C79.4689 37.6041 79.3708 37.6041 79.2645 37.5959C79.2318 37.5959 79.1991 37.5877 79.1664 37.5877C79.1582 37.5877 79.1418 37.5794 79.1173 37.5794C79.0356 37.5629 78.9538 37.5465 78.872 37.5218C78.8475 37.5135 78.733 37.4641 78.7167 37.4559C78.6676 37.4311 78.6268 37.4064 78.5777 37.3817C78.5532 37.3735 78.545 37.3652 78.5287 37.357C78.5287 37.357 78.5205 37.3488 78.5123 37.3405C78.4632 37.2911 78.4142 37.2499 78.3651 37.2005C78.3488 37.184 78.3079 37.1346 78.2916 37.1099C78.2261 37.0193 78.1771 36.9204 78.1199 36.8216C78.1117 36.8133 78.1117 36.7969 78.1035 36.7886C78.1035 36.7804 78.1035 36.7804 78.0953 36.7721C78.0708 36.7145 78.0545 36.6486 78.0299 36.5909C77.989 36.4674 77.9645 36.3438 77.94 36.2202C77.9318 36.1873 77.9318 36.1543 77.9236 36.1214C77.9155 36.0884 77.9155 36.039 77.9073 36.0143C77.9073 35.9978 77.9073 35.9813 77.9073 35.9566V35.1576C77.9155 35.034 77.9482 34.8446 77.9073 35.1164V35.1082C77.9155 35.0176 77.9155 34.9352 77.9073 34.8528V23.9876L80.2129 23.9711L81.4474 19.6464H77.9073V16.0137H73.5577V19.6464H70.0176V24.0287L73.5577 24.004V36.072H73.5823C73.6231 37.9501 74.0565 40.0836 75.5445 41.3028C75.6508 41.3934 75.7652 41.4593 75.8715 41.5416C75.8879 41.5581 76.1331 41.7641 76.1331 41.7641C76.2312 41.8382 76.3293 41.9041 76.4356 41.97C76.7136 42.1347 77.0243 42.2583 77.335 42.3489C78.5123 42.6867 79.7959 42.5466 80.9732 42.3077C81.7091 42.1512 82.4531 41.9453 83.148 41.6652C83.5159 41.5005 83.7367 41.1792 83.6467 40.7509Z" fill="url(#paint5_linear)"/>
<defs>
<linearGradient id="paint0_linear" x1="14.0128" y1="0.132977" x2="113.059" y2="44.2701" gradientUnits="userSpaceOnUse">
<stop stop-color="#5BC6F9"/>
<stop offset="1" stop-color="#5FCF90"/>
</linearGradient>
<linearGradient id="paint1_linear" x1="16.9323" y1="1.45997" x2="105.902" y2="41.1067" gradientUnits="userSpaceOnUse">
<stop stop-color="#5BC6F9"/>
<stop offset="1" stop-color="#5FCF90"/>
</linearGradient>
<linearGradient id="paint2_linear" x1="5.71281" y1="19.1039" x2="104.759" y2="63.2409" gradientUnits="userSpaceOnUse">
<stop stop-color="#5BC6F9"/>
<stop offset="1" stop-color="#5FCF90"/>
</linearGradient>
<linearGradient id="paint3_linear" x1="7.47301" y1="15.1539" x2="106.519" y2="59.291" gradientUnits="userSpaceOnUse">
<stop stop-color="#5BC6F9"/>
<stop offset="1" stop-color="#5FCF99"/>
</linearGradient>
<linearGradient id="paint4_linear" x1="9.70783" y1="10.1381" x2="108.754" y2="54.2752" gradientUnits="userSpaceOnUse">
<stop stop-color="#5BC6F9"/>
<stop offset="1" stop-color="#5FCF90"/>
</linearGradient>
<linearGradient id="paint5_linear" x1="14.0338" y1="0.430236" x2="113.08" y2="44.5673" gradientUnits="userSpaceOnUse">
<stop stop-color="#5BC6F9"/>
<stop offset="1" stop-color="#5FCF90"/>
</linearGradient>
</defs>
</svg>
