<svg width="102" height="199" viewBox="0 0 102 199" fill="none" xmlns="http://www.w3.org/2000/svg">
<path d="M34.771 166.715C26.618 161.925 26.618 154.207 34.771 149.416C42.8717 144.625 56.0941 144.625 64.1948 149.416C72.2955 154.207 72.2955 161.925 64.1948 166.715C56.0941 171.506 42.8717 171.506 34.771 166.715Z" fill="#E7E9F2"/>
<g filter="url(#filter0_f)">
<path d="M36.1147 164.892C27.9618 160.102 27.9618 152.384 36.1147 147.593C44.2154 142.802 57.4379 142.802 65.5386 147.593C73.6393 152.384 73.6393 160.102 65.5386 164.892C57.4379 169.683 44.2154 169.683 36.1147 164.892Z" fill="#5FCF90"/>
</g>
<path d="M64.247 154.26C64.6129 154.207 65.6581 158.199 65.5536 159.21C65.3445 160.913 63.9857 161.392 62.6269 162.244C60.6932 163.468 59.0208 165.225 57.0348 166.236C54.9965 167.248 49.6658 168.312 49.0386 164.906C48.725 162.989 50.6065 161.712 51.8608 160.7C54.1081 158.944 57.1393 156.602 59.1776 154.526C59.3343 154.419 62.261 155.91 64.247 154.26Z" fill="#38226D"/>
<path d="M65.5013 158.571C65.5535 158.837 65.5535 159.104 65.5535 159.263C65.3445 160.967 63.9857 161.446 62.6268 162.297C60.6931 163.522 59.0207 165.278 57.0347 166.29C55.0488 167.301 49.8225 168.365 49.0908 165.065C50.3974 167.514 55.0488 166.556 56.9302 165.598C58.9162 164.533 60.6409 162.776 62.5746 161.552C63.9334 160.7 65.24 160.221 65.5013 158.571Z" fill="#3DBB74"/>
<path d="M47.0521 147.766C47.418 147.713 48.7245 151.226 48.62 152.29C48.4109 153.994 47.0521 154.473 45.6933 155.324C43.7596 156.549 42.0872 158.305 40.1012 159.316C38.063 160.328 32.7322 161.392 32.105 157.986C31.7914 156.07 33.6729 154.792 34.9272 153.781C37.1745 151.971 39.4218 149.842 41.46 147.766C41.6168 147.606 45.0661 149.416 47.0521 147.766Z" fill="#38226D"/>
<path d="M48.5159 151.811C48.5682 152.077 48.5682 152.344 48.5682 152.503C48.3591 154.207 47.0003 154.686 45.6415 155.537C43.7078 156.762 42.0354 158.518 40.0494 159.529C38.0634 160.541 32.8371 161.605 32.1055 158.305C33.412 160.754 38.0634 159.796 39.9449 158.837C41.9308 157.773 43.6555 156.016 45.5892 154.792C46.948 153.94 48.2546 153.461 48.5159 151.811Z" fill="#3DBB74"/>
<path d="M37.1746 72.8192C36.9133 72.766 36.652 72.9257 36.652 73.245C36.5998 77.9824 28.3945 109.867 28.3945 112.581C28.3945 116.84 40.9898 145.53 41.4079 148.085C41.4079 148.192 41.5124 148.298 41.617 148.405C44.021 149.788 46.0593 148.99 46.6864 148.617C46.8432 148.564 46.8955 148.405 46.8955 148.245C47 145.85 41.9305 126.261 41.4079 122.109C40.9376 118.649 40.16 112.536 40 112C40 111.947 40.3627 111.464 40.3627 111.464L48.2543 89.2138C48.2543 89.0009 48.4634 88.8412 48.6724 88.8412C48.8815 88.8412 49.0905 89.0009 49.1428 89.2138C49.4041 92.4607 48.0453 113.06 48.8815 117.798C49.6654 122.056 53.0625 125.995 54.5258 132.808C55.8847 139.196 58.7591 152.823 59.1249 154.579C59.1249 154.686 59.2295 154.792 59.334 154.845C61.5813 156.123 63.4105 155.218 64.0376 154.898C64.1421 154.845 64.2467 154.686 64.2467 154.526C64.3512 152.397 64.9783 135.417 64.2467 129.774C63.5673 124.079 58.8636 119.075 58.7068 118.543C58.7068 118.49 58.9159 118.17 58.9159 118.117C58.9159 117.425 60.6928 109.707 62.8356 103.053C63.2537 96.2932 64.1421 83.6779 64.2989 80.1116C64.2989 79.8987 64.1944 79.739 63.9854 79.6858L37.1746 72.8192Z" fill="#D0D1DE"/>
<path d="M22.8026 77.9824C21.7574 78.4615 21.7574 78.3018 21.8619 78.9938C21.9142 79.5793 23.1685 79.9519 24.2137 79.6858C25.3112 79.4196 25.8861 78.8341 26.1474 78.8873C26.461 78.9405 25.8338 79.6858 24.8931 80.5906C23.2207 81.7617 22.28 82.1875 21.4961 82.6666C20.3463 83.4118 21.5483 83.9973 21.6006 83.9973C22.0187 84.0505 22.7504 84.1038 24.1092 83.465C25.468 82.8263 26.8791 81.8149 26.8791 81.8149C26.8791 81.8149 26.2519 82.7198 25.0499 83.6247C23.7433 84.6893 23.1162 84.9022 22.489 85.4877C21.8096 86.0732 23.0117 86.8717 23.9001 86.4991C24.6318 86.2329 25.5725 85.7539 26.4087 85.0619C27.2972 84.3699 28.656 83.1456 28.656 83.1456C27.7153 84.6893 26.5133 85.4877 25.8861 86.02C25.2067 86.6055 25.1544 87.0314 25.5203 87.3507C25.8338 87.5637 26.5133 87.4572 28.0811 86.4458C29.649 85.4345 31.2169 83.4118 32.2099 81.4423C33.1506 79.5261 33.4119 78.6212 34.0391 77.663C36.3386 74.1499 38.1678 71.2756 39.5789 67.3898C41.7217 61.7475 42.192 57.0634 42.2966 54.0826C42.4533 48.0144 41.4604 40.1365 40.4674 35.825C39.4744 31.5134 37.2794 30.7682 35.5547 32.0457C34.0913 33.0571 33.0983 34.2281 33.4119 37.3686C33.7255 40.5091 35.2411 48.0144 35.5024 53.3373C35.6592 55.9456 35.0843 62.0137 33.4642 66.3785C32.0531 70.0513 30.5897 73.937 29.4922 74.8951C28.4992 75.8 27.5585 75.9065 26.1997 76.3856C24.6841 76.7582 23.8479 77.5034 22.8026 77.9824Z" fill="#FFCEA9"/>
<path d="M57.1917 20.8676C57.1917 20.8676 46.6869 24.5936 45.3804 24.7533C44.1261 24.9662 42.5582 28.4261 42.715 32.5248C42.8718 36.6766 51.077 39.8704 53.6901 38.6461C56.3033 37.4218 61.6341 32.0457 60.7979 31.3537C59.9616 30.6617 57.1395 28.6923 56.9827 28.1067C56.8782 27.5212 57.1917 20.8676 57.1917 20.8676Z" fill="#FFCEA9"/>
<path d="M57.9226 29.2245C57.9226 29.2245 59.2814 29.9165 62.6262 32.3118C65.1348 34.0684 66.0756 34.0152 65.762 39.0187C65.3961 44.0755 64.0896 48.7064 63.3056 54.9342C62.5217 61.162 64.6645 74.0434 64.978 78.9938C63.8283 81.4423 61.0583 82.6666 57.7135 83.465C53.6371 84.4231 49.1947 84.1038 43.2368 80.6971C37.2789 77.3437 36.3381 72.7659 36.3381 72.7659C36.3381 72.7659 36.4427 51.2082 36.3381 44.1287C36.2336 37.1024 37.4879 32.5247 38.69 28.7455C39.892 24.913 42.7664 23.4226 42.7664 23.4226C44.5434 22.9967 47.2088 25.1791 47.2088 25.1791C44.2821 27.5744 44.4911 35.0265 46.5816 37.1024C53.1667 36.4105 57.9226 29.2245 57.9226 29.2245Z" fill="#5FCF90"/>
<path d="M55.6759 84.4232C54.6306 85.0619 55.2578 84.4232 55.4668 85.1151C55.6236 85.7539 54.5784 87.1911 55.6759 86.7652C56.8256 86.3394 57.3483 85.6474 57.6096 85.6474C57.9232 85.6474 57.4005 86.5523 56.4598 87.6169C55.1532 89.1073 55.6759 88.3621 54.8919 89.0009C54.0035 89.7461 55.2055 90.0122 55.6759 90.0122C56.1462 90.0122 54.6306 91.6091 55.9894 90.7574C57.3483 89.9058 58.7594 88.6283 58.7594 88.6283C58.7594 88.6283 58.1845 89.6929 57.0347 90.8107C55.7804 92.0882 57.296 90.3316 56.6689 91.0236C56.0417 91.7156 57.0347 92.0882 57.9232 91.6091C58.6548 91.2365 57.8186 92.9931 58.6548 92.1414C59.491 91.2897 60.7976 89.7993 60.7976 89.7993C59.9614 91.5559 59.5433 91.1833 58.9161 91.822C58.289 92.514 59.4388 90.5445 59.9091 90.8107C60.275 91.0236 59.0729 93.3657 60.5885 92.0882C62.1042 90.8107 63.5675 89.6929 64.3515 87.4572C65.1354 85.2748 65.2922 84.3167 65.8148 83.1989C67.853 79.1535 69.4209 75.9065 70.4662 71.5417C72.0341 65.2607 71.9818 60.2039 71.7205 57.0634C71.1456 50.5695 69.1596 42.3189 67.5395 37.8477C65.9716 33.3764 63.5153 32.8974 61.8428 34.441C60.4318 35.7185 59.491 37.1025 60.2227 40.3495C60.9544 43.5964 63.463 51.4211 64.4037 57.0634C64.8741 59.8313 65.0309 66.3253 63.8288 71.2224C62.7836 75.321 61.6861 79.6325 60.6408 80.8036C59.7001 81.8682 58.7071 82.1343 57.3483 82.8263C55.7804 83.5715 56.5121 84.7425 55.4668 85.3813" fill="#FFCEA9"/>
<path d="M42.401 10.967C41.9829 13.522 41.4602 18.8981 43.1849 22.9967C44.1779 25.2856 45.3277 26.1373 47.3659 26.4566C48.986 26.6695 54.5781 25.2856 56.4073 23.1032C56.7209 22.7306 57.1913 20.8676 57.1913 20.8676C59.6999 19.111 61.4245 16.2899 61.5813 12.9897C61.8949 7.34738 57.6094 2.50353 52.0695 2.18416C46.8433 1.91801 43.1849 5.80374 42.401 10.967Z" fill="#FFCEA9"/>
<path d="M57.1919 20.8676C62.4704 19.0045 63.2543 13.2558 63.4111 10.4346C63.6202 7.56027 61.6865 1.11955 54.5265 0.161424C47.3665 -0.7967 41.304 2.66319 43.0287 6.49569C44.7534 10.3814 46.1645 9.84912 51.8088 8.62486C60.3276 6.81507 56.7215 16.3431 56.7215 16.3431L57.1919 20.8676Z" fill="#3A2C6D"/>
<path d="M71.8254 46.7369C71.8254 46.7369 68.167 32.6844 63.5679 32.5247C58.9688 32.365 58.9688 38.4863 58.9688 38.4863C58.9688 38.4863 60.8502 49.558 61.6341 50.0903C67.174 51.4742 71.8254 46.7369 71.8254 46.7369Z" fill="#5ABC85"/>
<path d="M36.5997 37.5814C36.5997 37.5814 37.6972 31.0875 38.7425 28.2663C39.9445 25.2855 42.6622 23.4757 42.6622 23.4757C36.4429 24.1677 33.3594 33.5892 33.1504 36.0378C34.1434 37.475 36.5997 37.5814 36.5997 37.5814Z" fill="#5ABC85"/>
<path d="M48.0976 111.464L52.54 108.855L69.473 98.7418L65.9192 98.6354L63.3583 95.7078L45.0664 106.726C48.3067 111.889 48.0976 111.464 48.0976 111.464Z" fill="#C4EBFD"/>
<path d="M43.0801 133.341L52.4351 138.557L52.5396 108.855L48.0973 111.464L45.0661 106.779L43.0801 133.341Z" fill="#5BC6F9"/>
<path d="M69.4199 98.7419L70.9355 126.794L52.4346 138.557L52.5391 108.855L69.4199 98.7419Z" fill="#50AEDB"/>
<path d="M55.8844 108.589C55.8322 91.5559 56.3548 82.986 57.3478 82.9327C58.3408 82.8795 59.8041 90.5445 61.7901 106.034" stroke="white" stroke-miterlimit="10"/>
<path d="M59.0203 82.6134C56.8252 82.6666 55.4141 84.3167 55.2574 84.5297C54.1076 85.9136 53.8463 87.8299 54.3689 89.4267C54.5257 89.959 55.0483 91.1833 56.3549 92.035C56.6162 92.1947 58.2363 93.206 60.1178 92.6205C61.6334 92.1414 62.3651 90.9172 63.0445 89.7993C63.7239 88.6815 64.0897 87.6169 64.2465 86.8717C63.4626 84.3167 61.2675 82.6134 59.0203 82.6134Z" fill="#FFCEA9"/>
<path d="M55.9368 109.441C56.3409 109.441 56.6684 109.107 56.6684 108.696C56.6684 108.284 56.3409 107.95 55.9368 107.95C55.5327 107.95 55.2051 108.284 55.2051 108.696C55.2051 109.107 55.5327 109.441 55.9368 109.441Z" fill="white"/>
<path d="M61.7385 106.407C62.1426 106.407 62.4702 106.073 62.4702 105.661C62.4702 105.25 62.1426 104.916 61.7385 104.916C61.3344 104.916 61.0068 105.25 61.0068 105.661C61.0068 106.073 61.3344 106.407 61.7385 106.407Z" fill="white"/>
<defs>
<filter id="filter0_f" x="0" y="114" width="101.614" height="84.4854" filterUnits="userSpaceOnUse" color-interpolation-filters="sRGB">
<feFlood flood-opacity="0" result="BackgroundImageFix"/>
<feBlend mode="normal" in="SourceGraphic" in2="BackgroundImageFix" result="shape"/>
<feGaussianBlur stdDeviation="15" result="effect1_foregroundBlur"/>
</filter>
</defs>
</svg>
