<?xml version="1.0" encoding="UTF-8" standalone="no"?>
<svg
   xmlns:dc="http://purl.org/dc/elements/1.1/"
   xmlns:cc="http://creativecommons.org/ns#"
   xmlns:rdf="http://www.w3.org/1999/02/22-rdf-syntax-ns#"
   xmlns:svg="http://www.w3.org/2000/svg"
   xmlns="http://www.w3.org/2000/svg"
   width="330.37033"
   height="254.33966"
   viewBox="0 0 330.37033 254.33966"
   fill="none"
   version="1.1"
   id="svg84">
  <metadata
     id="metadata90">
    <rdf:RDF>
      <cc:Work
         rdf:about="">
        <dc:format>image/svg+xml</dc:format>
        <dc:type
           rdf:resource="http://purl.org/dc/dcmitype/StillImage" />
        <dc:title></dc:title>
      </cc:Work>
    </rdf:RDF>
  </metadata>
  <defs
     id="defs88" />
  <path
     d="m 111.6845,201.0787 h -7.806 v 43.785 h 7.806 z"
     fill="#777777"
     id="path2" />
  <path
     d="m 259.9915,201.0787 h -7.806 v 43.785 h 7.806 z"
     fill="#777777"
     id="path4" />
  <path
     d="M 310.5925,47.1587 H 53.2773 v 157.95 h 257.3152 z"
     fill="#777777"
     id="path6" />
  <path
     d="M 298.4795,57.9037 H 65.6585 v 136.728 h 232.821 z"
     fill="#ffffff"
     id="path8" />
  <path
     d="M 227.6905,181.7377 H 80.9995 c 0,0 0.808,-55.067 18.842,-63.125 18.033,-8.059 30.145,31.965 38.489,32.503 8.344,0.537 7.806,-32.772 20.187,-37.607 31.761,-12.625 28.261,37.338 34.183,36.801 5.921,-0.537 11.035,-46.203 19.11,-46.203 19.649,0 15.88,77.631 15.88,77.631 z"
     fill="#e4e5ec"
     id="path10" />
  <path
     d="M 227.6905,181.7387 H 80.9995 c 0,0 3.769,-47.009 21.802,-55.067 18.034,-8.059 25.839,30.085 34.452,30.622 8.344,0.538 16.419,-26.324 29.608,-27.399 13.189,-1.074 22.34,31.16 27.992,30.623 5.922,-0.537 8.882,-51.307 16.957,-51.307 15.88,0 15.88,72.528 15.88,72.528 z"
     fill="#5bc6f9"
     id="path12" />
  <path
     d="M 227.6905,181.7387 H 80.9995 c 0,0 4.845,-23.37 22.879,-31.16 18.033,-8.059 27.454,13.968 36.067,14.505 8.344,0.537 11.843,-31.429 25.301,-32.503 13.189,-1.075 5.921,38.413 26.916,38.413 15.342,0 12.919,-32.503 20.994,-32.503 15.611,0 14.534,43.248 14.534,43.248 z"
     fill="#98daf9"
     id="path14" />
  <path
     d="m 288.5215,101.6897 h -43.604 v 7.521 h 43.604 z"
     fill="#e4e5ec"
     id="path16" />
  <path
     d="m 288.5215,118.6127 h -43.604 v 7.521 h 43.604 z"
     fill="#e4e5ec"
     id="path18" />
  <path
     d="m 288.5215,135.5347 h -43.604 v 7.522 h 43.604 z"
     fill="#01c7e2"
     id="path20" />
  <path
     d="m 288.5215,152.4587 h -43.604 v 7.521 h 43.604 z"
     fill="#e4e5ec"
     id="path22" />
  <path
     d="m 288.5215,169.3817 h -43.604 v 7.521 h 43.604 z"
     fill="#5fcf90"
     id="path24" />
  <path
     d="m 85.0375,65.9627 h -8.075 v 8.059 h 8.075 z"
     fill="#01c7e2"
     id="path26" />
  <path
     d="m 128.6405,65.9627 h -36.067 v 8.059 h 36.067 z"
     fill="#e4e5ec"
     id="path28" />
  <path
     d="m 85.0375,79.3937 h -8.075 v 8.059 h 8.075 z"
     fill="#01c7e2"
     id="path30" />
  <path
     d="m 128.6405,79.3937 h -36.067 v 8.059 h 36.067 z"
     fill="#e4e5ec"
     id="path32" />
  <path
     d="m 85.0375,92.5557 h -8.075 v 8.059 h 8.075 z"
     fill="#01c7e2"
     id="path34" />
  <path
     d="m 128.6405,92.5557 h -36.067 v 8.059 h 36.067 z"
     fill="#e4e5ec"
     id="path36" />
  <path
     d="m 256.7755,65.9627 h -113.046 v 11.013 h 113.046 z"
     fill="#e4e5ec"
     id="path38" />
  <path
     d="m 288.5325,90.0307 h -144.803 v 8.575 h 144.803 z"
     fill="#e4e5ec"
     id="path40" />
  <path
     d="m 118.1455,239.4917 h -20.726 v 7.79 h 20.726 z"
     fill="#777777"
     id="path42" />
  <path
     d="m 266.4495,239.4917 h -20.725 v 7.79 h 20.725 z"
     fill="#777777"
     id="path44" />
  <path
     d="m 270.8645,68.1117 c 2.961,0.269 5.383,1.343 5.383,4.298 h -4.844 c 0,-1.075 -1.077,-1.343 -1.885,-1.343 -0.538,0 -1.884,0 -1.884,0.806 0,1.88 8.613,0 8.883,5.372 0,3.224 -2.423,4.567 -5.653,4.835 l 0.269,3.492 h -2.96 l 0.269,-3.492 c -2.961,-0.268 -5.652,-1.611 -5.652,-4.566 h 4.844 c 0,1.343 1.615,1.611 2.154,1.611 0.807,0 2.153,0 2.153,-1.074 0,-2.149 -8.613,0 -8.882,-5.372 0,-2.955 2.422,-4.298 5.383,-4.567 l -0.269,-3.492 h 2.96 z"
     fill="#01c7e2"
     id="path46" />
  <path
     d="m 289.1675,72.6777 -4.307,-8.595 -4.575,8.595 h 3.23 v 12.894 h 2.691 v -12.894 z"
     fill="#5fcf90"
     id="path48" />
  <path
     d="m 294.7125,119.1497 c 0,0 -4.307,2.418 -7.806,9.402 -3.499,6.984 -5.652,10.745 -6.191,10.476 -1.884,-1.612 -6.729,-5.641 -13.996,-16.923 -0.807,-1.343 0,-2.149 0,-3.224 0,-1.074 1.346,-3.492 1.077,-4.298 -0.269,-0.805 -1.077,-0.537 -2.153,1.075 -0.808,1.612 -0.539,2.686 -1.346,2.149 -0.808,-0.537 -2.423,-2.686 -2.961,-3.492 -0.538,-0.806 -2.153,-2.686 -2.692,-2.418 -0.538,0.269 -0.538,0.806 2.154,4.298 -0.808,-1.343 -3.23,-4.298 -4.038,-3.492 -0.538,0.537 1.615,3.223 2.692,4.567 -0.808,-1.075 -2.961,-3.224 -3.499,-2.418 -0.808,0.806 3.499,4.029 3.499,4.029 0,0 -3.23,-2.417 -3.499,-1.88 -0.538,0.806 1.346,2.418 3.23,3.492 1.884,1.075 2.153,1.343 2.96,1.612 0.539,0.268 1.346,1.343 1.615,2.149 0,0 13.189,28.205 18.034,25.787 4.845,-2.686 11.035,-11.819 11.035,-11.819 0,0 1.885,-2.955 2.423,-7.253 0.807,-3.76 0.269,-9.401 -0.538,-11.819 z"
     fill="#ffcea9"
     id="path50" />
  <path
     d="m 284.2145,131.2377 c 1.077,-2.149 6.46,-13.431 10.497,-15.043 l 5.384,2.149 c 2.422,2.955 -0.539,9.67 -1.615,10.476 -0.808,0.538 -4.845,8.596 -5.653,9.671 -5.114,-3.761 -8.613,-7.253 -8.613,-7.253 z"
     fill="#5fcf90"
     id="path52" />
  <path
     d="m 304.4025,100.0777 7.537,1.074 c 0,0 -2.154,6.716 1.076,12.357 0,0 -5.383,5.909 -9.151,4.298 -4.037,-1.612 -2.422,-5.641 -2.422,-5.641 0,0 4.037,-2.955 2.96,-12.088 z"
     fill="#ffcea9"
     id="path54" />
  <path
     d="m 319.4745,241.6407 c 0,0 2.153,8.059 0.807,9.402 -1.077,1.343 -18.303,4.298 -19.918,2.955 -1.615,-1.343 -1.076,-4.03 2.423,-5.373 3.768,-1.611 5.652,-0.805 8.075,-2.149 2.153,-1.343 1.076,-5.103 1.076,-5.103 z"
     fill="#000000"
     id="path56" />
  <path
     d="m 298.2125,240.2977 c 0,0 0.538,10.208 -1.077,11.282 -1.346,1.075 -18.572,1.343 -19.918,-0.269 -1.345,-1.611 -0.538,-3.76 2.961,-4.566 3.23,-0.806 5.383,0 7.806,-1.075 2.153,-0.805 3.23,-5.641 3.23,-5.641 z"
     fill="#000000"
     id="path58" />
  <path
     d="m 290.9425,155.4137 22.071,-4.029 c 0,0 -8.344,45.665 -9.421,50.769 -1.076,5.372 -4.306,40.024 -4.306,40.024 l -9.69,-1.074 c 0,0 0,-37.876 0.538,-41.099 0.539,-3.492 0.808,-44.591 0.808,-44.591 z"
     fill="#d0d1de"
     id="path60" />
  <path
     d="m 299.2865,173.6797 c -1.076,-7.253 -0.269,-12.625 -1.884,-16.117 -0.538,-1.343 -2.691,-1.075 -3.23,-2.418 0.269,-0.268 0.539,-0.806 0.808,-1.074 l 18.303,-2.686 c 0,0 -8.344,39.218 -10.498,48.889 0,-0.269 -2.691,-20.953 -3.499,-26.594 z"
     fill="#b6b7bb"
     id="path62" />
  <path
     d="m 300.3315,153.2667 17.764,4.567 c 0,0 2.422,6.447 1.077,14.774 -1.346,9.939 -1.615,25.519 -1.885,27.399 -0.269,2.149 3.23,35.458 3.5,43.517 l -9.421,0.537 c 0,0 -7.267,-41.905 -7.806,-42.711 -0.538,-1.074 -3.229,-48.083 -3.229,-48.083 z"
     fill="#d0d1de"
     id="path64" />
  <path
     d="m 292.0205,137.6847 c 0.269,-7.522 -1.615,-18.804 2.691,-21.49 3.769,-2.149 6.729,-4.029 6.729,-4.029 0,0 1.077,2.686 3.768,2.955 2.692,0.268 6.729,-3.493 6.729,-3.493 0,0 4.845,2.955 9.152,4.836 -1.077,3.492 1.076,6.715 1.076,9.939 0,2.149 0.27,3.76 0.808,5.641 -1.884,3.76 -3.499,7.521 -3.768,10.207 -1.077,6.716 2.153,17.192 2.153,17.192 0,0 -6.998,1.612 -16.419,2.418 -5.114,0.537 -11.035,-0.538 -16.149,-1.881 -0.269,0 2.961,-14.774 3.23,-22.295 z"
     fill="#5fcf90"
     id="path66" />
  <path
     d="m 322.9725,132.0437 c -0.269,-0.537 -0.269,-1.075 -0.269,-1.612 0,-0.269 -0.269,-0.806 -0.269,-1.074 0,-0.806 -0.269,-1.881 -0.269,-2.955 0,-1.612 0,-3.492 0,-5.373 -0.808,0.538 -1.884,2.149 -2.961,1.612 -5.114,-2.955 -5.922,10.745 -5.922,17.46 0,6.985 -0.269,14.775 -2.96,21.221 6.46,-0.805 11.035,-1.88 11.035,-1.88 0,0 -0.538,-1.343 -0.807,-3.761 -0.269,-1.074 -0.539,-2.417 -0.808,-3.76 0,-0.538 -0.269,-0.806 -0.269,-1.343 -0.269,-1.343 -0.269,-2.955 -0.538,-4.298 0,-1.343 0,-2.955 0.269,-4.03 0.269,-2.686 2.153,-6.447 3.768,-10.207 z"
     fill="#5abc85"
     id="path68" />
  <path
     d="m 311.6685,87.7207 c 0,0 -10.766,-1.612 -12.112,-0.537 -1.346,1.074 -1.346,5.641 -1.346,9.133 0,3.761 -1.615,10.745 2.692,12.088 4.306,1.343 12.65,-2.686 15.342,-9.939 4.037,-9.402 -3.768,-10.745 -4.576,-10.745 z"
     fill="#ffcea9"
     id="path70" />
  <path
     d="m 313.5535,86.9147 c 0,0 -5.114,0.269 -5.922,7.79 -0.538,3.492 -1.345,6.179 -0.269,6.447 1.077,0.269 2.153,-0.537 2.153,-1.611 0,-1.075 0.27,-4.298 2.423,-3.492 2.153,0.805 1.346,4.835 -1.346,5.909 0,0 -0.538,2.149 1.615,3.492 0,0 5.383,-3.492 6.191,-9.401 0.807,-5.91 -1.615,-9.402 -4.845,-9.134 z"
     fill="#3a2c6d"
     id="path72" />
  <path
     d="m 315.7075,87.4527 c 0,0 -1.346,-4.835 -6.998,-5.104 -5.652,-0.269 -10.228,2.955 -12.919,7.521 0,0 1.614,2.687 7.536,2.955 2.422,0.269 6.729,-0.537 8.882,-1.612 2.961,-1.611 3.499,-3.76 3.499,-3.76 z"
     fill="#3a2c6d"
     id="path74" />
  <path
     d="m 330.2405,150.0417 c -0.269,-1.612 -1.884,-12.088 -2.692,-15.849 -3.229,1.074 -6.459,2.149 -9.958,3.223 1.076,2.418 3.499,11.551 3.768,13.969 0.269,3.492 -1.077,18.803 -1.615,24.176 0,0.537 0,0.805 0,1.074 -0.269,0.806 -0.539,2.149 -1.346,3.224 -0.807,1.074 -3.499,4.029 -2.961,5.641 0.539,1.343 2.692,-1.075 3.499,-1.881 0.808,-0.806 0.808,2.149 0.808,3.492 -0.269,1.612 -3.23,4.03 -2.961,5.104 0.269,0.806 1.077,0.269 2.423,-1.074 -0.539,0.805 -1.077,1.611 -0.808,1.88 0.538,0.269 1.077,-0.269 2.153,-1.075 -0.538,0.806 -0.807,1.344 -0.538,1.612 0.538,0.269 1.346,-0.537 2.153,-1.343 -0.538,0.537 -0.807,1.343 -0.538,1.343 0.538,0.269 2.422,-1.343 2.961,-3.492 0.538,-1.88 -0.808,-6.715 -1.346,-9.402 -0.269,-0.805 0,-1.611 0.269,-2.417 1.884,-4.567 7.806,-23.102 6.729,-28.205 z"
     fill="#ffcea9"
     id="path76" />
  <path
     d="m 317.8605,140.9077 c 3.499,-0.537 8.075,-1.88 12.112,-3.492 -0.807,-6.447 -3.23,-15.311 -6.459,-18.803 -0.808,-1.075 -2.692,-2.687 -4.038,-2.149 -1.884,0.806 -4.575,3.492 -4.845,8.596 0,1.343 1.077,8.864 1.884,11.282 0.539,0.806 0.808,2.954 1.346,4.566 z"
     fill="#5fcf90"
     id="path78" />
  <path
     d="m 133.0045,66.4517 c 0,36.7 -47.195,140.19 -66.502,183.062 C 47.195,206.6417 0,103.1517 0,66.4517 0,29.7517 29.774,0 66.5025,0 c 36.728,0 66.502,29.7517 66.502,66.4517 z"
     fill="#5fcf90"
     id="path80" />
  <ellipse
     cx="66.502502"
     cy="66.451706"
     rx="34.752701"
     ry="34.7262"
     fill="#ffffff"
     id="ellipse82" />
</svg>
