<svg width="234" height="168" viewBox="0 0 234 168" fill="none" xmlns="http://www.w3.org/2000/svg">
<g filter="url(#filter0_d)">
<path d="M157.996 148.835L208.375 119.013C212.643 116.487 212.105 112.076 207.163 109.16L85.487 37.161C80.5566 34.2616 73.1044 33.9303 68.8368 36.4527L18.4578 66.2745C14.1902 68.7969 14.7236 73.208 19.6702 76.1239L141.346 148.127C146.276 151.043 153.729 151.362 157.996 148.835Z" fill="#B1B4C4"/>
<path d="M211.257 114.685V109.93L205.817 112.034L211.257 114.685Z" fill="#B1B4C4"/>
<path d="M15.5722 70.3831V65.8105L19.9004 68.6684L15.5722 70.3831Z" fill="#B1B4C4"/>
<path d="M157.996 144.813L208.375 114.992C212.643 112.469 212.105 108.058 207.163 105.142L85.4869 33.1391C80.5565 30.2398 73.1043 29.9043 68.8367 32.4308L18.4577 62.2526C14.1901 64.7792 14.7235 69.1903 19.6701 72.1062L141.346 144.105C146.276 147.021 153.729 147.336 157.996 144.813Z" fill="#616E84"/>
<path d="M202.297 121.102C202.038 120.949 202.037 120.453 202.295 119.996C202.552 119.538 202.971 119.291 203.23 119.445C203.489 119.598 203.49 120.093 203.232 120.551C202.975 121.008 202.556 121.255 202.297 121.102Z" fill="#757B89"/>
<path d="M199.875 122.54C199.616 122.387 199.615 121.892 199.873 121.434C200.13 120.977 200.549 120.73 200.808 120.883C201.067 121.036 201.068 121.532 200.811 121.989C200.553 122.447 200.134 122.693 199.875 122.54Z" fill="#757B89"/>
<path d="M197.443 123.972C197.184 123.818 197.183 123.323 197.441 122.866C197.699 122.408 198.118 122.161 198.377 122.314C198.636 122.468 198.637 122.963 198.379 123.421C198.121 123.878 197.702 124.125 197.443 123.972Z" fill="#757B89"/>
<path d="M195.022 125.41C194.763 125.257 194.762 124.761 195.02 124.304C195.278 123.846 195.697 123.6 195.956 123.753C196.215 123.906 196.216 124.401 195.958 124.859C195.7 125.317 195.281 125.563 195.022 125.41Z" fill="#757B89"/>
<path d="M174.026 138.275C173.766 138.122 173.765 137.625 174.023 137.165C174.281 136.705 174.701 136.456 174.96 136.608C175.219 136.761 175.221 137.258 174.962 137.718C174.704 138.178 174.285 138.427 174.026 138.275Z" fill="#757B89"/>
<path d="M171.777 139.165C171.518 139.011 171.517 138.516 171.775 138.059C172.033 137.601 172.452 137.354 172.711 137.508C172.97 137.661 172.971 138.156 172.713 138.614C172.455 139.071 172.036 139.318 171.777 139.165Z" fill="#757B89"/>
<path d="M169.351 140.602C169.092 140.449 169.091 139.953 169.349 139.496C169.607 139.038 170.026 138.791 170.285 138.945C170.544 139.098 170.545 139.593 170.287 140.051C170.029 140.508 169.61 140.755 169.351 140.602Z" fill="#757B89"/>
<path d="M166.929 142.034C166.67 141.881 166.669 141.386 166.926 140.928C167.184 140.471 167.603 140.224 167.862 140.377C168.121 140.53 168.122 141.026 167.864 141.483C167.607 141.941 167.188 142.188 166.929 142.034Z" fill="#757B89"/>
<path d="M181.743 133.754L188.403 129.816C188.876 129.472 189.159 128.917 189.167 128.32C189.167 127.74 188.828 127.492 188.403 127.728L181.743 131.667C181.27 132.015 180.987 132.57 180.979 133.166C180.979 133.742 181.319 134.007 181.743 133.754Z" fill="#757B89"/>
<path d="M30.82 81.6987L37.0153 85.3643C37.4194 85.5963 37.7266 85.3643 37.7266 84.8135C37.7185 84.2626 37.4518 83.7449 37.0153 83.4259L30.82 79.7603C30.4159 79.5284 30.1128 79.7603 30.1128 80.3112C30.1209 80.8621 30.3835 81.3757 30.82 81.6987Z" fill="#757B89"/>
<path d="M40.3092 87.3153L46.5045 90.9809C46.9087 91.2129 47.2158 90.9809 47.2158 90.43C47.2077 89.875 46.945 89.3614 46.5045 89.0384L40.3092 85.3645C39.9051 85.1326 39.602 85.3645 39.602 85.9154C39.6061 86.4704 39.8687 86.9923 40.3092 87.3153Z" fill="#757B89"/>
<path d="M157.996 144.08L208.375 114.258C212.643 111.732 212.105 107.321 207.163 104.405L85.4869 32.406C80.5565 29.5066 73.1043 29.1753 68.8367 31.6977L18.4577 61.5194C14.1901 64.0419 14.7235 68.453 19.6701 71.3689L141.346 143.372C146.276 146.288 153.729 146.607 157.996 144.08Z" fill="#20232D"/>
<path d="M23.8609 62.6998L43.53 51.061L43.5785 51.09C45.9022 52.4651 49.6687 52.4651 51.9925 51.09C54.3162 49.7149 54.3162 47.4824 51.9925 46.1197L51.944 46.0949L71.6131 34.4561C74.5996 32.6875 79.4451 32.6875 82.4316 34.4561L200.959 104.579C203.946 106.343 203.946 109.209 200.959 110.978L153.211 139.234C150.221 141.003 145.379 141.003 142.393 139.234L23.8609 69.0991C20.8744 67.3305 20.8744 64.4643 23.8609 62.6998Z" fill="white"/>
<path opacity="0.5" d="M23.8611 69.0993L142.389 139.234C145.088 140.833 149.312 140.982 152.302 139.69C152.613 139.557 152.912 139.408 153.203 139.234L200.955 110.978C201.614 110.614 202.188 110.104 202.633 109.487C203.76 107.83 203.202 105.904 200.955 104.579L82.4318 34.4398C79.4453 32.6753 74.6038 32.6753 71.6132 34.4398L51.9442 46.0827L51.9927 46.1117C54.3164 47.4868 54.3164 49.711 51.9927 51.082C49.6689 52.4529 45.8984 52.4612 43.5787 51.082L43.5342 51.0571L23.8611 62.6959C20.8746 64.4686 20.8746 67.3307 23.8611 69.0993Z" fill="url(#paint0_linear)"/>
<path d="M49.0788 50.7007C47.8311 50.7007 46.8196 50.1017 46.8196 49.3629C46.8196 48.624 47.8311 48.025 49.0788 48.025C50.3264 48.025 51.3379 48.624 51.3379 49.3629C51.3379 50.1017 50.3264 50.7007 49.0788 50.7007Z" fill="#2B303F"/>
<path opacity="0.1" d="M49.7457 49.744C49.9599 49.6818 50.0812 49.4499 50.0205 49.2304C49.9801 49.0937 49.8791 48.9901 49.7457 48.9487C49.3254 48.7333 48.8283 48.7333 48.408 48.9487C48.1938 49.0108 48.0726 49.2428 48.1332 49.4623C48.1736 49.599 48.2747 49.7025 48.408 49.744C48.8324 49.9593 49.3254 49.9593 49.7457 49.744Z" fill="white"/>
<path d="M73.9975 88.363L116.152 63.4122C118.601 61.9625 118.294 59.4318 115.465 57.7585L87.1035 40.9837C84.2745 39.327 79.9908 39.124 77.5417 40.5696L35.3747 65.5204C32.9257 66.9701 33.2328 69.5008 36.0617 71.1783L64.4196 87.9571C67.2687 89.6305 71.5485 89.8127 73.9975 88.363Z" fill="#E9EAF2"/>
<path d="M72.648 59.3904L87.8272 61.7969L85.3903 56.4165L109.186 60.1898L102.534 64.1246L91.7675 70.4949L80.6539 77.0723L72.648 59.3904Z" fill="#DADCE5"/>
<path d="M53.1448 71.5512C48.9867 71.5512 45.6158 69.5559 45.6158 67.0945C45.6158 64.6331 48.9867 62.6378 53.1448 62.6378C57.303 62.6378 60.6738 64.6331 60.6738 67.0945C60.6738 69.5559 57.303 71.5512 53.1448 71.5512Z" fill="#DADCE5"/>
<path d="M117.038 113.828L159.192 88.8849C161.641 87.4352 161.334 84.9045 158.505 83.227L130.152 66.4482C127.323 64.7914 123.039 64.5926 120.59 66.034L78.4349 90.9766C75.9859 92.4304 76.293 94.9611 79.1219 96.6344L107.48 113.413C110.309 115.099 114.584 115.277 117.038 113.828Z" fill="#E9EAF2"/>
<path d="M122.162 122.111L150.52 138.886C151.086 139.218 151.68 139.491 152.302 139.69C152.613 139.557 152.913 139.408 153.204 139.234L200.956 110.978C201.614 110.614 202.188 110.104 202.633 109.487C202.297 109.185 201.934 108.919 201.546 108.696L173.184 91.9169C170.355 90.2602 166.071 90.0614 163.622 91.5027L121.455 116.454C119.03 117.903 119.333 120.434 122.162 122.111Z" fill="#E9EAF2"/>
<path d="M158.728 110.323L173.907 112.73L171.47 107.35L195.266 111.123L188.61 115.062L177.848 121.432L166.734 128.005L158.728 110.323Z" fill="#DADCE5"/>
<path d="M139.225 122.488C135.067 122.488 131.696 120.493 131.696 118.032C131.696 115.57 135.067 113.575 139.225 113.575C143.383 113.575 146.754 115.57 146.754 118.032C146.754 120.493 143.383 122.488 139.225 122.488Z" fill="#DADCE5"/>
<path d="M40.9803 59.0012L41.833 58.4959L40.4065 57.6509L39.5538 58.1562L40.9803 59.0012Z" fill="#E9EAF2"/>
<path d="M39.8366 59.6762L40.6934 59.1708L38.6969 57.9904L37.8402 58.4957L39.8366 59.6762Z" fill="#E9EAF2"/>
<path d="M38.6969 60.3515L39.5537 59.8462L36.7005 58.1563L35.8437 58.6616L38.6969 60.3515Z" fill="#E9EAF2"/>
<path d="M37.5574 61.0266L38.4102 60.5213L34.4173 58.1563L33.5606 58.6616L37.5574 61.0266Z" fill="#E9EAF2"/>
<path d="M33.8472 63.2219L35.1768 62.4349L32.5176 60.8569L31.184 61.6438L33.8472 63.2219Z" fill="#E9EAF2"/>
<path d="M32.0728 64.2697L33.4023 63.4827L30.7391 61.9088L29.4095 62.6957L32.0728 64.2697Z" fill="#E9EAF2"/>
<path d="M30.2993 65.3216L31.6289 64.5347L28.9657 62.9566L27.6362 63.7477L30.2993 65.3216Z" fill="#E9EAF2"/>
<path opacity="0.05" d="M119.099 95.5412C112.224 95.5412 106.651 92.2441 106.651 88.1769C106.651 84.1097 112.224 80.8126 119.099 80.8126C125.973 80.8126 131.546 84.1097 131.546 88.1769C131.546 92.2441 125.973 95.5412 119.099 95.5412Z" fill="black"/>
</g>
<path opacity="0.4" d="M163.964 152.305L214.343 122.484C218.61 119.961 218.077 115.55 213.13 112.634L91.4503 40.6311C86.5199 37.7318 79.0677 37.3963 74.8001 39.9229L24.4211 69.7446C20.1535 72.2712 20.6909 76.6823 25.6335 79.5982L147.309 151.593C152.244 154.513 159.696 154.828 163.964 152.305Z" fill="#D6D8E5"/>
<path d="M157.582 148.38L207.961 118.558C212.229 116.032 211.691 111.62 206.749 108.705L85.0729 36.7057C80.1425 33.8063 72.6903 33.475 68.4227 35.9974L18.0437 65.8192C13.7761 68.3416 14.3095 72.7527 19.2561 75.6686L140.932 147.672C145.862 150.588 153.314 150.906 157.582 148.38Z" fill="#B1B4C4"/>
<path d="M210.843 114.23V109.475L205.403 111.579L210.843 114.23Z" fill="#B1B4C4"/>
<path d="M15.158 69.9278V65.3552L19.4863 68.2131L15.158 69.9278Z" fill="#B1B4C4"/>
<path d="M157.582 144.358L207.961 114.536C212.229 112.014 211.691 107.603 206.749 104.687L85.0729 32.6838C80.1425 29.7845 72.6903 29.449 68.4227 31.9756L18.0437 61.7973C13.7761 64.3239 14.3095 68.735 19.2561 71.6509L140.932 143.65C145.862 146.566 153.314 146.88 157.582 144.358Z" fill="#616E84"/>
<path d="M201.883 120.647C201.624 120.493 201.623 119.998 201.88 119.54C202.138 119.083 202.557 118.836 202.816 118.989C203.075 119.143 203.076 119.638 202.818 120.095C202.561 120.553 202.142 120.8 201.883 120.647Z" fill="#757B89"/>
<path d="M199.461 122.085C199.202 121.932 199.201 121.436 199.459 120.979C199.716 120.521 200.135 120.274 200.394 120.428C200.653 120.581 200.654 121.076 200.397 121.534C200.139 121.991 199.72 122.238 199.461 122.085Z" fill="#757B89"/>
<path d="M197.029 123.516C196.77 123.363 196.769 122.868 197.027 122.41C197.285 121.953 197.704 121.706 197.963 121.859C198.222 122.012 198.223 122.508 197.965 122.965C197.707 123.423 197.288 123.67 197.029 123.516Z" fill="#757B89"/>
<path d="M194.608 124.955C194.349 124.801 194.348 124.306 194.606 123.849C194.864 123.391 195.283 123.144 195.542 123.298C195.801 123.451 195.802 123.946 195.544 124.404C195.286 124.861 194.867 125.108 194.608 124.955Z" fill="#757B89"/>
<path d="M173.612 137.819C173.352 137.667 173.351 137.17 173.609 136.71C173.867 136.25 174.287 136 174.546 136.153C174.805 136.306 174.806 136.803 174.548 137.263C174.29 137.723 173.871 137.972 173.612 137.819Z" fill="#757B89"/>
<path d="M171.363 138.709C171.104 138.556 171.103 138.061 171.361 137.603C171.619 137.146 172.038 136.899 172.297 137.052C172.556 137.206 172.557 137.701 172.299 138.158C172.041 138.616 171.622 138.863 171.363 138.709Z" fill="#757B89"/>
<path d="M168.937 140.147C168.678 139.993 168.677 139.498 168.935 139.04C169.193 138.583 169.612 138.336 169.871 138.489C170.13 138.643 170.131 139.138 169.873 139.595C169.615 140.053 169.196 140.3 168.937 140.147Z" fill="#757B89"/>
<path d="M166.514 141.579C166.255 141.426 166.254 140.931 166.512 140.473C166.77 140.015 167.189 139.769 167.448 139.922C167.707 140.075 167.708 140.57 167.45 141.028C167.192 141.486 166.773 141.732 166.514 141.579Z" fill="#757B89"/>
<path d="M181.329 133.299L187.989 129.36C188.462 129.016 188.745 128.461 188.753 127.865C188.753 127.285 188.413 127.036 187.989 127.273L181.329 131.212C180.856 131.559 180.573 132.114 180.565 132.711C180.565 133.287 180.905 133.552 181.329 133.299Z" fill="#757B89"/>
<path d="M30.4059 81.2436L36.6012 84.9092C37.0054 85.1411 37.3125 84.9092 37.3125 84.3583C37.3044 83.8074 37.0377 83.2897 36.6012 82.9708L30.4059 79.3052C30.0018 79.0732 29.6987 79.3052 29.6987 79.8561C29.7068 80.4069 29.9695 80.9205 30.4059 81.2436Z" fill="#757B89"/>
<path d="M39.8952 86.86L46.0905 90.5256C46.4946 90.7576 46.8018 90.5256 46.8018 89.9748C46.7937 89.4197 46.531 88.9061 46.0905 88.5831L39.8952 84.9092C39.4911 84.6772 39.188 84.9092 39.188 85.4601C39.192 86.0151 39.4547 86.537 39.8952 86.86Z" fill="#757B89"/>
<path d="M157.582 143.625L207.961 113.803C212.229 111.277 211.691 106.865 206.749 103.95L85.0729 31.9507C80.1425 29.0513 72.6903 28.72 68.4227 31.2424L18.0437 61.0641C13.7761 63.5866 14.3095 67.9977 19.2561 70.9136L140.932 142.917C145.862 145.833 153.314 146.151 157.582 143.625Z" fill="#20232D"/>
<path d="M23.4469 62.2445L43.1159 50.6057L43.1644 50.6347C45.4882 52.0099 49.2547 52.0099 51.5784 50.6347C53.9022 49.2596 53.9022 47.0271 51.5784 45.6644L51.5299 45.6396L71.199 34.0008C74.1856 32.2322 79.0311 32.2322 82.0176 34.0008L200.545 104.123C203.532 105.888 203.532 108.754 200.545 110.523L152.797 138.779C149.807 140.547 144.965 140.547 141.979 138.779L23.4469 68.6438C20.4604 66.8752 20.4604 64.009 23.4469 62.2445Z" fill="white"/>
<path opacity="0.5" d="M23.447 68.644L141.975 138.779C144.674 140.378 148.897 140.527 151.888 139.235C152.199 139.102 152.498 138.953 152.789 138.779L200.541 110.523C201.2 110.158 201.774 109.649 202.219 109.032C203.346 107.375 202.788 105.449 200.541 104.124L82.0178 33.9845C79.0312 32.22 74.1898 32.22 71.1992 33.9845L51.5301 45.6274L51.5786 45.6564C53.9024 47.0315 53.9024 49.2557 51.5786 50.6267C49.2548 51.9976 45.4843 52.0059 43.1646 50.6267L43.1201 50.6018L23.447 62.2406C20.4605 64.0133 20.4605 66.8754 23.447 68.644Z" fill="url(#paint1_linear)"/>
<path d="M48.6647 50.2454C47.417 50.2454 46.4056 49.6464 46.4056 48.9076C46.4056 48.1687 47.417 47.5697 48.6647 47.5697C49.9124 47.5697 50.9238 48.1687 50.9238 48.9076C50.9238 49.6464 49.9124 50.2454 48.6647 50.2454Z" fill="#2B303F"/>
<path opacity="0.1" d="M49.3317 49.2887C49.5458 49.2265 49.6671 48.9946 49.6065 48.7751C49.5661 48.6384 49.465 48.5348 49.3317 48.4934C48.9114 48.278 48.4143 48.278 47.994 48.4934C47.7798 48.5555 47.6586 48.7875 47.7192 49.007C47.7596 49.1437 47.8606 49.2472 47.994 49.2887C48.4183 49.504 48.9114 49.504 49.3317 49.2887Z" fill="white"/>
<path opacity="0.05" d="M118.685 95.0859C111.81 95.0859 106.237 91.7888 106.237 87.7216C106.237 83.6544 111.81 80.3573 118.685 80.3573C125.559 80.3573 131.132 83.6544 131.132 87.7216C131.132 91.7888 125.559 95.0859 118.685 95.0859Z" fill="black"/>
<path d="M86.8842 46.2362L134.463 18.0878C135.388 17.4293 136.556 17.2387 137.631 17.5742C137.837 17.6571 138.027 17.7689 138.197 17.9097L143.503 21.0244L139.397 25.9657V46.3025C139.211 49.8646 137.38 53.1242 134.471 55.0834L119.647 64.6305L115.622 74.0823L119.853 81.4466L113.949 78.0047L108.348 71.3279L90.4769 81.2602L89.507 87.1542L83.4854 83.617L83.3197 83.5259H83.2591C82.3215 82.7596 81.8244 81.5585 81.9376 80.3366V55.0834C82.1073 51.4923 83.9461 48.2036 86.8842 46.2362Z" fill="#5BC6F9"/>
<path opacity="0.2" d="M86.8842 46.2362L134.463 18.0878C135.388 17.4293 136.556 17.2387 137.631 17.5742C137.837 17.6571 138.027 17.7689 138.197 17.9097L143.503 21.0244L139.397 25.9657V46.3025C139.211 49.8646 137.38 53.1242 134.471 55.0834L119.647 64.6305L115.622 74.0823L119.853 81.4466L113.949 78.0047L108.348 71.3279L90.4769 81.2602L89.507 87.1542L83.4854 83.617L83.3197 83.5259H83.2591C82.3215 82.7596 81.8244 81.5585 81.9376 80.3366V55.0834C82.1073 51.4923 83.9461 48.2036 86.8842 46.2362Z" fill="black"/>
<path d="M92.7885 49.6943L140.359 21.55C143.087 19.9347 145.285 21.2476 145.285 24.4783V49.7316C145.099 53.2936 143.269 56.5533 140.359 58.5124L125.527 68.0927L119.837 81.4503L114.236 74.7736L92.7845 86.694C90.0485 88.3093 87.8581 87.0046 87.8581 83.7739V58.5207C88.0238 54.9379 89.8586 51.6576 92.7885 49.6943Z" fill="#5BC6F9"/>
<path d="M129.638 48.5551C128.307 47.767 128.306 45.2123 129.638 42.849C130.969 40.4857 133.128 39.2087 134.46 39.9967C135.792 40.7848 135.792 43.3395 134.46 45.7028C133.129 48.0661 130.97 49.3431 129.638 48.5551Z" fill="white"/>
<path d="M114.34 57.0684C113.003 56.2807 112.998 53.7177 114.329 51.3437C115.661 48.9697 117.824 47.6838 119.161 48.4714C120.498 49.2591 120.503 51.8221 119.172 54.1961C117.84 56.57 115.677 57.856 114.34 57.0684Z" fill="white"/>
<path d="M101.421 65.2638C100.089 64.4758 100.089 61.9211 101.42 59.5578C102.751 57.1945 104.91 55.9175 106.242 56.7055C107.574 57.4936 107.574 60.0483 106.243 62.4116C104.911 64.7749 102.752 66.0519 101.421 65.2638Z" fill="white"/>
<defs>
<filter id="filter0_d" x="-6" y="-9" width="251" height="186.909" filterUnits="userSpaceOnUse" color-interpolation-filters="sRGB">
<feFlood flood-opacity="0" result="BackgroundImageFix"/>
<feColorMatrix in="SourceAlpha" type="matrix" values="0 0 0 0 0 0 0 0 0 0 0 0 0 0 0 0 0 0 127 0" result="hardAlpha"/>
<feOffset dx="-2" dy="4"/>
<feGaussianBlur stdDeviation="6.5"/>
<feColorMatrix type="matrix" values="0 0 0 0 0.356863 0 0 0 0 0.776471 0 0 0 0 0.976471 0 0 0 1 0"/>
<feBlend mode="normal" in2="BackgroundImageFix" result="effect1_dropShadow"/>
<feBlend mode="normal" in="SourceGraphic" in2="effect1_dropShadow" result="shape"/>
</filter>
<linearGradient id="paint0_linear" x1="112.411" y1="140.558" x2="112.411" y2="33.1164" gradientUnits="userSpaceOnUse">
<stop offset="0.21" stop-color="white" stop-opacity="0"/>
<stop offset="1" stop-color="white" stop-opacity="0.2"/>
</linearGradient>
<linearGradient id="paint1_linear" x1="111.997" y1="140.103" x2="111.997" y2="32.6611" gradientUnits="userSpaceOnUse">
<stop offset="0.21" stop-color="white" stop-opacity="0"/>
<stop offset="1" stop-color="white" stop-opacity="0.2"/>
</linearGradient>
</defs>
</svg>
