<svg width="88" height="197" viewBox="0 0 88 197" fill="none" xmlns="http://www.w3.org/2000/svg">
<g clip-path="url(#clip0)">
<rect width="88" height="196.493" fill="white"/>
<path opacity="0.17" d="M58.4009 177.946L15.8475 153.465C13.6107 152.174 13.1633 151.237 14.5054 149.459C15.5801 148.009 18.24 148.27 19.4313 148.569C34.0631 155.987 63.8665 171.181 66.0158 172.606C68.1651 174.032 67.2121 175.573 66.4632 176.168C65.87 176.462 64.2264 177.236 62.432 177.946C61.7932 178.21 61.1082 178.345 60.4165 178.345C59.7247 178.345 59.0398 178.21 58.4009 177.946Z" fill="#C4C4C4"/>
<g filter="url(#filter0_df)">
<rect x="16.3599" y="145" width="59" height="4.62235" rx="2.31118" transform="rotate(30.701 16.3599 145)" fill="#5FCF90"/>
</g>
<path fill-rule="evenodd" clip-rule="evenodd" d="M85.6934 30.9976C88.1402 29.2055 85.1779 21.2466 79.0768 13.2209C72.9758 5.19522 66.0464 0.141887 63.5996 1.93398C63.3945 2.08416 63.2274 2.27765 63.097 2.51087L63.001 2.38087L41.9401 39.4941L84.4168 31.3752L84.4043 31.3582C84.9133 31.3671 85.348 31.2505 85.6934 30.9976Z" fill="url(#paint0_linear)"/>
<path opacity="0.4" d="M59.5776 177.922L12.6965 151.092C12.4266 150.939 12.2034 150.716 12.0504 150.447C11.8974 150.178 11.8204 149.873 11.8273 149.564C11.8343 149.255 11.9251 148.954 12.09 148.692C12.255 148.43 12.4881 148.218 12.7646 148.077L18.663 145.051C18.921 144.921 19.2076 144.856 19.497 144.863C19.7865 144.869 20.0697 144.947 20.3212 145.09L68.7827 172.824C69.0524 172.978 69.2754 173.201 69.4282 173.47C69.581 173.74 69.658 174.045 69.651 174.354C69.6441 174.663 69.5534 174.964 69.3886 175.227C69.2239 175.489 68.991 175.702 68.7146 175.844L64.4355 178.033C63.6817 178.422 62.8414 178.616 61.9922 178.597C61.143 178.577 60.3126 178.345 59.5776 177.922Z" fill="#D6D8E5"/>
<path d="M62.4564 172.877L22.4949 149.947C19.091 148.014 16.363 142.795 16.363 138.31V27.5352C16.363 23.0507 19.1105 20.9872 22.4949 22.9299L62.4564 45.8986C65.8603 47.8316 68.5883 53.0507 68.5883 57.5352V168.296C68.5883 172.756 65.8409 174.81 62.4564 172.877Z" fill="#B1B4C4"/>
<path d="M63.1467 174.868L66.3123 173.278L63.278 168.107L63.1467 174.868Z" fill="#B1B4C4"/>
<path d="M15.76 24.056L18.6728 22.5386L18.0844 26.8056L15.76 24.056Z" fill="#B1B4C4"/>
<path d="M59.9374 174.138L19.9807 151.213C16.5769 149.28 13.8538 144.061 13.8538 139.576V28.8209C13.8538 24.3364 16.5963 22.2729 19.9807 24.2155L59.9374 47.1408C63.3413 49.0738 66.0644 54.2928 66.0644 58.7774V169.538C66.0401 174.022 63.2975 176.081 59.9374 174.138Z" fill="#616E84"/>
<path d="M65.6123 59.0624V169.813C65.6123 174.302 62.8697 176.361 59.4853 174.423L43.8177 165.43L38.955 162.637L19.5286 151.498C16.1247 149.565 13.4016 144.346 13.4016 139.857V29.1059C13.4016 24.6359 16.1442 22.5579 19.5286 24.4958L59.4853 47.421C62.8551 49.3637 65.6123 54.5972 65.6123 59.0624Z" fill="#20232D"/>
<path d="M62.7334 57.9365V165.807C62.7334 168.523 60.7884 169.629 58.4445 168.267L45.962 161.1L44.8728 160.467L44.5032 160.254L41.8044 158.703L33.9901 154.228L30.7467 152.368L29.4289 151.614L20.5496 146.54C18.1815 145.182 16.2656 141.872 16.2656 139.156V31.2854C16.2656 28.5647 18.1815 27.4629 20.5496 28.8208L36.1491 37.7754V37.8189C36.2159 38.9721 36.5554 40.0934 37.1401 41.0918C37.7248 42.0901 38.5381 42.9374 39.5141 43.5647C41.3619 44.6133 42.8596 43.7628 42.8596 41.6317V41.5834L58.4591 50.538C60.8127 51.9104 62.7334 55.2158 62.7334 57.9365Z" fill="white"/>
<path d="M40.9992 42.5249C41.4974 42.2402 41.501 41.3174 41.0072 40.4635C40.5133 39.6097 39.7091 39.1483 39.2108 39.4329C38.7125 39.7175 38.7089 40.6404 39.2028 41.4942C39.6966 42.3481 40.5009 42.8095 40.9992 42.5249Z" fill="#2B303F"/>
<path opacity="0.1" d="M39.5141 41.5158C39.3565 41.4141 39.2257 41.2764 39.1326 41.1141C39.0396 40.9518 38.987 40.7698 38.9792 40.5832C38.9792 40.2449 39.2175 40.0999 39.5093 40.2787C39.6642 40.3782 39.7931 40.513 39.8853 40.6718C39.9775 40.8306 40.0303 41.0089 40.0393 41.1921C40.0393 41.5497 39.801 41.685 39.5141 41.5158Z" fill="white"/>
<path d="M67.2317 73.6323C66.9059 73.8208 66.6384 73.6323 66.6384 73.1877V68.4664C66.6433 68.2467 66.6994 68.031 66.8024 67.8365C66.9053 67.642 67.0523 67.4738 67.2317 67.3453C67.5575 67.1616 67.8201 67.3453 67.8201 67.7899V72.5112C67.8184 72.731 67.7642 72.9473 67.6619 73.1423C67.5596 73.3372 67.4121 73.5052 67.2317 73.6323Z" fill="#757B89"/>
<path d="M67.2317 81.3692C66.9059 81.5576 66.6384 81.3692 66.6384 80.9294V76.2274C66.6433 76.0077 66.6994 75.792 66.8024 75.5975C66.9053 75.403 67.0523 75.2348 67.2317 75.1063C67.5575 74.9226 67.8201 75.1063 67.8201 75.5509V80.2722C67.8146 80.4879 67.7586 80.6994 67.6565 80.8898C67.5543 81.0803 67.4089 81.2444 67.2317 81.3692Z" fill="#757B89"/>
<path d="M29.9443 62.7834L31.2573 63.5228V65.5863L29.9443 64.8421V62.7834Z" fill="#5FCF90"/>
<path d="M31.2573 63.5229L32.5654 64.2672L32.5703 66.3258L31.2573 65.5864V63.5229Z" fill="#5FCF90"/>
<path d="M32.5652 64.2671L33.883 65.0065L33.8878 67.0699L32.57 66.3257L32.5652 64.2671Z" fill="#5FCF90"/>
<path d="M36.5139 66.49L37.8317 67.2342L37.8414 69.3025L36.5188 68.5583L36.5139 66.49Z" fill="#5FCF90"/>
<path d="M37.8318 67.2344L39.1496 67.9786L39.1593 70.0469L37.8415 69.3027L37.8318 67.2344Z" fill="#5FCF90"/>
<path d="M39.1497 67.9783L40.4723 68.7225L40.482 70.7956L39.1594 70.0466L39.1497 67.9783Z" fill="#5FCF90"/>
<path d="M43.1174 70.2109L44.4449 70.96L44.4595 73.0379L43.132 72.2889L43.1174 70.2109Z" fill="#5FCF90"/>
<path d="M29.9443 64.842L31.2573 65.5862L31.2621 67.6497L29.9492 66.9055L29.9443 64.842Z" fill="#5FCF90"/>
<path d="M31.2573 65.5864L32.5703 66.3258L32.5751 68.3941L31.2622 67.6499L31.2573 65.5864Z" fill="#5FCF90"/>
<path d="M32.5703 66.3257L33.8881 67.0699L33.893 69.1382L32.5752 68.394L32.5703 66.3257Z" fill="#5FCF90"/>
<path d="M33.8882 67.0698L35.2011 67.814L35.2108 69.8823L33.893 69.1381L33.8882 67.0698Z" fill="#5FCF90"/>
<path d="M35.2009 67.814L36.5187 68.5582L36.5284 70.6265L35.2107 69.8823L35.2009 67.814Z" fill="#5FCF90"/>
<path d="M36.5188 68.5581L37.8414 69.3023L37.8463 71.3754L36.5285 70.6264L36.5188 68.5581Z" fill="#5FCF90"/>
<path d="M37.8416 69.3025L39.1593 70.0467L39.1691 72.1247L37.8464 71.3756L37.8416 69.3025Z" fill="#5FCF90"/>
<path d="M39.1592 70.0466L40.4818 70.7957L40.4964 72.8688L39.1689 72.1246L39.1592 70.0466Z" fill="#5FCF90"/>
<path d="M41.8044 71.5398L43.132 72.2888L43.1465 74.3716L41.819 73.6178L41.8044 71.5398Z" fill="#5FCF90"/>
<path d="M43.1318 72.2888L44.4594 73.0379L44.4739 75.1207L43.1464 74.3716L43.1318 72.2888Z" fill="#5FCF90"/>
<path d="M44.4595 73.0381L45.787 73.7871L45.8016 75.8747L44.4741 75.1209L44.4595 73.0381Z" fill="#5FCF90"/>
<path d="M45.7869 73.7871L47.1144 74.541L47.1338 76.6238L45.8015 75.8747L45.7869 73.7871Z" fill="#5FCF90"/>
<path d="M29.9492 66.9055L31.2621 67.6497V69.718L29.9492 68.969V66.9055Z" fill="#5FCF90"/>
<path d="M31.2622 67.6499L32.5751 68.3941L32.58 70.4624L31.2622 69.7182V67.6499Z" fill="#5FCF90"/>
<path d="M32.575 68.394L33.8927 69.1382L33.8976 71.2065L32.5798 70.4623L32.575 68.394Z" fill="#5FCF90"/>
<path d="M33.8928 69.1382L35.2106 69.8824L35.2155 71.9555L33.8977 71.2065L33.8928 69.1382Z" fill="#5FCF90"/>
<path d="M36.5283 70.6265L37.8461 71.3755L37.8558 73.4535L36.538 72.7044L36.5283 70.6265Z" fill="#5FCF90"/>
<path d="M37.8462 71.3755L39.1688 72.1245L39.1786 74.2025L37.8559 73.4535L37.8462 71.3755Z" fill="#5FCF90"/>
<path d="M45.8018 75.8748L47.1341 76.6238L47.1487 78.7162L45.8163 77.9624L45.8018 75.8748Z" fill="#5FCF90"/>
<path d="M31.2622 69.718L32.58 70.4622L32.5849 72.5353L31.2671 71.7863L31.2622 69.718Z" fill="#5FCF90"/>
<path d="M32.5798 70.4622L33.8976 71.2064L33.9025 73.2843L32.5847 72.5353L32.5798 70.4622Z" fill="#5FCF90"/>
<path d="M33.8977 71.2065L35.2155 71.9556L35.2204 74.0335L33.9026 73.2845L33.8977 71.2065Z" fill="#5FCF90"/>
<path d="M35.2156 71.9556L36.5382 72.7046L36.5431 74.7826L35.2204 74.0335L35.2156 71.9556Z" fill="#5FCF90"/>
<path d="M37.856 73.4536L39.1786 74.2026L39.1883 76.2854L37.8657 75.5316L37.856 73.4536Z" fill="#5FCF90"/>
<path d="M39.1787 74.2026L40.5062 74.9517L40.516 77.0345L39.1884 76.2854L39.1787 74.2026Z" fill="#5FCF90"/>
<path d="M41.8337 75.7007L43.1564 76.4546L43.171 78.5422L41.8435 77.7883L41.8337 75.7007Z" fill="#5FCF90"/>
<path d="M44.4885 77.2085L45.816 77.9624L45.8355 80.0548L44.5031 79.2961L44.4885 77.2085Z" fill="#5FCF90"/>
<path d="M45.8162 77.9622L47.1485 78.716L47.168 80.8085L45.8356 80.0546L45.8162 77.9622Z" fill="#5FCF90"/>
<path d="M29.9492 71.0422L31.267 71.7864L31.2719 73.8644L29.9541 73.1154L29.9492 71.0422Z" fill="#5FCF90"/>
<path d="M31.2671 71.7864L32.5849 72.5354L32.5897 74.6134L31.2719 73.8643L31.2671 71.7864Z" fill="#5FCF90"/>
<path d="M32.585 72.5354L33.9027 73.2844L33.9076 75.3624L32.5898 74.6134L32.585 72.5354Z" fill="#5FCF90"/>
<path d="M35.2202 74.0334L36.5429 74.7825L36.5526 76.8653L35.2299 76.1114L35.2202 74.0334Z" fill="#5FCF90"/>
<path d="M36.543 74.7825L37.8656 75.5315L37.8753 77.6143L36.5527 76.8653L36.543 74.7825Z" fill="#5FCF90"/>
<path d="M39.1885 76.2854L40.516 77.0344L40.5257 79.1221L39.2031 78.3682L39.1885 76.2854Z" fill="#5FCF90"/>
<path d="M41.8435 77.7883L43.171 78.5422L43.1856 80.6347L41.8581 79.876L41.8435 77.7883Z" fill="#5FCF90"/>
<path d="M43.1711 78.5422L44.5035 79.2961L44.5181 81.3934L43.1857 80.6347L43.1711 78.5422Z" fill="#5FCF90"/>
<path d="M44.5034 79.2959L45.8358 80.0546L45.8504 82.1471L44.518 81.3932L44.5034 79.2959Z" fill="#5FCF90"/>
<path d="M31.272 73.8643L32.5898 74.6133L32.5946 76.6913L31.272 75.9422V73.8643Z" fill="#5FCF90"/>
<path d="M36.5527 76.8652L37.8754 77.6143L37.8851 79.7067L36.5576 78.948L36.5527 76.8652Z" fill="#5FCF90"/>
<path d="M37.8755 77.6143L39.203 78.3681L39.2127 80.4606L37.8852 79.7067L37.8755 77.6143Z" fill="#5FCF90"/>
<path d="M41.8579 79.876L43.1854 80.6347L43.2 82.7271L41.8676 81.9733L41.8579 79.876Z" fill="#5FCF90"/>
<path d="M45.8501 82.1472L47.1825 82.9059L47.2019 85.008L45.8647 84.2493L45.8501 82.1472Z" fill="#5FCF90"/>
<path d="M29.9541 75.1931L31.2719 75.9421L31.2768 78.0249L29.959 77.2711L29.9541 75.1931Z" fill="#5FCF90"/>
<path d="M32.5947 76.6914L33.9125 77.4453L33.9174 79.5281L32.5947 78.7742V76.6914Z" fill="#5FCF90"/>
<path d="M35.2351 78.1941L36.5578 78.948L36.5675 81.0404L35.24 80.2866L35.2351 78.1941Z" fill="#5FCF90"/>
<path d="M37.885 79.7068L39.2125 80.4607L39.2223 82.5531L37.8947 81.7944L37.885 79.7068Z" fill="#5FCF90"/>
<path d="M40.54 81.2146L41.8676 81.9733L41.8821 84.0706L40.5498 83.3119L40.54 81.2146Z" fill="#5FCF90"/>
<path d="M43.2002 82.7271L44.5326 83.4857L44.5472 85.5879L43.2148 84.8292L43.2002 82.7271Z" fill="#5FCF90"/>
<path d="M45.865 84.2493L47.2022 85.008L47.2217 87.1101L45.8844 86.3514L45.865 84.2493Z" fill="#5FCF90"/>
<path d="M31.2769 78.0251L32.5946 78.7742L32.5995 80.8666L31.2817 80.1128L31.2769 78.0251Z" fill="#5FCF90"/>
<path d="M35.2397 80.2866L36.5673 81.0405L36.577 83.1329L35.2495 82.3791L35.2397 80.2866Z" fill="#5FCF90"/>
<path d="M37.8948 81.7944L39.2223 82.5531L39.232 84.6504L37.8996 83.8917L37.8948 81.7944Z" fill="#5FCF90"/>
<path d="M19.4506 73.3569L20.7587 74.106L20.7538 76.1791L19.4409 75.4301L19.4506 73.3569Z" fill="#5FCF90"/>
<path d="M23.3799 75.5991L24.6928 76.3482L24.6879 78.431L23.375 77.6819L23.3799 75.5991Z" fill="#5FCF90"/>
<path d="M24.6926 76.3484L26.0055 77.1023V79.185L24.6877 78.4312L24.6926 76.3484Z" fill="#5FCF90"/>
<path d="M26.0056 77.1021L27.3234 77.8511V79.9339L26.0056 79.1848V77.1021Z" fill="#5FCF90"/>
<path d="M27.3235 77.8511L28.6413 78.6049V80.6877L27.3235 79.9339V77.8511Z" fill="#5FCF90"/>
<path d="M28.6414 78.605L29.9591 79.3588V81.4465L28.6414 80.6878V78.605Z" fill="#5FCF90"/>
<path d="M29.959 79.3589L31.2816 80.1127V82.2004L29.959 81.4465V79.3589Z" fill="#5FCF90"/>
<path d="M31.2817 80.1128L32.5995 80.8667L32.6044 82.9591L31.2817 82.2004V80.1128Z" fill="#5FCF90"/>
<path d="M35.2495 82.3792L36.577 83.133L36.5819 85.2303L35.2544 84.4716L35.2495 82.3792Z" fill="#5FCF90"/>
<path d="M36.5769 83.1331L37.8996 83.8918L37.9093 85.989L36.5818 85.2303L36.5769 83.1331Z" fill="#5FCF90"/>
<path d="M37.8997 83.8916L39.232 84.6503L39.2418 86.7524L37.9094 85.9889L37.8997 83.8916Z" fill="#5FCF90"/>
<path d="M39.2322 84.6504L40.5646 85.4091L40.5743 87.5112L39.2419 86.7525L39.2322 84.6504Z" fill="#5FCF90"/>
<path d="M40.5645 85.4092L41.8968 86.1727L41.9066 88.2748L40.5742 87.5113L40.5645 85.4092Z" fill="#5FCF90"/>
<path d="M41.8967 86.1726L43.2291 86.9313L43.2437 89.0383L41.9065 88.2747L41.8967 86.1726Z" fill="#5FCF90"/>
<path d="M47.2361 89.2219L48.5782 89.9855L48.5976 92.1021L47.2555 91.3337L47.2361 89.2219Z" fill="#5FCF90"/>
<path d="M51.2625 91.5173L52.6045 92.2857L52.6289 94.4072L51.2819 93.6388L51.2625 91.5173Z" fill="#5FCF90"/>
<path d="M53.9514 93.054L55.2984 93.8223L55.3227 95.9486L53.9757 95.1754L53.9514 93.054Z" fill="#5FCF90"/>
<path d="M55.2983 93.8225L56.6453 94.5957L56.6745 96.722L55.3227 95.9488L55.2983 93.8225Z" fill="#5FCF90"/>
<path d="M56.6453 94.5957L57.9971 95.3641L58.0263 97.4904L56.6744 96.722L56.6453 94.5957Z" fill="#5FCF90"/>
<path d="M19.4409 75.4302L20.7538 76.1792L20.7441 78.2572L19.436 77.5081L19.4409 75.4302Z" fill="#5FCF90"/>
<path d="M22.062 76.9282L23.3749 77.6821L23.3701 79.7649L22.0571 79.011L22.062 76.9282Z" fill="#5FCF90"/>
<path d="M29.959 81.4465L31.2816 82.2004L31.2865 84.2929L29.9638 83.539L29.959 81.4465Z" fill="#5FCF90"/>
<path d="M35.2544 84.4717L36.5819 85.2304L36.5916 87.3325L35.2641 86.5738L35.2544 84.4717Z" fill="#5FCF90"/>
<path d="M37.9094 85.989L39.2418 86.7525L39.2515 88.8595L37.9192 88.096L37.9094 85.989Z" fill="#5FCF90"/>
<path d="M41.9065 88.2749L43.2437 89.0384L43.2535 91.1502L41.9211 90.3867L41.9065 88.2749Z" fill="#5FCF90"/>
<path d="M44.5762 89.8018L45.9134 90.5701L45.9329 92.6819L44.5908 91.9184L44.5762 89.8018Z" fill="#5FCF90"/>
<path d="M47.2556 91.3337L48.5977 92.1021L48.6123 94.2187L47.2751 93.4504L47.2556 91.3337Z" fill="#5FCF90"/>
<path d="M49.9397 92.8704L51.2818 93.6387L51.3013 95.7602L49.9591 94.987L49.9397 92.8704Z" fill="#5FCF90"/>
<path d="M51.282 93.6389L52.6289 94.4073L52.6484 96.5287L51.3014 95.7604L51.282 93.6389Z" fill="#5FCF90"/>
<path d="M53.9758 95.1755L55.3228 95.9487L55.3471 98.075L54.0001 97.3018L53.9758 95.1755Z" fill="#5FCF90"/>
<path d="M55.3228 95.9487L56.6746 96.7219L56.6989 98.8482L55.3471 98.075L55.3228 95.9487Z" fill="#5FCF90"/>
<path d="M20.7441 78.2571L22.057 79.0109L22.0522 81.0937L20.7393 80.3399L20.7441 78.2571Z" fill="#5FCF90"/>
<path d="M22.0571 79.011L23.37 79.7649L23.3652 81.8477L22.0522 81.0938L22.0571 79.011Z" fill="#5FCF90"/>
<path d="M24.688 80.5137L26.0058 81.2675L26.0009 83.36L24.6831 82.6061L24.688 80.5137Z" fill="#5FCF90"/>
<path d="M26.0056 81.2678L27.3234 82.0265V84.119L26.0007 83.3603L26.0056 81.2678Z" fill="#5FCF90"/>
<path d="M27.3235 82.0264L28.6413 82.7802V84.8727L27.3235 84.1188V82.0264Z" fill="#5FCF90"/>
<path d="M31.2866 84.293L32.6093 85.0517L32.6141 87.1538L31.2866 86.3903V84.293Z" fill="#5FCF90"/>
<path d="M32.6091 85.0515L33.9366 85.8102L33.9415 87.9123L32.614 87.1536L32.6091 85.0515Z" fill="#5FCF90"/>
<path d="M37.9192 88.0959L39.2516 88.8595L39.2613 90.9664L37.9289 90.2029L37.9192 88.0959Z" fill="#5FCF90"/>
<path d="M41.9211 90.3865L43.2535 91.15L43.2681 93.2666L41.9309 92.4983L41.9211 90.3865Z" fill="#5FCF90"/>
<path d="M43.2534 91.1499L44.5906 91.9183L44.6101 94.0349L43.268 93.2665L43.2534 91.1499Z" fill="#5FCF90"/>
<path d="M47.2749 93.4504L48.6121 94.2188L48.6316 96.3403L47.2895 95.5719L47.2749 93.4504Z" fill="#5FCF90"/>
<path d="M49.9592 94.9871L51.3013 95.7603L51.3256 97.8865L49.9787 97.1134L49.9592 94.9871Z" fill="#5FCF90"/>
<path d="M54.0002 97.3018L55.3472 98.075L55.3715 100.206L54.0246 99.4329L54.0002 97.3018Z" fill="#5FCF90"/>
<path d="M23.3652 81.8474L24.683 82.6061V84.6937L23.3652 83.9399V81.8474Z" fill="#5FCF90"/>
<path d="M24.6831 82.6062L26.0009 83.3601V85.4525L24.6831 84.6938V82.6062Z" fill="#5FCF90"/>
<path d="M29.9639 85.6313L31.2865 86.3901L31.2914 88.4922L29.9687 87.7335L29.9639 85.6313Z" fill="#5FCF90"/>
<path d="M31.2866 86.3901L32.6141 87.1537L32.619 89.2558L31.2915 88.4922L31.2866 86.3901Z" fill="#5FCF90"/>
<path d="M32.614 87.1536L33.9415 87.9123L33.9464 90.0192L32.6189 89.2557L32.614 87.1536Z" fill="#5FCF90"/>
<path d="M37.929 90.2029L39.2613 90.9664L39.2711 93.0782L37.9387 92.3147L37.929 90.2029Z" fill="#5FCF90"/>
<path d="M39.2612 90.9663L40.5985 91.7298L40.6082 93.8465L39.271 93.0781L39.2612 90.9663Z" fill="#5FCF90"/>
<path d="M41.9309 92.4983L43.2681 93.2667L43.2827 95.3833L41.9455 94.6149L41.9309 92.4983Z" fill="#5FCF90"/>
<path d="M45.9473 94.8035L47.2894 95.5718L47.3088 97.6933L45.9667 96.9249L45.9473 94.8035Z" fill="#5FCF90"/>
<path d="M47.2896 95.5718L48.6317 96.3401L48.6511 98.4664L47.309 97.6932L47.2896 95.5718Z" fill="#5FCF90"/>
<path d="M48.6318 96.3401L49.9788 97.1133L49.9982 99.2396L48.6513 98.4664L48.6318 96.3401Z" fill="#5FCF90"/>
<path d="M52.6726 98.6597L54.0244 99.4329L54.0439 101.564L52.6969 100.791L52.6726 98.6597Z" fill="#5FCF90"/>
<path d="M56.728 100.984L58.0799 101.757L58.109 103.898L56.7523 103.12L56.728 100.984Z" fill="#5FCF90"/>
<path d="M19.4216 81.6736L20.7345 82.4275L20.7248 84.5199L19.4119 83.7612L19.4216 81.6736Z" fill="#5FCF90"/>
<path d="M20.7343 82.4275L22.0473 83.1814L22.0424 85.2738L20.7246 84.5199L20.7343 82.4275Z" fill="#5FCF90"/>
<path d="M22.0473 83.1814L23.3651 83.9401L23.3603 86.0326L22.0425 85.2739L22.0473 83.1814Z" fill="#5FCF90"/>
<path d="M23.3652 83.9399L24.683 84.6938L24.6781 86.7911L23.3604 86.0324L23.3652 83.9399Z" fill="#5FCF90"/>
<path d="M27.3235 86.2114L28.6413 86.9701L28.6461 89.0723L27.3186 88.3136L27.3235 86.2114Z" fill="#5FCF90"/>
<path d="M32.6189 89.2559L33.9464 90.0194L33.9513 92.1264L32.6238 91.3628L32.6189 89.2559Z" fill="#5FCF90"/>
<path d="M35.2739 90.7827L36.6063 91.5462L36.616 93.658L35.2836 92.8945L35.2739 90.7827Z" fill="#5FCF90"/>
<path d="M36.6064 91.5464L37.9388 92.3147L37.9485 94.4265L36.6162 93.6582L36.6064 91.5464Z" fill="#5FCF90"/>
<path d="M37.9387 92.3147L39.2711 93.0782L39.2808 95.1949L37.9484 94.4265L37.9387 92.3147Z" fill="#5FCF90"/>
<path d="M43.283 95.3835L44.6251 96.1519L44.6397 98.2782L43.2975 97.505L43.283 95.3835Z" fill="#5FCF90"/>
<path d="M45.967 96.9248L47.3092 97.6932L47.3286 99.8243L45.9816 99.0511L45.967 96.9248Z" fill="#5FCF90"/>
<path d="M48.6514 98.4666L49.9983 99.2398L50.0178 101.371L48.6708 100.598L48.6514 98.4666Z" fill="#5FCF90"/>
<path d="M49.998 99.2395L51.345 100.013L51.3693 102.149L50.0175 101.371L49.998 99.2395Z" fill="#5FCF90"/>
<path d="M56.7524 103.12L58.1091 103.898L58.1334 106.044L56.7768 105.261L56.7524 103.12Z" fill="#5FCF90"/>
<path d="M22.0427 85.2739L23.3605 86.0326L23.3556 88.1299L22.0378 87.3712L22.0427 85.2739Z" fill="#5FCF90"/>
<path d="M33.9512 92.1262L35.2836 92.8946L35.2884 95.0064L33.956 94.2428L33.9512 92.1262Z" fill="#5FCF90"/>
<path d="M35.2837 92.8945L36.6161 93.6581L36.6209 95.7747L35.2886 95.0063L35.2837 92.8945Z" fill="#5FCF90"/>
<path d="M41.9553 96.7363L43.2974 97.5047L43.312 99.631L41.9699 98.8578L41.9553 96.7363Z" fill="#5FCF90"/>
<path d="M43.2974 97.5049L44.6395 98.2781L44.6541 100.404L43.312 99.6312L43.2974 97.5049Z" fill="#5FCF90"/>
<path d="M47.3286 99.8242L48.6707 100.597L48.6902 102.733L47.3432 101.955L47.3286 99.8242Z" fill="#5FCF90"/>
<path d="M48.6707 100.598L50.0176 101.371L50.0419 103.507L48.6901 102.734L48.6707 100.598Z" fill="#5FCF90"/>
<path d="M51.3694 102.149L52.7164 102.927L52.7407 105.068L51.3888 104.285L51.3694 102.149Z" fill="#5FCF90"/>
<path d="M52.7163 102.927L54.0681 103.705L54.0924 105.846L52.7406 105.068L52.7163 102.927Z" fill="#5FCF90"/>
<path d="M54.0681 103.705L55.4248 104.483L55.4491 106.629L54.0924 105.846L54.0681 103.705Z" fill="#5FCF90"/>
<path d="M55.4248 104.483L56.7766 105.261L56.8058 107.407L55.4491 106.629L55.4248 104.483Z" fill="#5FCF90"/>
<path d="M56.7769 105.261L58.1335 106.044L58.1627 108.189L56.806 107.407L56.7769 105.261Z" fill="#5FCF90"/>
<path d="M20.72 86.6123L22.0377 87.371L22.0329 89.4731L20.7151 88.7096L20.72 86.6123Z" fill="#5FCF90"/>
<path d="M25.9961 89.6521L27.3187 90.4156V92.5226L25.9961 91.7591V89.6521Z" fill="#5FCF90"/>
<path d="M27.3186 90.4155L28.6461 91.1791V93.286L27.3186 92.5225V90.4155Z" fill="#5FCF90"/>
<path d="M28.646 91.1792L29.9686 91.9427L29.9735 94.0545L28.646 93.2862V91.1792Z" fill="#5FCF90"/>
<path d="M29.9688 91.9426L31.2963 92.7062L31.3011 94.8228L29.9736 94.0544L29.9688 91.9426Z" fill="#5FCF90"/>
<path d="M32.6238 93.4746L33.9562 94.243L33.961 96.3596L32.6286 95.5912L32.6238 93.4746Z" fill="#5FCF90"/>
<path d="M37.958 96.5479L39.2952 97.3162L39.305 99.4425L37.9677 98.6693L37.958 96.5479Z" fill="#5FCF90"/>
<path d="M39.2954 97.3164L40.6327 98.0848L40.6424 100.216L39.3051 99.4427L39.2954 97.3164Z" fill="#5FCF90"/>
<path d="M41.9697 98.8579L43.3118 99.6311L43.3264 101.762L41.9843 100.989L41.9697 98.8579Z" fill="#5FCF90"/>
<path d="M44.6541 100.404L45.9962 101.182L46.0156 103.313L44.6686 102.535L44.6541 100.404Z" fill="#5FCF90"/>
<path d="M45.9961 101.182L47.3431 101.956L47.3625 104.092L46.0155 103.313L45.9961 101.182Z" fill="#5FCF90"/>
<path d="M47.3433 101.956L48.6902 102.734L48.7097 104.87L47.3627 104.092L47.3433 101.956Z" fill="#5FCF90"/>
<path d="M48.6902 102.733L50.042 103.507L50.0615 105.647L48.7096 104.869L48.6902 102.733Z" fill="#5FCF90"/>
<path d="M50.0417 103.507L51.3887 104.285L51.4082 106.43L50.0612 105.648L50.0417 103.507Z" fill="#5FCF90"/>
<path d="M54.0923 105.846L55.449 106.629L55.4733 108.774L54.1166 107.991L54.0923 105.846Z" fill="#5FCF90"/>
<path d="M56.8059 107.406L58.1626 108.189L58.1918 110.34L56.8302 109.557L56.8059 107.406Z" fill="#5FCF90"/>
<path d="M19.3972 87.9509L20.715 88.7096L20.7052 90.8118L19.3875 90.0482L19.3972 87.9509Z" fill="#5FCF90"/>
<path d="M20.715 88.7097L22.0328 89.4732L22.028 91.5754L20.7053 90.8118L20.715 88.7097Z" fill="#5FCF90"/>
<path d="M24.6733 90.9954L25.996 91.7589L25.9911 93.8707L24.6685 93.1023L24.6733 90.9954Z" fill="#5FCF90"/>
<path d="M28.646 93.2859L29.9735 94.0543V96.1709L28.646 95.4025V93.2859Z" fill="#5FCF90"/>
<path d="M31.301 94.8228L32.6285 95.5911L32.6334 97.7077L31.3059 96.9394L31.301 94.8228Z" fill="#5FCF90"/>
<path d="M32.6287 95.5911L33.961 96.3594L33.9659 98.4761L32.6335 97.7077L32.6287 95.5911Z" fill="#5FCF90"/>
<path d="M36.6306 97.8962L37.9679 98.6694L37.9727 100.796L36.6355 100.023L36.6306 97.8962Z" fill="#5FCF90"/>
<path d="M37.9678 98.6694L39.305 99.4426L39.3147 101.569L37.9726 100.796L37.9678 98.6694Z" fill="#5FCF90"/>
<path d="M40.6423 100.216L41.9844 100.989L41.9942 103.12L40.6569 102.342L40.6423 100.216Z" fill="#5FCF90"/>
<path d="M43.3264 101.762L44.6685 102.535L44.6831 104.671L43.341 103.898L43.3264 101.762Z" fill="#5FCF90"/>
<path d="M50.0613 105.647L51.4082 106.43L51.4326 108.576L50.0807 107.793L50.0613 105.647Z" fill="#5FCF90"/>
<path d="M51.4082 106.43L52.7649 107.208L52.7843 109.359L51.4325 108.576L51.4082 106.43Z" fill="#5FCF90"/>
<path d="M54.1167 107.991L55.4734 108.774L55.4977 110.925L54.141 110.142L54.1167 107.991Z" fill="#5FCF90"/>
<path d="M56.8301 109.557L58.1916 110.34L58.2159 112.495L56.8593 111.712L56.8301 109.557Z" fill="#5FCF90"/>
<path d="M24.6685 93.1023L25.9911 93.8707V95.9825L24.6685 95.2141V93.1023Z" fill="#5FCF90"/>
<path d="M27.3186 94.6343L28.6461 95.4026V97.5193L27.3186 96.7509V94.6343Z" fill="#5FCF90"/>
<path d="M35.303 99.2493L36.6354 100.022L36.6451 102.149L35.3078 101.376L35.303 99.2493Z" fill="#5FCF90"/>
<path d="M39.3147 101.569L40.6568 102.342L40.6665 104.478L39.3244 103.7L39.3147 101.569Z" fill="#5FCF90"/>
<path d="M44.6831 104.671L46.0301 105.454L46.0495 107.595L44.6977 106.812L44.6831 104.671Z" fill="#5FCF90"/>
<path d="M46.03 105.454L47.377 106.232L47.3964 108.373L46.0495 107.595L46.03 105.454Z" fill="#5FCF90"/>
<path d="M52.7844 109.359L54.1411 110.142L54.1654 112.292L52.8087 111.509L52.7844 109.359Z" fill="#5FCF90"/>
<path d="M19.3828 92.1553L20.7006 92.9188L20.6908 95.0258L19.373 94.2622L19.3828 92.1553Z" fill="#5FCF90"/>
<path d="M23.3408 94.4458L24.6683 95.2142L24.6635 97.3308L23.3359 96.5624L23.3408 94.4458Z" fill="#5FCF90"/>
<path d="M29.9736 98.2876L31.306 99.0608L31.3109 101.182L29.9785 100.409L29.9736 98.2876Z" fill="#5FCF90"/>
<path d="M31.3062 99.0608L32.6385 99.8292L32.6434 101.955L31.311 101.182L31.3062 99.0608Z" fill="#5FCF90"/>
<path d="M42.0085 105.256L43.3555 106.034L43.3701 108.175L42.0231 107.397L42.0085 105.256Z" fill="#5FCF90"/>
<path d="M43.3555 106.034L44.6976 106.812L44.717 108.958L43.3701 108.175L43.3555 106.034Z" fill="#5FCF90"/>
<path d="M44.6978 106.812L46.0496 107.595L46.0642 109.741L44.7172 108.958L44.6978 106.812Z" fill="#5FCF90"/>
<path d="M51.4519 110.722L52.8086 111.509L52.8329 113.665L51.4762 112.877L51.4519 110.722Z" fill="#5FCF90"/>
<path d="M54.1653 112.292L55.5268 113.08L55.5511 115.24L54.1896 114.452L54.1653 112.292Z" fill="#5FCF90"/>
<path d="M55.5271 113.08L56.8838 113.868L56.913 116.028L55.5514 115.24L55.5271 113.08Z" fill="#5FCF90"/>
<path d="M19.373 94.2622L20.6908 95.0257L20.6859 97.1424L19.3633 96.374L19.373 94.2622Z" fill="#5FCF90"/>
<path d="M20.6907 95.0259L22.0133 95.7942L22.0084 97.9109L20.6858 97.1425L20.6907 95.0259Z" fill="#5FCF90"/>
<path d="M22.0134 95.7942L23.3361 96.5626V98.6792L22.0085 97.9108L22.0134 95.7942Z" fill="#5FCF90"/>
<path d="M27.3186 98.8674L28.6461 99.6406V101.762L27.3186 100.994V98.8674Z" fill="#5FCF90"/>
<path d="M28.646 99.6409L29.9784 100.409V102.54L28.646 101.762V99.6409Z" fill="#5FCF90"/>
<path d="M31.3108 101.182L32.6432 101.956L32.648 104.087L31.3108 103.313V101.182Z" fill="#5FCF90"/>
<path d="M32.6433 101.956L33.9805 102.734L33.9854 104.865L32.6482 104.087L32.6433 101.956Z" fill="#5FCF90"/>
<path d="M36.6548 104.28L37.992 105.058L38.0017 107.199L36.6596 106.421L36.6548 104.28Z" fill="#5FCF90"/>
<path d="M37.9922 105.058L39.3343 105.836L39.344 107.977L38.0019 107.199L37.9922 105.058Z" fill="#5FCF90"/>
<path d="M40.6763 106.614L42.0232 107.397L42.033 109.538L40.6909 108.76L40.6763 106.614Z" fill="#5FCF90"/>
<path d="M43.3704 108.175L44.7173 108.958L44.7319 111.103L43.3801 110.32L43.3704 108.175Z" fill="#5FCF90"/>
<path d="M44.7173 108.958L46.0643 109.741L46.0837 111.891L44.7319 111.103L44.7173 108.958Z" fill="#5FCF90"/>
<path d="M47.4163 110.523L48.7681 111.306L48.7875 113.462L47.4357 112.674L47.4163 110.523Z" fill="#5FCF90"/>
<path d="M48.7678 111.306L50.1196 112.094L50.1391 114.245L48.7873 113.462L48.7678 111.306Z" fill="#5FCF90"/>
<path d="M52.8333 113.665L54.1899 114.452L54.2143 116.612L52.8576 115.825L52.8333 113.665Z" fill="#5FCF90"/>
<path d="M56.9128 116.028L58.2744 116.82L58.3036 118.985L56.9372 118.193L56.9128 116.028Z" fill="#5FCF90"/>
<path d="M19.3633 96.374L20.6859 97.1424L20.681 99.259L19.3584 98.4906L19.3633 96.374Z" fill="#5FCF90"/>
<path d="M20.686 97.1423L22.0087 97.9107L22.0038 100.027L20.6812 99.2589L20.686 97.1423Z" fill="#5FCF90"/>
<path d="M24.6587 99.4475L25.9862 100.221V102.342L24.6587 101.574V99.4475Z" fill="#5FCF90"/>
<path d="M25.9861 100.221L27.3185 100.994L27.3136 103.12L25.9861 102.342V100.221Z" fill="#5FCF90"/>
<path d="M28.646 101.762L29.9784 102.54L29.9832 104.667L28.646 103.893V101.762Z" fill="#5FCF90"/>
<path d="M29.9785 102.54L31.3109 103.313L31.3158 105.445L29.9834 104.667L29.9785 102.54Z" fill="#5FCF90"/>
<path d="M31.3108 103.313L32.648 104.087L32.6529 106.223L31.3157 105.445L31.3108 103.313Z" fill="#5FCF90"/>
<path d="M32.6479 104.087L33.9852 104.865L33.9901 107.001L32.6528 106.223L32.6479 104.087Z" fill="#5FCF90"/>
<path d="M33.9854 104.865L35.3226 105.643L35.3275 107.779L33.9902 107.001L33.9854 104.865Z" fill="#5FCF90"/>
<path d="M36.6597 106.421L38.0018 107.199L38.0115 109.339L36.6694 108.557L36.6597 106.421Z" fill="#5FCF90"/>
<path d="M39.344 107.977L40.691 108.76L40.7007 110.905L39.3537 110.122L39.344 107.977Z" fill="#5FCF90"/>
<path d="M40.6909 108.76L42.033 109.538L42.0476 111.688L40.7006 110.905L40.6909 108.76Z" fill="#5FCF90"/>
<path d="M44.7317 111.103L46.0835 111.891L46.0981 114.041L44.7463 113.259L44.7317 111.103Z" fill="#5FCF90"/>
<path d="M47.4355 112.674L48.7874 113.462L48.8068 115.617L47.4501 114.829L47.4355 112.674Z" fill="#5FCF90"/>
<path d="M48.7874 113.462L50.1392 114.245L50.1635 116.405L48.8068 115.617L48.7874 113.462Z" fill="#5FCF90"/>
<path d="M50.1392 114.245L51.4958 115.032L51.5202 117.197L50.1635 116.405L50.1392 114.245Z" fill="#5FCF90"/>
<path d="M51.4958 115.032L52.8574 115.825L52.8769 117.985L51.5202 117.197L51.4958 115.032Z" fill="#5FCF90"/>
<path d="M52.8574 115.825L54.2141 116.612L54.2384 118.777L52.8769 117.985L52.8574 115.825Z" fill="#5FCF90"/>
<path d="M54.2141 116.612L55.5757 117.405L55.6 119.57L54.2384 118.777L54.2141 116.612Z" fill="#5FCF90"/>
<path d="M19.3584 98.4907L20.681 99.2591L20.6713 101.381L19.3486 100.607L19.3584 98.4907Z" fill="#5FCF90"/>
<path d="M20.6811 99.259L22.0038 100.027L21.9989 102.154L20.6714 101.38L20.6811 99.259Z" fill="#5FCF90"/>
<path d="M22.0036 100.027L23.3312 100.801L23.3263 102.927L21.9988 102.154L22.0036 100.027Z" fill="#5FCF90"/>
<path d="M25.9861 102.342L27.3136 103.12V105.246L25.9861 104.473V102.342Z" fill="#5FCF90"/>
<path d="M27.3137 103.12L28.6461 103.893V106.024L27.3137 105.246V103.12Z" fill="#5FCF90"/>
<path d="M31.3159 105.445L32.6532 106.223L32.658 108.359L31.3208 107.581L31.3159 105.445Z" fill="#5FCF90"/>
<path d="M32.6528 106.223L33.9901 107.001L33.9949 109.141L32.6577 108.359L32.6528 106.223Z" fill="#5FCF90"/>
<path d="M35.3274 107.779L36.6695 108.557L36.6792 110.702L35.3371 109.919L35.3274 107.779Z" fill="#5FCF90"/>
<path d="M36.6694 108.557L38.0115 109.34L38.0213 111.485L36.6792 110.702L36.6694 108.557Z" fill="#5FCF90"/>
<path d="M42.0476 111.688L43.3946 112.471L43.4092 114.626L42.0622 113.838L42.0476 111.688Z" fill="#5FCF90"/>
<path d="M44.7463 113.259L46.0982 114.041L46.1128 116.202L44.7609 115.414L44.7463 113.259Z" fill="#5FCF90"/>
<path d="M46.0984 114.042L47.4502 114.829L47.4697 116.989L46.113 116.202L46.0984 114.042Z" fill="#5FCF90"/>
<path d="M47.45 114.829L48.8066 115.617L48.8261 117.777L47.4694 116.989L47.45 114.829Z" fill="#5FCF90"/>
<path d="M48.8066 115.617L50.1633 116.405L50.1828 118.57L48.8261 117.777L48.8066 115.617Z" fill="#5FCF90"/>
<path d="M50.1633 116.405L51.52 117.197L51.5395 119.362L50.1828 118.569L50.1633 116.405Z" fill="#5FCF90"/>
<path d="M51.52 117.197L52.8767 117.985L52.901 120.154L51.5395 119.362L51.52 117.197Z" fill="#5FCF90"/>
<path d="M52.8767 117.985L54.2383 118.777L54.2626 120.947L52.901 120.155L52.8767 117.985Z" fill="#5FCF90"/>
<path d="M54.2383 118.777L55.5998 119.57L55.629 121.744L54.2626 120.947L54.2383 118.777Z" fill="#5FCF90"/>
<path d="M55.5999 119.57L56.9663 120.362L56.9906 122.537L55.629 121.744L55.5999 119.57Z" fill="#5FCF90"/>
<path d="M29.9834 106.802L31.3206 107.581V109.721L29.9834 108.943V106.802Z" fill="#5FCF90"/>
<path d="M33.9949 109.141L35.337 109.919L35.3418 112.065L33.9997 111.282L33.9949 109.141Z" fill="#5FCF90"/>
<path d="M36.6792 110.702L38.0213 111.485L38.031 113.635L36.6841 112.853L36.6792 110.702Z" fill="#5FCF90"/>
<path d="M40.7102 113.056L42.062 113.839L42.0718 115.994L40.7248 115.206L40.7102 113.056Z" fill="#5FCF90"/>
<path d="M42.0623 113.839L43.4092 114.626L43.4238 116.782L42.072 115.994L42.0623 113.839Z" fill="#5FCF90"/>
<path d="M43.4092 114.626L44.761 115.414L44.7756 117.574L43.4238 116.782L43.4092 114.626Z" fill="#5FCF90"/>
<path d="M46.1128 116.202L47.4695 116.989L47.4889 119.154L46.1322 118.362L46.1128 116.202Z" fill="#5FCF90"/>
<path d="M51.5396 119.362L52.9011 120.155L52.9254 122.324L51.5639 121.532L51.5396 119.362Z" fill="#5FCF90"/>
<path d="M52.9011 120.155L54.2627 120.947L54.287 123.122L52.9254 122.325L52.9011 120.155Z" fill="#5FCF90"/>
<path d="M29.9834 108.943L31.3206 109.721L31.3255 111.867L29.9883 111.084L29.9834 108.943Z" fill="#5FCF90"/>
<path d="M36.6841 112.853L38.031 113.636L38.0408 115.791L36.6938 115.003L36.6841 112.853Z" fill="#5FCF90"/>
<path d="M39.3782 114.423L40.7251 115.206L40.7349 117.366L39.3879 116.579L39.3782 114.423Z" fill="#5FCF90"/>
<path d="M40.7251 115.206L42.0721 115.994L42.0867 118.154L40.7348 117.366L40.7251 115.206Z" fill="#5FCF90"/>
<path d="M44.7756 117.574L46.1323 118.362L46.1469 120.527L44.7902 119.734L44.7756 117.574Z" fill="#5FCF90"/>
<path d="M46.1323 118.362L47.489 119.154L47.5036 121.319L46.1469 120.527L46.1323 118.362Z" fill="#5FCF90"/>
<path d="M48.8455 119.947L50.2022 120.739L50.2216 122.909L48.8649 122.117L48.8455 119.947Z" fill="#5FCF90"/>
<path d="M51.564 121.532L52.9255 122.324L52.9498 124.499L51.5834 123.706L51.564 121.532Z" fill="#5FCF90"/>
<path d="M52.9255 122.324L54.2871 123.122L54.3114 125.301L52.9499 124.499L52.9255 122.324Z" fill="#5FCF90"/>
<path d="M29.9883 111.084L31.3255 111.867V114.012L29.9883 113.23V111.084Z" fill="#5FCF90"/>
<path d="M31.3254 111.867L32.6627 112.65L32.6675 114.8L31.3254 114.013V111.867Z" fill="#5FCF90"/>
<path d="M32.6626 112.65L34.0047 113.433L34.0096 115.583L32.6675 114.8L32.6626 112.65Z" fill="#5FCF90"/>
<path d="M35.3469 114.215L36.6939 115.003L36.7036 117.158L35.3566 116.371L35.3469 114.215Z" fill="#5FCF90"/>
<path d="M36.6938 115.003L38.0408 115.791L38.0505 117.946L36.7036 117.158L36.6938 115.003Z" fill="#5FCF90"/>
<path d="M40.7349 117.366L42.0867 118.154L42.1013 120.319L40.7495 119.526L40.7349 117.366Z" fill="#5FCF90"/>
<path d="M42.0867 118.154L43.4385 118.947L43.4531 121.112L42.1013 120.319L42.0867 118.154Z" fill="#5FCF90"/>
<path d="M44.7903 119.734L46.147 120.527L46.1664 122.696L44.8097 121.904L44.7903 119.734Z" fill="#5FCF90"/>
<path d="M46.147 120.527L47.5037 121.319L47.5231 123.494L46.1664 122.697L46.147 120.527Z" fill="#5FCF90"/>
<path d="M51.5833 123.707L52.9497 124.499L52.9691 126.679L51.6076 125.881L51.5833 123.707Z" fill="#5FCF90"/>
<path d="M55.6777 126.099L57.0442 126.896L57.0733 129.08L55.702 128.283L55.6777 126.099Z" fill="#5FCF90"/>
<path d="M57.0442 126.896L58.4155 127.698L58.4447 129.882L57.0734 129.08L57.0442 126.896Z" fill="#5FCF90"/>
<path d="M29.9883 113.23L31.3255 114.013L31.3304 116.163L29.9883 115.38V113.23Z" fill="#5FCF90"/>
<path d="M34.0098 115.583L35.3567 116.371L35.3616 118.531L34.0195 117.738L34.0098 115.583Z" fill="#5FCF90"/>
<path d="M35.3567 116.371L36.7037 117.159L36.7085 119.319L35.3616 118.531L35.3567 116.371Z" fill="#5FCF90"/>
<path d="M36.7036 117.158L38.0506 117.946L38.0603 120.111L36.7085 119.319L36.7036 117.158Z" fill="#5FCF90"/>
<path d="M39.3975 118.739L40.7493 119.526L40.759 121.691L39.4072 120.899L39.3975 118.739Z" fill="#5FCF90"/>
<path d="M40.7495 119.526L42.1013 120.319L42.1111 122.489L40.7592 121.691L40.7495 119.526Z" fill="#5FCF90"/>
<path d="M44.8098 121.904L46.1665 122.696L46.1811 124.871L44.8244 124.074L44.8098 121.904Z" fill="#5FCF90"/>
<path d="M46.1663 122.697L47.5229 123.494L47.5424 125.669L46.1808 124.871L46.1663 122.697Z" fill="#5FCF90"/>
<path d="M47.5229 123.494L48.8845 124.286L48.9039 126.466L47.5424 125.669L47.5229 123.494Z" fill="#5FCF90"/>
<path d="M48.8848 124.286L50.2463 125.084L50.2658 127.263L48.9042 126.466L48.8848 124.286Z" fill="#5FCF90"/>
<path d="M50.2461 125.084L51.6076 125.881L51.6271 128.065L50.2655 127.263L50.2461 125.084Z" fill="#5FCF90"/>
<path d="M51.6077 125.881L52.9692 126.678L52.9935 128.863L51.6271 128.065L51.6077 125.881Z" fill="#5FCF90"/>
<path d="M52.9692 126.678L54.3357 127.481L54.36 129.665L52.9936 128.863L52.9692 126.678Z" fill="#5FCF90"/>
<path d="M29.9883 115.38L31.3304 116.163L31.3352 118.323L29.9931 117.535L29.9883 115.38Z" fill="#5FCF90"/>
<path d="M35.3613 118.531L36.7083 119.318L36.718 121.483L35.3711 120.691L35.3613 118.531Z" fill="#5FCF90"/>
<path d="M36.7083 119.319L38.0601 120.111L38.0649 122.276L36.718 121.484L36.7083 119.319Z" fill="#5FCF90"/>
<path d="M38.0603 120.111L39.4073 120.899L39.417 123.069L38.0652 122.276L38.0603 120.111Z" fill="#5FCF90"/>
<path d="M40.759 121.691L42.1109 122.489L42.1255 124.658L40.7736 123.861L40.759 121.691Z" fill="#5FCF90"/>
<path d="M42.1108 122.489L43.4675 123.281L43.4821 125.456L42.1254 124.659L42.1108 122.489Z" fill="#5FCF90"/>
<path d="M43.4675 123.281L44.8242 124.074L44.8388 126.248L43.4821 125.456L43.4675 123.281Z" fill="#5FCF90"/>
<path d="M44.8242 124.074L46.1809 124.871L46.2004 127.051L44.8388 126.248L44.8242 124.074Z" fill="#5FCF90"/>
<path d="M46.1809 124.871L47.5425 125.668L47.5571 127.848L46.2004 127.051L46.1809 124.871Z" fill="#5FCF90"/>
<path d="M47.5425 125.668L48.904 126.466L48.9235 128.645L47.5571 127.848L47.5425 125.668Z" fill="#5FCF90"/>
<path d="M50.2656 127.263L51.6272 128.065L51.6515 130.25L50.2851 129.447L50.2656 127.263Z" fill="#5FCF90"/>
<path d="M55.7312 130.467L57.0976 131.269L57.1268 133.463L55.7555 132.661L55.7312 130.467Z" fill="#5FCF90"/>
<path d="M32.6772 119.111L34.0242 119.899L34.0291 122.063L32.6821 121.271L32.6772 119.111Z" fill="#5FCF90"/>
<path d="M36.7183 121.484L38.0652 122.276L38.075 124.446L36.728 123.649L36.7183 121.484Z" fill="#5FCF90"/>
<path d="M40.7737 123.861L42.1255 124.658L42.1401 126.833L40.7834 126.036L40.7737 123.861Z" fill="#5FCF90"/>
<path d="M47.5571 127.848L48.9235 128.645L48.943 130.834L47.5766 130.032L47.5571 127.848Z" fill="#5FCF90"/>
<path d="M50.2849 129.448L51.6513 130.25L51.6708 132.439L50.3044 131.637L50.2849 129.448Z" fill="#5FCF90"/>
<path d="M51.6514 130.25L53.0178 131.052L53.0421 133.246L51.6708 132.439L51.6514 130.25Z" fill="#5FCF90"/>
<path d="M54.3843 131.854L55.7556 132.661L55.7799 134.855L54.4086 134.048L54.3843 131.854Z" fill="#5FCF90"/>
<path d="M55.7554 132.661L57.1266 133.463L57.1558 135.662L55.7797 134.855L55.7554 132.661Z" fill="#5FCF90"/>
<path d="M57.1267 133.463L58.5029 134.27L58.5272 136.469L57.1559 135.662L57.1267 133.463Z" fill="#5FCF90"/>
<path d="M34.0291 122.063L35.376 122.856L35.3857 125.026L34.0339 124.233L34.0291 122.063Z" fill="#5FCF90"/>
<path d="M36.728 123.648L38.075 124.446L38.0847 126.62L36.7329 125.823L36.728 123.648Z" fill="#5FCF90"/>
<path d="M39.4316 125.238L40.7835 126.036L40.7932 128.215L39.4414 127.418L39.4316 125.238Z" fill="#5FCF90"/>
<path d="M47.5767 130.032L48.9431 130.834L48.9625 133.023L47.5961 132.221L47.5767 130.032Z" fill="#5FCF90"/>
<path d="M50.3044 131.636L51.6709 132.439L51.6952 134.633L50.3288 133.826L50.3044 131.636Z" fill="#5FCF90"/>
<path d="M53.0422 133.246L54.4087 134.048L54.433 136.247L53.0665 135.44L53.0422 133.246Z" fill="#5FCF90"/>
<path d="M54.4084 134.048L55.7797 134.855L55.8089 137.054L54.4328 136.247L54.4084 134.048Z" fill="#5FCF90"/>
<path d="M57.156 135.662L58.5273 136.469L58.5565 138.673L57.1803 137.866L57.156 135.662Z" fill="#5FCF90"/>
<path d="M29.998 121.856L31.3402 122.643L31.345 124.813L29.998 124.021V121.856Z" fill="#5FCF90"/>
<path d="M34.0337 124.233L35.3855 125.026L35.3904 127.2L34.0386 126.403L34.0337 124.233Z" fill="#5FCF90"/>
<path d="M35.3857 125.026L36.7327 125.823L36.7424 127.998L35.3906 127.2L35.3857 125.026Z" fill="#5FCF90"/>
<path d="M42.1545 129.012L43.5112 129.815L43.5258 131.999L42.1643 131.197L42.1545 129.012Z" fill="#5FCF90"/>
<path d="M43.5112 129.815L44.8728 130.617L44.8874 132.801L43.5258 131.999L43.5112 129.815Z" fill="#5FCF90"/>
<path d="M44.873 130.617L46.2346 131.414L46.2492 133.608L44.8876 132.801L44.873 130.617Z" fill="#5FCF90"/>
<path d="M46.2344 131.414L47.5959 132.221L47.6154 134.41L46.249 133.608L46.2344 131.414Z" fill="#5FCF90"/>
<path d="M48.9624 133.023L50.3288 133.826L50.3483 136.024L48.9819 135.217L48.9624 133.023Z" fill="#5FCF90"/>
<path d="M51.6951 134.633L53.0663 135.44L53.0858 137.638L51.7145 136.831L51.6951 134.633Z" fill="#5FCF90"/>
<path d="M53.0664 135.44L54.4328 136.247L54.462 138.45L53.0859 137.638L53.0664 135.44Z" fill="#5FCF90"/>
<path d="M27.2602 61.2757L20.8755 57.6707L19.5091 56.8975V59.0431L19.4702 69.114V71.2837L20.8464 72.0666L27.2554 75.7441L28.6364 76.5318V62.0344L27.2602 61.2757ZM27.2602 73.555L20.8415 69.9017L20.8707 59.8211L27.2651 63.431L27.2602 73.555Z" fill="#5FCF90"/>
<path d="M56.3682 77.6772L49.8231 73.99L48.4275 73.1975V75.3866L48.5199 85.6556V87.8689L49.9252 88.6711L56.5141 92.4259L57.9292 93.2329L57.9 91.0052L57.7687 80.6733L57.7395 78.4746L56.3682 77.6772ZM56.5239 90.203L49.9446 86.453L49.8474 76.1791L56.3974 79.8808L56.5239 90.203Z" fill="#5FCF90"/>
<path d="M27.2457 107.344L20.7297 103.545L19.339 102.734V104.966L19.3 115.443V117.705L20.6762 118.531L27.2311 122.397L28.6413 123.228V108.161L27.2457 107.344ZM27.2457 120.126L20.6956 116.26L20.7297 105.768L27.2457 109.572V120.126Z" fill="#5FCF90"/>
<path d="M22.101 62.4646L26.0203 64.6827L26.0106 70.8731L22.0864 68.6405L22.101 62.4646Z" fill="#5FCF90"/>
<path d="M51.136 78.8901L55.1477 81.1614L55.2206 87.4726L51.1992 85.1868L51.136 78.8901Z" fill="#5FCF90"/>
<path d="M21.9843 108.542L25.9766 110.881L25.9717 117.327L21.9648 114.969L21.9843 108.542Z" fill="#5FCF90"/>
</g>
<defs>
<filter id="filter0_df" x="1.85547" y="136.856" width="77.3793" height="58.386" filterUnits="userSpaceOnUse" color-interpolation-filters="sRGB">
<feFlood flood-opacity="0" result="BackgroundImageFix"/>
<feColorMatrix in="SourceAlpha" type="matrix" values="0 0 0 0 0 0 0 0 0 0 0 0 0 0 0 0 0 0 127 0" result="hardAlpha"/>
<feOffset dy="4"/>
<feGaussianBlur stdDeviation="6.5"/>
<feComposite in2="hardAlpha" operator="out"/>
<feColorMatrix type="matrix" values="0 0 0 0 0.372549 0 0 0 0 0.811765 0 0 0 0 0.564706 0 0 0 1 0"/>
<feBlend mode="normal" in2="BackgroundImageFix" result="effect1_dropShadow"/>
<feBlend mode="normal" in="SourceGraphic" in2="effect1_dropShadow" result="shape"/>
<feGaussianBlur stdDeviation="2" result="effect2_foregroundBlur"/>
</filter>
<linearGradient id="paint0_linear" x1="54.2574" y1="32.3045" x2="92.1564" y2="7.31151" gradientUnits="userSpaceOnUse">
<stop stop-color="#5FCF90"/>
<stop offset="1" stop-color="#F4F4F4" stop-opacity="0"/>
</linearGradient>
<clipPath id="clip0">
<rect width="88" height="196.493" fill="white"/>
</clipPath>
</defs>
</svg>
