<svg width="316" height="327" viewBox="0 0 316 327" fill="none" xmlns="http://www.w3.org/2000/svg">
<path d="M137.383 302.833C213.206 302.833 274.673 241.638 274.673 166.151C274.673 90.663 213.206 29.4681 137.383 29.4681C61.5604 29.4681 0.09375 90.663 0.09375 166.151C0.09375 241.638 61.5604 302.833 137.383 302.833Z" fill="#5BC6F9"/>
<path d="M240.534 178.805C247.569 121.92 206.953 70.1276 149.815 63.1237C92.6778 56.1198 40.6557 96.5564 33.6207 153.441C26.5858 210.326 67.2019 262.118 124.339 269.122C181.477 276.126 233.499 235.689 240.534 178.805Z" fill="white"/>
<path d="M154.455 238.232C194.474 228.824 219.255 188.899 209.806 149.057C200.356 109.215 160.254 84.5437 120.235 93.9515C80.2161 103.359 55.4348 143.284 64.8844 183.126C74.334 222.968 114.436 247.64 154.455 238.232Z" fill="#5BC6F9"/>
<path d="M188.593 166.151C188.593 194.355 165.712 217.135 137.382 217.135C109.052 217.135 85.8076 194.355 85.8076 166.151C85.8076 137.946 108.689 115.166 137.019 115.166C165.348 115.166 188.593 138.308 188.593 166.151Z" fill="white"/>
<path d="M160.991 166.151C160.991 179.168 150.459 189.654 137.383 189.654C124.308 189.654 113.775 179.168 113.775 166.151C113.775 153.133 124.308 142.647 137.383 142.647C150.095 142.647 160.991 153.133 160.991 166.151Z" fill="#5BC6F9"/>
<path d="M198.401 105.041C198.401 105.041 196.222 109.742 196.585 109.742C196.585 109.742 193.68 108.296 193.316 108.296C192.953 108.296 190.411 108.296 189.321 107.934C188.232 107.572 187.505 106.849 187.142 106.849C186.779 106.488 186.052 105.764 186.779 105.764C187.142 105.764 187.868 106.126 188.232 106.488C188.595 106.488 189.684 106.488 189.684 106.488C189.684 106.488 189.321 106.126 188.232 106.126C187.142 105.764 185.689 105.041 185.326 104.68C184.963 104.318 184.963 103.595 186.052 103.957C187.142 103.957 187.868 104.68 187.868 104.68L189.684 105.403C189.684 105.403 188.232 105.041 187.868 104.68C187.505 104.318 186.052 103.957 184.963 103.595C184.236 103.233 184.236 102.149 184.963 102.149C185.689 102.149 187.505 103.233 187.868 103.233C188.232 103.233 189.684 103.957 189.684 103.957C189.684 103.957 187.868 103.233 187.868 102.872C187.505 102.51 185.689 102.149 185.689 101.425C185.689 101.064 185.689 100.702 186.416 100.702C187.142 100.702 188.232 101.064 188.595 101.425C188.958 101.787 191.5 102.872 192.227 102.872C192.59 102.872 193.316 102.872 193.316 102.149L194.043 100.341C194.043 100.341 194.769 100.702 195.132 102.149C195.132 103.595 196.585 104.68 198.401 105.041Z" fill="#FFCEA9"/>
<path d="M252.882 124.567C252.882 120.59 249.613 117.336 245.618 116.612C239.08 115.528 226.731 113.72 223.099 112.996C218.014 111.912 197.312 105.041 197.312 105.041L195.133 110.465C195.133 110.465 217.651 121.675 222.01 122.759C226.368 123.844 247.07 131.076 251.066 128.545C252.518 127.46 252.882 126.014 252.882 124.567Z" fill="#5FCF90"/>
<path d="M269.586 178.807L268.133 174.829H209.295L210.748 178.807H269.586Z" fill="#110239"/>
<path d="M276.488 199.779L275.399 195.802H216.197L217.287 199.779H276.488Z" fill="#110239"/>
<path d="M260.871 157.834L259.419 153.857H200.58L201.67 157.834H260.871Z" fill="#110239"/>
<path d="M283.752 220.752L282.299 216.774H222.734L224.187 220.752H283.752Z" fill="#110239"/>
<path d="M290.654 242.086L289.565 238.108H229.637L230.726 242.086H290.654Z" fill="#110239"/>
<path d="M297.916 263.781L296.826 259.442H236.535L237.625 263.781H297.916Z" fill="#110239"/>
<path d="M305.181 285.477L304.092 281.5H243.438L244.89 285.477H305.181Z" fill="#110239"/>
<path d="M312.082 316.936C314.261 316.936 315.714 315.128 314.987 313.32L259.781 148.433C259.418 147.348 258.328 146.625 257.238 146.625H253.606L309.902 315.128C309.902 316.213 310.992 316.936 312.082 316.936Z" fill="#110239"/>
<path d="M252.154 316.936C254.333 316.936 255.786 315.128 255.06 313.32L202.033 148.433C201.669 147.348 200.58 146.625 199.49 146.625C197.674 146.625 196.221 148.433 196.948 150.241L249.612 315.128C249.975 316.213 251.065 316.936 252.154 316.936Z" fill="#110239"/>
<path d="M252.155 98.5326L251.791 98.8942C250.702 99.979 249.249 101.064 248.159 102.149C247.433 102.872 245.98 103.233 245.254 103.595C244.891 103.957 244.527 103.957 244.527 104.318C244.891 106.488 245.98 112.635 245.98 115.166C245.98 115.166 253.607 114.804 256.15 111.55C255.787 111.55 252.518 103.233 252.155 98.5326Z" fill="#FFCEA9"/>
<path d="M248.159 110.827C248.523 108.657 249.975 106.488 251.428 105.403C252.155 105.041 252.518 104.318 253.244 103.957C252.881 102.149 252.155 99.979 252.155 98.5326L251.791 98.8942C250.702 99.979 249.249 101.064 248.159 102.149C247.433 102.872 245.98 103.233 245.254 103.595C244.891 103.957 244.527 103.957 244.527 104.318C244.891 106.488 245.98 112.635 245.98 115.166C245.98 115.166 247.433 115.166 248.886 114.804C247.796 113.72 247.796 112.273 248.159 110.827Z" fill="#FFCCA6"/>
<path d="M247.797 231.238C247.797 231.238 247.434 238.47 246.344 239.554C245.254 240.639 230.363 241.001 229.274 239.554C227.821 238.108 228.91 235.938 231.816 235.215C235.085 234.131 236.901 235.215 239.08 234.492C241.259 233.769 240.533 230.153 240.533 230.153L247.797 231.238Z" fill="#110239"/>
<path d="M284.48 230.876C284.48 230.876 285.57 238.108 284.48 239.193C283.39 240.278 268.136 241.362 267.046 240.278C265.594 238.831 266.32 236.662 269.589 235.577C272.858 234.492 274.674 235.215 276.853 234.492C278.669 233.769 277.579 230.515 277.579 230.515L284.48 230.876Z" fill="#110239"/>
<path d="M273.584 189.293C273.948 168.682 271.405 154.58 270.316 148.071C267.773 148.071 265.231 148.433 263.052 149.517C258.693 151.687 253.972 153.495 249.613 155.664C253.245 163.258 261.236 187.846 262.325 193.27C263.415 199.779 277.216 232.684 277.216 232.684L285.57 231.599C285.207 226.175 273.584 191.101 273.584 189.293Z" fill="#D0D1DE"/>
<path d="M256.877 152.41C254.335 153.495 252.156 154.58 249.613 155.303C253.245 162.896 259.783 183.507 261.236 188.931C262.325 185.315 267.773 176.999 269.952 167.959C271.405 161.812 271.768 155.664 270.679 149.156C266.32 149.517 261.599 150.241 256.877 152.41Z" fill="#ABADC4"/>
<path d="M263.051 151.325C259.782 152.41 253.971 153.856 249.613 155.664C246.707 163.258 237.627 181.338 236.901 189.654C236.537 198.694 239.443 233.046 239.443 233.046H248.886C248.886 233.046 249.613 194.355 251.065 191.824C255.424 183.507 260.145 176.998 263.051 171.936C267.773 163.258 269.225 157.834 269.952 153.856C270.315 152.048 271.768 146.263 268.862 144.455C266.32 145.178 265.593 150.602 263.051 151.325Z" fill="#D0D1DE"/>
<path d="M246.343 157.473C246.343 157.473 254.333 160.727 261.96 160.004C267.771 159.281 270.677 159.281 273.946 157.473C273.946 157.473 270.314 129.63 266.319 120.952C262.323 112.273 255.423 110.465 255.423 110.465C255.423 110.465 249.975 113.72 245.616 113.358C245.616 113.358 245.616 130.353 245.979 137.223C246.343 144.094 246.343 157.473 246.343 157.473Z" fill="#5FCF90"/>
<path d="M245.979 134.692C245.979 133.969 245.979 133.246 245.979 132.161V131.799C245.979 131.076 245.979 129.991 245.979 129.268V128.907C245.979 127.822 245.979 127.099 245.979 126.014C246.342 126.014 246.705 126.014 247.068 126.014C249.974 125.652 252.153 123.844 254.695 122.398C255.059 122.036 255.422 122.036 255.785 121.675C256.148 125.291 254.695 129.63 253.969 132.884C252.153 140.839 251.063 150.964 252.516 158.919C248.884 158.196 246.705 157.111 246.705 157.111C246.705 157.111 246.705 143.732 246.342 136.862C246.342 136.138 246.342 135.415 246.342 134.692C245.979 135.054 245.979 135.054 245.979 134.692Z" fill="#5ABC85"/>
<path d="M255.787 91.6624C255.787 91.6624 252.519 85.1537 248.523 85.1537C244.165 85.5153 241.623 86.2385 240.896 87.6848C240.17 89.4928 239.443 93.832 238.354 95.6399C237.264 97.4479 235.085 99.6175 235.085 100.341C235.085 101.064 237.627 101.425 237.627 101.787C237.627 102.149 239.08 107.573 239.807 108.296C240.533 109.019 248.887 105.765 249.976 103.233C251.429 100.341 256.151 96.0015 255.787 91.6624Z" fill="#FFCEA9"/>
<path d="M247.433 92.3855C247.07 92.3855 246.343 92.7471 246.343 92.7471C245.617 92.7471 245.254 92.7471 244.527 93.1086C243.438 93.4702 241.985 93.4702 240.895 93.1086C239.079 92.3855 239.806 90.5775 238.716 89.4927C238.353 88.7695 237.263 88.7695 236.9 88.0463C236.537 87.3231 236.174 86.6 236.174 85.5152C236.174 83.7072 237.99 83.3456 239.443 82.984C241.259 82.6224 241.259 81.5376 241.985 80.4528C244.164 77.1985 247.07 81.5376 249.249 81.5376C250.339 81.5376 251.791 80.8144 252.881 81.176C253.971 81.8992 254.334 82.6224 255.06 83.7072C255.787 84.4304 256.513 84.0688 257.239 84.792C257.966 85.1536 258.692 85.8768 259.419 86.2384C260.508 87.6847 261.235 89.4927 260.871 91.3007C260.508 92.7471 259.419 93.4702 259.419 95.2782C259.419 96.363 259.419 98.171 258.692 99.2558C257.966 101.064 255.787 101.064 254.697 102.149C253.607 103.233 251.791 103.956 249.975 103.595C249.975 102.51 249.975 100.341 251.065 99.9789C251.428 99.6174 252.155 99.6173 252.518 99.2558C253.607 98.171 252.881 96.0014 250.702 96.363C249.249 96.7246 248.886 100.341 247.433 99.6173C246.343 99.2558 247.796 97.4478 247.796 96.7246C248.159 96.0014 248.523 93.8318 247.796 93.1086C247.433 92.3855 247.433 92.3855 247.433 92.3855Z" fill="#3A2C6D"/>
<path d="M211.84 157.473C211.477 157.473 210.75 157.473 210.75 157.473C210.024 157.834 208.934 157.472 208.208 157.111C207.118 156.749 205.302 156.026 204.213 156.026C203.486 156.026 199.491 157.111 200.581 158.919C200.581 159.28 201.307 159.642 201.307 159.28C201.67 159.28 202.76 158.557 202.76 158.557C202.76 158.557 202.033 158.919 201.67 158.919C201.67 158.919 201.307 159.28 200.944 159.28C200.581 159.642 200.944 160.365 201.307 160.365C201.67 160.365 202.033 160.004 202.397 160.004C202.033 160.365 201.67 160.365 202.033 161.088C202.397 162.173 202.76 161.45 203.123 161.45H203.486L202.76 161.812C202.397 162.173 203.123 163.258 203.849 163.258C204.213 163.258 205.302 162.535 205.665 162.535C206.029 162.535 206.392 162.535 206.755 162.535C207.845 162.535 208.571 162.535 209.661 161.812C210.024 161.812 210.75 161.45 211.113 161.088C212.203 160.727 212.929 159.642 213.293 159.642C212.566 159.28 211.477 158.919 211.84 157.473Z" fill="#FFCEA9"/>
<path d="M213.292 162.535L210.023 156.026C210.023 156.026 226.367 145.54 232.179 139.754C237.99 133.607 244.527 121.675 249.249 120.951C253.971 120.228 258.329 122.759 255.787 128.906C253.244 135.054 239.806 143.732 237.263 146.263C234.358 149.156 215.835 161.088 213.292 162.535Z" fill="#5FCF90"/>
<path d="M258.329 9.21893C255.424 8.13415 245.981 3.07183 238.716 20.7899C231.452 37.4233 224.188 60.2037 224.188 60.2037C224.188 60.2037 242.712 45.0168 255.787 32.361C269.589 18.982 261.235 10.6653 258.329 9.21893Z" fill="#01C7E2"/>
<path d="M242.713 22.5978L224.916 40.6775C219.468 46.1014 214.746 52.2485 210.388 58.3956L137.748 166.151L220.194 77.5601C229.638 67.4355 237.265 56.226 242.713 43.5702L249.614 28.3833C246.708 26.9369 244.529 25.1289 242.713 22.5978Z" fill="#110239"/>
<path d="M221.285 61.2885C221.285 61.2885 209.3 28.0218 220.559 6.68773C231.818 -15.0079 246.346 26.2138 246.346 26.2138L221.285 61.2885Z" fill="#01C7E2"/>
<path d="M220.922 61.2884C220.922 61.2884 256.515 61.2884 272.859 43.5703C289.567 25.8522 245.619 25.8522 245.619 25.8522L220.922 61.2884Z" fill="#01C7E2"/>
<path d="M194.77 105.403C194.406 105.403 194.043 106.126 194.043 105.764V105.041C194.043 104.318 191.138 104.318 190.775 103.956C188.959 102.872 189.685 101.787 190.411 102.148C191.138 102.148 192.227 102.872 192.591 102.872C192.954 103.233 194.043 102.872 194.406 103.233C194.77 103.233 196.222 104.68 196.586 104.68C197.675 105.041 195.496 105.764 194.77 105.403Z" fill="#FFCEA9"/>
<path d="M66.5608 209.904C66.5608 209.904 52.0328 213.52 41.1368 221.475C30.2408 229.43 18.6184 254.741 16.4392 272.098C14.26 289.816 9.90158 303.557 16.4392 312.597C22.9768 321.636 44.7688 323.444 63.6552 325.252C82.1784 327.06 107.966 322.721 113.414 316.212C118.498 309.704 118.135 260.889 108.329 242.086C98.1592 224.006 80.7256 209.542 66.5608 209.904Z" fill="#5FCF90"/>
<path d="M91.2572 315.489C87.6252 314.404 83.63 312.958 80.3612 310.427C73.8236 305.003 69.8284 303.195 61.4748 303.556C53.8476 303.556 46.5836 303.556 40.046 299.217C34.2348 295.24 30.966 286.923 32.4188 280.053C33.5084 275.352 34.9612 271.374 37.8668 267.397C42.2252 261.611 42.9516 257.634 41.4988 250.764C39.6828 242.447 39.3196 235.215 41.862 226.898C43.3148 222.559 46.2204 219.305 49.4892 216.774C46.5836 218.22 43.3148 220.028 40.4092 222.198C29.5132 230.153 17.8908 255.464 15.7116 272.821C13.5324 290.539 9.17404 304.279 15.7116 313.319C22.2492 322.359 44.0412 324.167 62.9276 325.975C81.4508 327.783 107.238 323.444 112.686 316.935C113.776 315.851 114.502 312.958 114.865 308.98C109.054 314.766 100.337 318.382 91.2572 315.489Z" fill="#5ABC85"/>
<path d="M64.3816 213.52C64.3816 213.52 48.764 209.904 46.5848 197.971C44.4056 186.038 50.58 182.061 55.6648 184.954C60.3864 187.846 61.1128 186.038 64.7448 184.23C68.0136 182.061 73.0984 185.677 75.2776 188.931C77.82 192.547 78.1832 188.208 83.9944 187.846C89.8056 187.485 91.6216 192.547 88.716 199.779C85.4472 206.649 82.5416 213.881 64.3816 213.52Z" fill="#5FCF90"/>
<path d="M81.4508 207.011C77.4556 208.096 79.6348 202.672 79.2716 200.864C78.182 200.864 77.8188 202.672 77.4556 203.395C76.7292 205.203 74.9132 206.288 73.0972 206.288C70.5548 206.288 70.1916 203.395 69.102 201.949C68.7388 201.225 68.3756 201.225 68.0124 201.949C67.6492 203.033 68.0124 204.118 67.286 204.841C65.8332 206.288 62.9276 204.48 61.838 203.395C60.3852 202.31 60.022 200.141 58.5692 199.056C58.206 199.417 58.206 199.779 58.206 200.141C57.8428 201.949 57.8428 205.203 55.3004 204.48C52.758 204.118 51.3052 200.141 50.5788 198.333C49.8524 196.163 48.7628 193.27 48.7628 191.101C48.7628 190.016 48.7628 188.931 49.126 187.846C49.126 187.123 49.4892 186.038 49.8524 185.315C47.6732 187.123 46.2204 191.462 47.31 197.971C49.126 208.096 60.7484 212.435 64.0172 213.158C64.7436 213.52 65.1068 213.52 65.8332 213.52C79.998 213.52 84.7196 208.457 87.262 203.033C86.8988 203.033 82.9036 206.649 81.4508 207.011Z" fill="#5ABC85"/>
<path d="M70.9177 248.956C78.545 249.679 85.4458 253.295 85.4458 260.888L72.7337 260.527C72.7337 257.634 69.8281 256.911 68.0121 256.911C66.9225 256.911 62.9273 256.911 62.9273 259.08C62.9273 264.504 86.5353 259.442 86.1721 274.267C86.1721 283.307 78.9081 286.2 70.1913 286.923L70.5545 296.325H62.5641L63.2905 286.923C55.3001 285.838 48.0361 282.222 48.0361 273.906L60.7481 274.267V274.629C60.7481 278.245 64.7433 278.968 66.5593 278.968C68.3753 278.968 72.3705 278.968 72.3705 276.437C72.3705 271.013 48.7625 275.714 49.1257 261.25C49.1257 252.933 55.6633 250.041 63.6537 249.317L64.0169 239.193H72.0073L70.9177 248.956Z" fill="white"/>
<path d="M53.1208 208.096L51.668 215.689C51.668 215.689 55.6632 219.667 66.5592 219.667C77.4552 219.667 83.2664 215.689 83.2664 215.689L82.54 208.819C82.54 208.819 67.6488 212.435 53.1208 208.096Z" fill="#110239"/>
</svg>
