<?xml version="1.0" encoding="UTF-8" standalone="no"?>
<svg
   xmlns:dc="http://purl.org/dc/elements/1.1/"
   xmlns:cc="http://creativecommons.org/ns#"
   xmlns:rdf="http://www.w3.org/1999/02/22-rdf-syntax-ns#"
   xmlns:svg="http://www.w3.org/2000/svg"
   xmlns="http://www.w3.org/2000/svg"
   width="300.58563"
   height="295.75955"
   viewBox="0 0 300.58563 295.75955"
   fill="none"
   version="1.1"
   id="svg76">
  <metadata
     id="metadata82">
    <rdf:RDF>
      <cc:Work
         rdf:about="">
        <dc:format>image/svg+xml</dc:format>
        <dc:type
           rdf:resource="http://purl.org/dc/dcmitype/StillImage" />
        <dc:title></dc:title>
      </cc:Work>
    </rdf:RDF>
  </metadata>
  <defs
     id="defs80" />
  <path
     d="m 146.03703,267.6 c 73.899,0 133.805,-59.904 133.805,-133.8 C 279.84203,59.904 219.93603,0 146.03703,0 72.139028,0 12.232028,59.904 12.232028,133.8 c 0,73.896 59.907,133.8 133.805002,133.8 z"
     fill="#5bc6f9"
     id="path2" />
  <path
     d="m 256.87503,159.648 c 14.315,-61.27 -23.752,-122.542 -85.024,-136.856 -61.273,-14.314 -122.548002,23.751 -136.862002,85.021 -14.315,61.27 23.752,122.543 85.024002,136.857 61.273,14.314 122.548,-23.752 136.862,-85.022 z"
     fill="#ffffff"
     id="path4" />
  <path
     d="m 146.03603,136.709 c -1.454,0 -2.424,-0.97 -2.424,-2.424 V 42.661 c 0,-1.455 0.97,-2.424 2.424,-2.424 1.455,0 2.424,0.969 2.424,2.424 v 91.624 c 0,1.454 -0.969,2.424 -2.424,2.424 z"
     fill="#5fcf90"
     id="path6" />
  <path
     d="m 147.97403,135.739 c -0.485,0.97 -1.94,1.455 -2.909,0.97 L 90.767028,107.622 c -0.969,-0.485 -1.454,-1.939 -0.969,-2.909 0.484,-0.969 1.939,-1.454 2.908,-0.969 l 54.298002,29.086 c 0.97,0.485 1.454,1.94 0.97,2.909 z"
     fill="#5fcf90"
     id="path8" />
  <path
     d="m 240.39703,255.665 c -43.147,-7.757 -93.566,-17.452 -93.566,-0.97 0,15.998 18.907,28.118 35.39,35.874 8.727,-3.393 18.908,-3.878 28.604,-5.332 16.968,-2.424 33.451,0 50.419,0 17.453,-7.272 27.149,-19.876 27.149,-19.876 0,0 -14.544,-3.394 -47.996,-9.696 z"
     fill="#616161"
     id="path10" />
  <path
     d="m 203.89303,280.589 c 1.46,0.427 -15.091,7.68 -13.63,8.107 7.302,2.133 76.912,2.133 83.24,0.853 11.196,-2.56 -20.445,-14.507 -9.249,-16.64 18.011,-11.094 28.234,-26.028 18.498,-27.735 -11.196,-2.133 -28.234,2.987 -39.43,4.267 -8.762,0.854 -13.63,1.28 -21.418,-1.28 l -27.747,-2.56 c -27.747,4.694 -33.588,13.654 -34.075,13.654 0,3.413 20.445,10.667 38.456,19.201 1.947,0.426 3.894,1.28 5.355,2.133 z"
     fill="#5fcf90"
     id="path12" />
  <path
     d="m 193.85603,275.057 8.726,12.119 c 0,0 -9.696,6.787 -12.12,7.757 -2.908,0.969 -24.24,1.939 -30.057,-2.424 -4.848,-3.879 -6.787,-9.211 -4.363,-11.635 3.393,-2.909 11.15,-3.878 15.513,-4.363 8.727,-0.97 22.301,-1.454 22.301,-1.454 z"
     fill="#000000"
     id="path14" />
  <path
     d="m 188.52603,275.541 4.848,17.937 c 0,0 85.325,-1.454 94.536,-14.543 11.636,-11.635 15.999,-34.904 -6.787,-35.389 -3.393,0 -9.211,0.969 -15.029,2.908 -31.512,10.666 -77.568,29.087 -77.568,29.087 z"
     fill="#d0d1de"
     id="path16" />
  <path
     d="m 283.06103,274.087 c -5.333,0 -9.696,-2.424 -14.059,-5.332 -5.333,-3.394 -11.635,-5.333 -17.453,-6.787 -5.333,-1.455 -11.15,-2.909 -15.514,-4.848 -24.724,8.241 -47.025,17.937 -47.025,17.937 l 3.878,14.059 c 1.939,0.484 4.363,0.969 6.787,1.454 2.424,0 5.333,0.485 7.757,1.454 0.485,0 0.97,0.485 1.455,0.485 24.724,-1.454 74.174,-5.333 80.476,-14.543 0.97,-1.455 3.394,-4.363 3.879,-5.818 -2.424,0.485 -8.242,1.939 -10.181,1.939 z"
     fill="#c3c4ce"
     id="path18" />
  <path
     d="m 262.21203,276.026 -7.272,9.211 c 0,0 12.12,7.272 14.544,8.726 2.424,1.455 19.877,1.94 25.695,-1.939 4.848,-3.393 6.787,-8.241 4.363,-10.665 -2.909,-2.909 -10.666,-4.363 -14.544,-4.848 -8.726,-1.454 -22.786,-0.485 -22.786,-0.485 z"
     fill="#000000"
     id="path20" />
  <path
     d="m 270.45603,274.087 -7.757,20.845 c 0,0 -104.717,-8.241 -113.443,-22.784 -5.333,-8.726 -5.818,-22.3 5.333,-27.148 6.787,-2.909 16.483,-4.363 30.057,0 33.936,11.635 85.81,29.087 85.81,29.087 z"
     fill="#d0d1de"
     id="path22" />
  <path
     d="m 229.24903,134.47 h -7.272 -7.272 c 0,0 -1.94,20.36 -5.818,22.784 0,0 -4.848,23.755 13.574,23.755 21.816,0 13.575,-23.755 13.575,-23.755 -4.363,-2.908 -6.787,-22.784 -6.787,-22.784 z"
     fill="#ffcea9"
     id="path24" />
  <path
     d="m 241.37003,138.348 c -1.94,-2.424 -4.364,1.455 -4.364,1.455 0,0 3.394,-13.574 0,-19.392 -3.393,-5.817 -14.544,-2.908 -14.544,-2.908 0,0 -11.15,-2.909 -14.544,2.908 -3.393,5.818 0,19.392 0,19.392 0,0 -2.424,-3.394 -4.363,-1.455 -1.939,2.424 3.394,8.242 4.848,9.211 0,0 7.757,15.028 14.544,15.028 6.303,0 14.544,-15.028 14.544,-15.028 0.485,-0.969 5.818,-6.787 3.879,-9.211 z"
     fill="#ffcea9"
     id="path26" />
  <path
     d="m 219.55303,122.835 c 0,0 -8.242,1.454 -9.211,5.817 -0.485,1.939 0,4.363 0.484,6.787 0,0.969 0.97,7.272 0.485,7.272 -0.485,0 -0.969,0 -0.969,0 -0.97,-0.97 -1.94,-2.424 -2.909,-3.394 -1.455,-2.424 -3.879,-1.939 -4.363,-0.485 0,0 -1.94,-21.815 7.272,-22.784 9.211,-0.97 9.211,6.787 9.211,6.787 z"
     fill="#3a2c6d"
     id="path28" />
  <path
     d="m 224.88603,122.835 c 0,0 8.241,1.454 9.211,5.817 0.485,1.939 0,4.363 -0.485,6.787 0,0.969 -0.969,7.272 -0.485,7.272 0.485,0 0.97,0 0.97,0 0.969,-0.97 1.939,-2.424 2.909,-3.394 1.454,-2.424 3.878,-1.939 4.363,-0.485 0,0 1.939,-21.815 -7.272,-22.784 -9.211,-0.97 -9.211,6.787 -9.211,6.787 z"
     fill="#3a2c6d"
     id="path30" />
  <path
     d="m 237.00503,117.502 c 0,0 0,-3.393 -3.878,-5.817 -3.879,-2.424 -12.12,-3.394 -18.908,0 -6.302,3.393 -8.241,3.878 -10.18,2.909 -1.94,-0.97 -0.485,-1.94 -0.485,-1.94 0,0 -4.364,0 -3.879,6.787 0,6.787 8.242,14.544 18.908,14.544 15.998,-0.485 21.331,-11.635 18.422,-16.483 z"
     fill="#3a2c6d"
     id="path32" />
  <path
     d="m 235.54903,156.77 c -0.969,20.361 -13.574,18.422 -13.574,18.422 0,0 -12.605,1.939 -13.575,-18.422 0,0 -20.361,5.817 -30.057,12.119 0,0 4.363,17.937 4.363,37.329 l 11.635,44.6 27.634,-4.848 27.633,4.848 11.636,-44.6 c 0.484,-19.876 4.363,-37.329 4.363,-37.329 -10.181,-6.302 -30.058,-12.119 -30.058,-12.119 z"
     fill="#5fcf90"
     id="path34" />
  <path
     d="m 258.81903,181.009 c -12.604,6.787 -18.907,22.3 -31.027,29.572 -12.605,7.756 -21.331,-7.757 -27.634,-15.998 -5.332,-7.272 -12.12,-12.604 -20.361,-15.998 0.969,7.272 2.424,17.452 2.909,28.118 l 11.635,44.6 27.633,-3.394 27.634,3.394 11.635,-44.6 c 0,-10.666 1.455,-20.846 2.424,-28.118 -1.939,0.97 -3.393,1.455 -4.848,2.424 z"
     fill="#5abc85"
     id="path36" />
  <path
     d="m 178.34403,169.374 c 0,0 -22.785,53.811 -23.27,61.082 -0.485,14.544 31.027,20.361 45.086,17.453 l 5.818,-0.97 c 0,0 -20.847,-78.05 -27.634,-77.565 z"
     fill="#5fcf90"
     id="path38" />
  <path
     d="m 265.12303,169.374 c 0,0 23.27,53.811 23.27,61.082 0,14.544 -31.027,20.361 -45.086,17.453 l -5.818,-0.97 c 0,0 21.331,-78.05 27.634,-77.565 z"
     fill="#5fcf90"
     id="path40" />
  <path
     d="m 188.04003,188.281 c 0,2.424 -0.485,5.332 -0.97,7.756 -2.424,9.696 -5.817,19.876 -1.939,30.057 2.909,7.272 7.272,15.028 11.151,22.3 1.454,0 2.908,0 3.878,0 l 5.818,-0.97 c 0,-0.484 -9.696,-36.358 -17.938,-59.143 z"
     fill="#b8b9cd"
     id="path42" />
  <path
     d="m 251.54703,247.424 c 1.939,-4.363 2.909,-9.211 2.909,-14.544 -0.485,-10.18 -0.485,-19.876 0,-30.056 0,-4.363 0,-8.726 0.485,-12.604 -8.242,22.784 -16.968,56.234 -16.968,56.234 l 5.817,0.97 c 1.939,0.97 4.848,0.97 7.757,0 z"
     fill="#b8b9cd"
     id="path44" />
  <path
     d="m 257.85003,247.424 h -72.235 v 4.363 h 72.235 z"
     fill="#110239"
     id="path46" />
  <path
     d="m 268.51703,197.491 h -93.082 c 0,0 -4.848,0 -4.363,5.818 0.97,5.817 12.605,45.085 15.029,45.085 4.363,0 35.875,0 35.875,0 0,0 31.512,0 35.875,0 1.94,0 14.06,-39.268 15.029,-45.085 0.485,-5.818 -4.363,-5.818 -4.363,-5.818 z"
     fill="#110239"
     id="path48" />
  <path
     d="m 225.85403,224.639 c 0,1.94 -1.939,3.879 -3.878,3.879 -1.939,0 -3.878,-1.939 -3.878,-3.879 0,-1.939 1.939,-3.878 3.878,-3.878 1.939,0 3.878,1.939 3.878,3.878 z"
     fill="#ffffff"
     id="path50" />
  <path
     d="m 43.656028,191.83 c 0,0 -11.68,2.907 -20.44,9.303 -8.759,6.395 -18.1031996,26.744 -19.8550996,40.698 -1.752,14.244 -5.2559,25.291 0,32.558 5.2561,7.268 22.7750996,8.721 37.9590996,10.175 14.891,1.453 35.623,-2.035 40.003,-7.268 4.088,-5.232 3.796,-44.477 -4.088,-59.593 -8.176,-14.536 -22.192,-26.164 -33.579,-25.873 z"
     fill="#5fcf90"
     id="path52" />
  <path
     d="m 63.510028,276.715 c -2.92,-0.873 -6.132,-2.035 -8.76,-4.07 -5.255,-4.361 -8.467,-5.814 -15.183,-5.524 -6.132,0 -11.972,0 -17.228,-3.488 -4.672,-3.198 -7.299,-9.884 -6.131,-15.407 0.876,-3.779 2.043,-6.977 4.379,-10.175 3.504,-4.651 4.088,-7.849 2.92,-13.372 -1.46,-6.686 -1.752,-12.5 0.292,-19.186 1.168,-3.489 3.504,-6.105 6.132,-8.14 -2.336,1.163 -4.964,2.616 -7.3,4.361 -8.759,6.395 -18.1031996,26.744 -19.8550996,40.698 -1.752,14.244 -5.2559,25.291 0,32.558 5.2561,7.268 22.7750996,8.721 37.9590996,10.175 14.891,1.453 35.623,-2.035 40.003,-7.268 0.876,-0.872 1.46,-3.197 1.752,-6.395 -4.672,4.651 -11.68,7.558 -18.98,5.233 z"
     fill="#5abc85"
     id="path54" />
  <path
     d="m 41.903028,194.737 c 0,0 -12.556,-2.907 -14.308,-12.5 -1.752,-9.593 3.212,-12.791 7.3,-10.465 3.796,2.325 4.38,0.872 7.3,-0.582 2.628,-1.744 6.716,1.163 8.468,3.779 2.044,2.907 2.336,-0.581 7.007,-0.872 4.672,-0.29 6.132,3.779 3.796,9.593 -2.628,5.524 -4.964,11.338 -19.563,11.047 z"
     fill="#5fcf90"
     id="path56" />
  <path
     d="m 55.626028,189.504 c -3.212,0.873 -1.46,-3.488 -1.752,-4.941 -0.876,0 -1.168,1.453 -1.46,2.034 -0.584,1.454 -2.044,2.326 -3.504,2.326 -2.044,0 -2.336,-2.326 -3.212,-3.488 -0.292,-0.582 -0.584,-0.582 -0.876,0 -0.292,0.872 0,1.744 -0.584,2.325 -1.168,1.163 -3.504,-0.29 -4.38,-1.163 -1.168,-0.872 -1.46,-2.616 -2.628,-3.488 -0.291,0.291 -0.291,0.581 -0.291,0.872 -0.292,1.454 -0.292,4.07 -2.336,3.489 -2.044,-0.291 -3.212,-3.489 -3.796,-4.942 -0.584,-1.745 -1.46,-4.07 -1.46,-5.814 0,-0.873 0,-1.745 0.292,-2.617 0,-0.581 0.292,-1.453 0.584,-2.035 -1.752,1.454 -2.92,4.942 -2.044,10.175 1.46,8.14 10.803,11.628 13.431,12.209 0.584,0.291 0.876,0.291 1.46,0.291 11.388,0 15.184,-4.07 17.228,-8.43 -0.292,0 -3.504,2.907 -4.672,3.197 z"
     fill="#5abc85"
     id="path58" />
  <path
     d="m 47.158028,223.226 c 6.132,0.581 11.68,3.488 11.68,9.593 l -10.22,-0.291 c 0,-2.325 -2.336,-2.907 -3.796,-2.907 -0.876,0 -4.088,0 -4.088,1.745 0,4.36 18.98,0.29 18.688,12.209 0,7.268 -5.84,9.593 -12.848,10.175 l 0.292,7.558 h -6.424 l 0.584,-7.558 c -6.423,-0.872 -12.263,-3.779 -12.263,-10.466 l 10.219,0.291 v 0.291 c 0,2.907 3.212,3.488 4.672,3.488 1.46,0 4.672,0 4.672,-2.035 0,-4.36 -18.979,-0.581 -18.687,-12.209 0,-6.686 5.256,-9.012 11.679,-9.593 l 0.292,-8.14 h 6.424 z"
     fill="#ffffff"
     id="path60" />
  <path
     d="m 32.851028,190.377 -1.168,6.104 c 0,0 3.212,3.198 11.971,3.198 8.76,0 13.432,-3.198 13.432,-3.198 l -0.584,-5.523 c 0,0 -11.972,2.907 -23.651,-0.581 z"
     fill="#110239"
     id="path62" />
  <path
     d="m 79.489028,223.93 c 0,0 -8.425,2.097 -14.743,6.71 -6.319,4.613 -13.058,19.291 -14.322,29.355 -1.264,10.275 -3.791,18.242 0,23.484 3.791,5.242 16.428,6.291 27.38,7.339 10.741,1.049 25.694002,-1.467 28.853002,-5.242 2.949,-3.774 2.738,-32.081 -2.948,-42.984 C 97.812028,232.108 87.702028,223.721 79.489028,223.93 Z"
     fill="#5fcf90"
     id="path64" />
  <path
     d="m 93.809028,285.157 c -2.106,-0.629 -4.422,-1.468 -6.318,-2.936 -3.791,-3.145 -6.108,-4.193 -10.952,-3.984 -4.423,0 -8.635,0 -12.426,-2.516 -3.37,-2.306 -5.265,-7.129 -4.423,-11.113 0.632,-2.726 1.475,-5.032 3.16,-7.339 2.527,-3.355 2.948,-5.661 2.106,-9.645 -1.053,-4.823 -1.264,-9.016 0.21,-13.839 0.843,-2.516 2.528,-4.403 4.423,-5.871 -1.685,0.839 -3.58,1.887 -5.265,3.145 -6.319,4.613 -13.058,19.291 -14.322,29.355 -1.263,10.275 -3.791,18.243 0,23.485 3.791,5.242 16.428,6.29 27.38,7.338 10.741,1.049 25.694002,-1.467 28.854002,-5.242 0.631,-0.629 1.053,-2.306 1.263,-4.613 -3.37,3.355 -8.424002,5.452 -13.690002,3.775 z"
     fill="#5abc85"
     id="path66" />
  <path
     d="m 78.225028,226.027 c 0,0 -9.057,-2.097 -10.32,-9.016 -1.264,-6.92 2.316,-9.226 5.265,-7.549 2.738,1.678 3.159,0.629 5.265,-0.419 1.896,-1.258 4.844,0.838 6.108,2.726 1.474,2.096 1.685,-0.42 5.055,-0.629 3.369,-0.21 4.422,2.725 2.737,6.919 -1.895,3.984 -3.58,8.178 -14.11,7.968 z"
     fill="#5fcf90"
     id="path68" />
  <path
     d="m 88.123028,222.253 c -2.317,0.629 -1.053,-2.517 -1.264,-3.565 -0.632,0 -0.842,1.048 -1.053,1.468 -0.421,1.048 -1.474,1.677 -2.527,1.677 -1.475,0 -1.685,-1.677 -2.317,-2.516 -0.211,-0.419 -0.421,-0.419 -0.632,0 -0.211,0.629 0,1.258 -0.421,1.677 -0.843,0.839 -2.527,-0.209 -3.159,-0.838 -0.843,-0.629 -1.053,-1.887 -1.896,-2.516 -0.21,0.209 -0.21,0.419 -0.21,0.629 -0.211,1.048 -0.211,2.935 -1.685,2.516 -1.475,-0.21 -2.317,-2.516 -2.738,-3.565 -0.422,-1.258 -1.053,-2.935 -1.053,-4.193 0,-0.629 0,-1.258 0.21,-1.888 0,-0.419 0.211,-1.048 0.421,-1.467 -1.263,1.048 -2.106,3.564 -1.474,7.339 1.053,5.871 7.793,8.387 9.688,8.806 0.422,0.21 0.632,0.21 1.053,0.21 8.214,0 10.952,-2.936 12.426,-6.081 -0.21,0 -2.527,2.097 -3.369,2.307 z"
     fill="#5abc85"
     id="path70" />
  <path
     d="m 82.015028,246.576 c 4.422,0.419 8.424,2.516 8.424,6.919 l -7.371,-0.209 c 0,-1.678 -1.685,-2.097 -2.738,-2.097 -0.632,0 -2.949,0 -2.949,1.258 0,3.145 13.69,0.21 13.479,8.806 0,5.242 -4.212,6.92 -9.267,7.339 l 0.211,5.452 h -4.633 l 0.421,-5.452 c -4.634,-0.629 -8.846,-2.726 -8.846,-7.548 l 7.372,0.209 v 0.21 c 0,2.097 2.316,2.516 3.369,2.516 1.053,0 3.37,0 3.37,-1.467 0,-3.146 -13.69,-0.42 -13.479,-8.807 0,-4.823 3.791,-6.5 8.424,-6.92 l 0.211,-5.871 h 4.633 z"
     fill="#ffffff"
     id="path72" />
  <path
     d="m 71.695028,222.882 -0.842,4.403 c 0,0 2.316,2.306 8.635,2.306 6.318,0 9.688,-2.306 9.688,-2.306 l -0.421,-3.984 c 0,0 -8.636,2.097 -17.06,-0.419 z"
     fill="#110239"
     id="path74" />
</svg>
