<svg width="71" height="42" viewBox="0 0 71 42" fill="none" xmlns="http://www.w3.org/2000/svg">
<path d="M30.8701 7.28539L30.8959 14.0286L37.6231 14.0025L37.5973 7.25928L30.8701 7.28539ZM36.9394 13.3171L31.5861 13.3367L31.5667 7.99692L36.9201 7.97734L36.9394 13.3171Z" fill="white"/>
<path d="M35.9994 8.81494H32.4131V12.4446H35.9994V8.81494Z" fill="white"/>
<path d="M29.6563 29.9173H25.9154C28.218 27.6652 29.6563 24.5057 29.6563 21.0068C29.6563 14.1657 24.1804 8.62354 17.4209 8.62354C10.6615 8.62354 5.18555 14.1657 5.18555 21.0068C5.18555 27.7631 10.526 33.253 17.1694 33.3836H17.4209H29.6498V29.9173H29.6563ZM9.08771 21.0068C9.08771 16.0848 12.8222 12.0963 17.4209 12.0963C22.0261 12.0963 25.7541 16.0848 25.7541 21.0068C25.7541 25.8962 22.0713 29.8651 17.5112 29.9173H17.3306C12.7706 29.8651 9.08771 25.8962 9.08771 21.0068Z" fill="white"/>
<path d="M36.0221 33.3901H32.5908V16.4438H36.0221V33.3901Z" fill="white"/>
<path d="M54.0366 20.0733C53.6625 19.1986 53.1465 18.4348 52.4951 17.7755C51.8437 17.1162 51.089 16.594 50.2248 16.2154C49.3605 15.8368 48.4382 15.6475 47.4384 15.6475C46.4 15.6475 45.4583 15.889 44.6069 16.3655C43.7685 16.8421 43.0138 17.4622 42.3366 18.226V16.4373H38.9053V33.3836H42.3366V23.5853C42.3688 23.2002 42.4462 22.8281 42.601 22.4821C42.601 22.4756 42.6075 22.469 42.6139 22.4625C43.2267 20.6347 44.8133 19.3226 46.6967 19.3226C49.0057 19.3226 50.8762 21.294 51.0245 23.7746C51.031 23.8007 51.0503 23.8268 51.0503 23.8529L51.2245 33.377H54.5978V22.8933C54.5978 21.8881 54.4107 20.9481 54.0366 20.0733Z" fill="white"/>
<path d="M65.9882 32.293C65.7947 31.4117 65.6077 30.5305 65.4142 29.6492C65.3432 29.3228 65.0852 29.2053 64.8401 29.238C64.7499 29.2445 64.6596 29.2641 64.5693 29.3032C64.1371 29.4926 63.6921 29.6557 63.2277 29.7471C63.0471 29.7798 62.9632 29.7928 62.7697 29.7994C62.6924 29.7994 62.615 29.7994 62.5311 29.7928C62.5053 29.7928 62.4795 29.7863 62.4537 29.7863C62.4473 29.7863 62.4344 29.7798 62.415 29.7798C62.3505 29.7667 62.286 29.7537 62.2215 29.7341C62.2022 29.7276 62.1119 29.6884 62.099 29.6819C62.0603 29.6623 62.028 29.6427 61.9893 29.6231C61.97 29.6166 61.9635 29.6101 61.9506 29.6035C61.9506 29.6035 61.9442 29.597 61.9377 29.5905C61.899 29.5513 61.8603 29.5187 61.8216 29.4795C61.8087 29.4664 61.7765 29.4273 61.7636 29.4077C61.712 29.3359 61.6733 29.2576 61.6281 29.1792C61.6217 29.1727 61.6217 29.1596 61.6152 29.1531C61.6152 29.1466 61.6152 29.1466 61.6088 29.14C61.5894 29.0944 61.5765 29.0421 61.5572 28.9964C61.5249 28.8985 61.5056 28.8006 61.4862 28.7027C61.4798 28.6766 61.4798 28.6505 61.4733 28.6244C61.4669 28.5982 61.4669 28.5591 61.4604 28.5395C61.4604 28.5264 61.4604 28.5134 61.4604 28.4938V27.8606C61.4669 27.7627 61.4927 27.6125 61.4604 27.828V27.8214C61.4669 27.7496 61.4669 27.6843 61.4604 27.6191V19.0089L63.2793 18.9958L64.2532 15.5687H61.4604V12.6899H58.0291V15.5687H55.2363V19.0415L58.0291 19.0219V28.5852H58.0485C58.0807 30.0735 58.4226 31.7642 59.5964 32.7304C59.6803 32.8022 59.7706 32.8544 59.8544 32.9197C59.8673 32.9327 60.0608 33.0959 60.0608 33.0959C60.1382 33.1547 60.2156 33.2069 60.2995 33.2591C60.5188 33.3897 60.7638 33.4876 61.0089 33.5594C61.9377 33.827 62.9503 33.7161 63.8791 33.5267C64.4596 33.4027 65.0465 33.2395 65.5948 33.0176C65.885 32.887 66.0592 32.6324 65.9882 32.293Z" fill="white"/>
</svg>
